<?xml version="1.0" standalone="no"?><!DOCTYPE svg PUBLIC "-//W3C//DTD SVG 1.1//EN" "http://www.w3.org/Graphics/SVG/1.1/DTD/svg11.dtd" ><svg version="1.1" xmlns="http://www.w3.org/2000/svg"><defs><font horiz-adv-x="0" id="font"><font-face ascent="840" bbox="-28 -200 1295.3376 973" cap-height="760" descent="-160" font-family="Daraz" font-stretch="condensed" font-style="normal" font-weight="700" units-per-em="1000" x-height="570" /><missing-glyph d="M75 0H425C438 0 445 7 445 20V740C445 753 438 760 425 760H75C62 760 55 753 55 740V20C55 7 62 0 75 0ZM250 411 160 668H340ZM145 123V637L235 380ZM355 123 265 380 355 637ZM160 92 250 349 340 92Z" horiz-adv-x="500" /><glyph d="M216 569H223L232 476L252 259L262 138L273 19C274 7 282 0 294 0H423C436 0 443 9 441 22L324 742C322 755 315 760 303 760H148C136 760 129 755 127 742L8 22C6 9 13 0 26 0H146C158 0 166 7 167 19L178 138L187 259L207 476ZM153 133H290C303 133 310 140 310 153V239C310 252 303 259 290 259H153C140 259 133 252 133 239V153C133 140 140 133 153 133ZM220 0ZM445 0ZM223 760Z" glyph-name="A" horiz-adv-x="449" unicode="A" /><glyph d="M265 628H534C547 628 554 635 554 648V740C554 753 547 760 534 760H298C287 760 278 755 275 743L248 650C244 637 251 628 265 628ZM362 317H524C537 317 544 324 544 337V429C544 442 537 449 524 449H362C349 449 342 442 342 429V337C342 324 349 317 362 317ZM306 0H534C547 0 554 7 554 20V112C554 125 547 132 534 132H358C347 132 340 128 335 117L291 24C285 10 291 0 306 0ZM216 569H223L232 476L252 259L262 138L273 19C274 7 282 0 294 0H423C436 0 443 9 441 22L324 742C322 755 315 760 303 760H148C136 760 129 755 127 742L8 22C6 9 13 0 26 0H146C158 0 166 7 167 19L178 138L187 259L207 476ZM153 133H290C303 133 310 140 310 153V239C310 252 303 259 290 259H153C140 259 133 252 133 239V153C133 140 140 133 153 133ZM220 0ZM445 0ZM223 760ZM311 760Z" glyph-name="AE" horiz-adv-x="576" unicode="&#198;" /><glyph d="M265 628H534C547 628 554 635 554 648V740C554 753 547 760 534 760H298C287 760 278 755 275 743L248 650C244 637 251 628 265 628ZM362 317H524C537 317 544 324 544 337V429C544 442 537 449 524 449H362C349 449 342 442 342 429V337C342 324 349 317 362 317ZM306 0H534C547 0 554 7 554 20V112C554 125 547 132 534 132H358C347 132 340 128 335 117L291 24C285 10 291 0 306 0ZM216 569H223L232 476L252 259L262 138L273 19C274 7 282 0 294 0H423C436 0 443 9 441 22L324 742C322 755 315 760 303 760H148C136 760 129 755 127 742L8 22C6 9 13 0 26 0H146C158 0 166 7 167 19L178 138L187 259L207 476ZM153 133H290C303 133 310 140 310 153V239C310 252 303 259 290 259H153C140 259 133 252 133 239V153C133 140 140 133 153 133ZM220 0ZM445 0ZM223 760ZM311 760ZM282 812H349C360 812 367 817 372 827L421 926C428 940 421 950 406 950H325C314 950 306 945 302 934L266 835C261 821 268 812 282 812ZM311 760Z" glyph-name="AEacute" horiz-adv-x="576" unicode="&#508;" /><glyph d="M265 628H534C547 628 554 635 554 648V740C554 753 547 760 534 760H298C287 760 278 755 275 743L248 650C244 637 251 628 265 628ZM362 317H524C537 317 544 324 544 337V429C544 442 537 449 524 449H362C349 449 342 442 342 429V337C342 324 349 317 362 317ZM306 0H534C547 0 554 7 554 20V112C554 125 547 132 534 132H358C347 132 340 128 335 117L291 24C285 10 291 0 306 0ZM216 569H223L232 476L252 259L262 138L273 19C274 7 282 0 294 0H423C436 0 443 9 441 22L324 742C322 755 315 760 303 760H148C136 760 129 755 127 742L8 22C6 9 13 0 26 0H146C158 0 166 7 167 19L178 138L187 259L207 476ZM153 133H290C303 133 310 140 310 153V239C310 252 303 259 290 259H153C140 259 133 252 133 239V153C133 140 140 133 153 133ZM220 0ZM445 0ZM223 760ZM311 760ZM237 839H384C397 839 404 846 404 859V910C404 923 397 930 384 930H237C224 930 217 923 217 910V859C217 846 224 839 237 839ZM311 760Z" glyph-name="AEmacron" horiz-adv-x="576" unicode="&#482;" /><glyph d="M216 569H223L232 476L252 259L262 138L273 19C274 7 282 0 294 0H423C436 0 443 9 441 22L324 742C322 755 315 760 303 760H148C136 760 129 755 127 742L8 22C6 9 13 0 26 0H146C158 0 166 7 167 19L178 138L187 259L207 476ZM153 133H290C303 133 310 140 310 153V239C310 252 303 259 290 259H153C140 259 133 252 133 239V153C133 140 140 133 153 133ZM220 0ZM445 0ZM223 760ZM194 812H261C272 812 279 817 284 827L333 926C340 940 333 950 318 950H237C226 950 218 945 214 934L178 835C173 821 180 812 194 812ZM223 760Z" glyph-name="Aacute" horiz-adv-x="449" unicode="&#193;" /><glyph d="M216 569H223L232 476L252 259L262 138L273 19C274 7 282 0 294 0H423C436 0 443 9 441 22L324 742C322 755 315 760 303 760H148C136 760 129 755 127 742L8 22C6 9 13 0 26 0H146C158 0 166 7 167 19L178 138L187 259L207 476ZM153 133H290C303 133 310 140 310 153V239C310 252 303 259 290 259H153C140 259 133 252 133 239V153C133 140 140 133 153 133ZM220 0ZM445 0ZM223 760ZM224 814C290 814 329 842 336 922C337 940 330 950 317 950H271C259 950 251 943 250 929C248 896 240 884 224 884C209 884 201 896 200 929C199 943 191 950 179 950H131C118 950 111 943 112 929C117 843 156 814 224 814ZM223 760Z" glyph-name="Abreve" horiz-adv-x="449" unicode="&#258;" /><glyph d="M216 569H223L232 476L252 259L262 138L273 19C274 7 282 0 294 0H423C436 0 443 9 441 22L324 742C322 755 315 760 303 760H148C136 760 129 755 127 742L8 22C6 9 13 0 26 0H146C158 0 166 7 167 19L178 138L187 259L207 476ZM153 133H290C303 133 310 140 310 153V239C310 252 303 259 290 259H153C140 259 133 252 133 239V153C133 140 140 133 153 133ZM220 0ZM445 0ZM223 760ZM320 950H265C254 950 247 946 243 934L225 880H219L201 934C197 946 190 950 179 950H124C109 950 103 941 109 927L151 827C155 816 163 812 174 812H269C280 812 289 816 293 827L335 927C341 941 335 950 320 950ZM222 1002ZM223 760Z" glyph-name="Acaron" horiz-adv-x="449" unicode="&#461;" /><glyph d="M216 569H223L232 476L252 259L262 138L273 19C274 7 282 0 294 0H423C436 0 443 9 441 22L324 742C322 755 315 760 303 760H148C136 760 129 755 127 742L8 22C6 9 13 0 26 0H146C158 0 166 7 167 19L178 138L187 259L207 476ZM153 133H290C303 133 310 140 310 153V239C310 252 303 259 290 259H153C140 259 133 252 133 239V153C133 140 140 133 153 133ZM220 0ZM445 0ZM223 760ZM125 812H180C191 812 198 816 202 828L220 882H226L244 828C248 816 255 812 266 812H321C336 812 342 821 336 835L294 935C290 946 282 950 271 950H176C165 950 156 946 152 935L110 835C104 821 110 812 125 812ZM223 760Z" glyph-name="Acircumflex" horiz-adv-x="449" unicode="&#194;" /><glyph d="M216 569H223L232 476L252 259L262 138L273 19C274 7 282 0 294 0H423C436 0 443 9 441 22L324 742C322 755 315 760 303 760H148C136 760 129 755 127 742L8 22C6 9 13 0 26 0H146C158 0 166 7 167 19L178 138L187 259L207 476ZM153 133H290C303 133 310 140 310 153V239C310 252 303 259 290 259H153C140 259 133 252 133 239V153C133 140 140 133 153 133ZM220 0ZM445 0ZM223 760ZM152 826C188 826 214 853 214 890C214 927 188 953 152 953C115 953 88 927 88 890C88 853 115 826 152 826ZM294 826C331 826 357 853 357 890C357 927 331 953 294 953C257 953 231 927 231 890C231 853 257 826 294 826ZM223 760Z" glyph-name="Adieresis" horiz-adv-x="449" unicode="&#196;" /><glyph d="M216 569H223L232 476L252 259L262 138L273 19C274 7 282 0 294 0H423C436 0 443 9 441 22L324 742C322 755 315 760 303 760H148C136 760 129 755 127 742L8 22C6 9 13 0 26 0H146C158 0 166 7 167 19L178 138L187 259L207 476ZM153 133H290C303 133 310 140 310 153V239C310 252 303 259 290 259H153C140 259 133 252 133 239V153C133 140 140 133 153 133ZM220 0ZM445 0ZM223 760ZM252 812H185C174 812 167 817 162 827L113 926C106 940 113 950 128 950H209C220 950 228 945 232 934L268 835C273 821 266 812 252 812ZM223 760ZM223 760Z" glyph-name="Agrave" horiz-adv-x="449" unicode="&#192;" /><glyph d="M216 569H223L232 476L252 259L262 138L273 19C274 7 282 0 294 0H423C436 0 443 9 441 22L324 742C322 755 315 760 303 760H148C136 760 129 755 127 742L8 22C6 9 13 0 26 0H146C158 0 166 7 167 19L178 138L187 259L207 476ZM153 133H290C303 133 310 140 310 153V239C310 252 303 259 290 259H153C140 259 133 252 133 239V153C133 140 140 133 153 133ZM220 0ZM445 0ZM223 760ZM149 839H296C309 839 316 846 316 859V910C316 923 309 930 296 930H149C136 930 129 923 129 910V859C129 846 136 839 149 839ZM223 760Z" glyph-name="Amacron" horiz-adv-x="449" unicode="&#256;" /><glyph d="M459 -65H442C427 -65 417 -59 417 -46C417 -35 424 -25 435 -12C442 -3 445 4 443 15L324 742C322 755 315 760 303 760H148C136 760 129 755 127 742L8 22C6 9 13 0 26 0H146C158 0 166 7 167 19L178 133H262L273 19C274 7 282 0 294 0H379C353 -24 329 -54 329 -84C329 -128 366 -145 407 -145H455C468 -145 475 -138 475 -125V-85C475 -72 469 -65 459 -65ZM216 569H223L232 476L252 259H187L207 476Z" glyph-name="Aogonek" horiz-adv-x="449" unicode="&#260;" /><glyph d="M216 569H223L232 476L252 259L262 138L273 19C274 7 282 0 294 0H423C436 0 443 9 441 22L324 742C322 755 315 760 303 760H148C136 760 129 755 127 742L8 22C6 9 13 0 26 0H146C158 0 166 7 167 19L178 138L187 259L207 476ZM153 133H290C303 133 310 140 310 153V239C310 252 303 259 290 259H153C140 259 133 252 133 239V153C133 140 140 133 153 133ZM220 0ZM445 0ZM223 760ZM222 812C274 812 312 842 312 892C312 942 274 973 222 973C171 973 132 942 132 892C132 842 171 812 222 812ZM222 864C205 864 194 875 194 892C194 909 205 920 222 920C239 920 251 909 251 892C251 875 239 864 222 864ZM223 760Z" glyph-name="Aring" horiz-adv-x="449" unicode="&#197;" /><glyph d="M216 569H223L232 476L252 259L262 138L273 19C274 7 282 0 294 0H423C436 0 443 9 441 22L324 742C322 755 315 760 303 760H148C136 760 129 755 127 742L8 22C6 9 13 0 26 0H146C158 0 166 7 167 19L178 138L187 259L207 476ZM153 133H290C303 133 310 140 310 153V239C310 252 303 259 290 259H153C140 259 133 252 133 239V153C133 140 140 133 153 133ZM220 0ZM445 0ZM223 760ZM273 810C320 810 336 844 339 914C340 937 333 950 320 950H293C281 950 274 943 272 930C270 913 266 907 256 907C246 907 239 914 232 922C219.3158 934.6842 206 952 174 952C124 952 108 914 106 833C106 819 113 812 126 812H153C165 812 172 819 174 832C177 849 181 855 191 855C201 855 208 849 214 841C225.6552 828.2852 238 810 273 810ZM223 760Z" glyph-name="Atilde" horiz-adv-x="449" unicode="&#195;" /><glyph d="M50 0H226C349 0 428 61 428 204V215C428 314 381 368 321 383V394C368 409 421 455 421 556V566C421 702 345 760 215 760H50C37 760 30 753 30 740V20C30 7 37 0 50 0ZM190 119V327H207C248 327 266 309 266 251V197C266 139 244 119 208 119ZM190 439V642H206C243 642 261 626 261 569V514C261 457 240 439 207 439Z" glyph-name="B" horiz-adv-x="442" unicode="B" /><glyph d="M239 -10C379 -10 441 65 441 269V303C441 316 434 323 421 323H300C287 323 280 316 280 303V240C280 141 272 124 238 124C204 124 196 141 196 240V519C196 622 203 637 238 637C272 637 280 622 280 519V470C280 457 287 450 300 450H421C434 450 441 457 441 470V502C441 701 374 770 239 770C94 770 22 695 22 429V331C22 68 91 -10 239 -10ZM239 0ZM239 760Z" glyph-name="C" horiz-adv-x="463" unicode="C" /><glyph d="M239 -10C379 -10 441 65 441 269V303C441 316 434 323 421 323H300C287 323 280 316 280 303V240C280 141 272 124 238 124C204 124 196 141 196 240V519C196 622 203 637 238 637C272 637 280 622 280 519V470C280 457 287 450 300 450H421C434 450 441 457 441 470V502C441 701 374 770 239 770C94 770 22 695 22 429V331C22 68 91 -10 239 -10ZM239 0ZM239 760ZM210 812H277C288 812 295 817 300 827L349 926C356 940 349 950 334 950H253C242 950 234 945 230 934L194 835C189 821 196 812 210 812ZM239 760Z" glyph-name="Cacute" horiz-adv-x="463" unicode="&#262;" /><glyph d="M239 -10C379 -10 441 65 441 269V303C441 316 434 323 421 323H300C287 323 280 316 280 303V240C280 141 272 124 238 124C204 124 196 141 196 240V519C196 622 203 637 238 637C272 637 280 622 280 519V470C280 457 287 450 300 450H421C434 450 441 457 441 470V502C441 701 374 770 239 770C94 770 22 695 22 429V331C22 68 91 -10 239 -10ZM239 0ZM239 760ZM336 950H281C270 950 263 946 259 934L241 880H235L217 934C213 946 206 950 195 950H140C125 950 119 941 125 927L167 827C171 816 179 812 190 812H285C296 812 305 816 309 827L351 927C357 941 351 950 336 950ZM238 1002ZM239 760Z" glyph-name="Ccaron" horiz-adv-x="463" unicode="&#268;" /><glyph d="M194 -145H261C317 -145 341 -116 341 -83C341 -41 313 -25 264 -25H260L264 -9C386 0 441 77 441 269V303C441 316 434 323 421 323H300C287 323 280 316 280 303V240C280 141 272 124 238 124C204 124 196 141 196 240V519C196 622 203 637 238 637C272 637 280 622 280 519V470C280 457 287 450 300 450H421C434 450 441 457 441 470V502C441 701 374 770 239 770C94 770 22 695 22 429V331C22 90 80 4 204 -8L191 -54C187 -67 194 -76 208 -76H245C260 -76 267 -79 267 -88C267 -97 260 -99 245 -99H194C181 -99 174 -106 174 -119V-125C174 -138 181 -145 194 -145Z" glyph-name="Ccedilla" horiz-adv-x="463" unicode="&#199;" /><glyph d="M239 -10C379 -10 441 65 441 269V303C441 316 434 323 421 323H300C287 323 280 316 280 303V240C280 141 272 124 238 124C204 124 196 141 196 240V519C196 622 203 637 238 637C272 637 280 622 280 519V470C280 457 287 450 300 450H421C434 450 441 457 441 470V502C441 701 374 770 239 770C94 770 22 695 22 429V331C22 68 91 -10 239 -10ZM239 0ZM239 760ZM141 812H196C207 812 214 816 218 828L236 882H242L260 828C264 816 271 812 282 812H337C352 812 358 821 352 835L310 935C306 946 298 950 287 950H192C181 950 172 946 168 935L126 835C120 821 126 812 141 812ZM239 760Z" glyph-name="Ccircumflex" horiz-adv-x="463" unicode="&#264;" /><glyph d="M239 -10C379 -10 441 65 441 269V303C441 316 434 323 421 323H300C287 323 280 316 280 303V240C280 141 272 124 238 124C204 124 196 141 196 240V519C196 622 203 637 238 637C272 637 280 622 280 519V470C280 457 287 450 300 450H421C434 450 441 457 441 470V502C441 701 374 770 239 770C94 770 22 695 22 429V331C22 68 91 -10 239 -10ZM239 0ZM239 760ZM239 833C273 833 298 855 298 892C298 930 273 950 239 950C204 950 178 930 178 892C178 855 203 833 239 833ZM239 760Z" glyph-name="Cdotaccent" horiz-adv-x="463" unicode="&#266;" /><glyph d="M30 740V20C30 7 37 0 50 0H206C363 0 435 71 435 335V425C435 695 359 760 206 760H50C37 760 30 753 30 740ZM191 632H216C256 632 270 615 270 504V259C270 150 256 131 216 131H191ZM197 760Z" glyph-name="D" horiz-adv-x="457" unicode="D" /><glyph d="M30 740V20C30 7 37 0 50 0H206C363 0 435 71 435 335V425C435 695 359 760 206 760H50C37 760 30 753 30 740ZM191 632H216C256 632 270 615 270 504V259C270 150 256 131 216 131H191ZM197 760ZM294 950H239C228 950 221 946 217 934L199 880H193L175 934C171 946 164 950 153 950H98C83 950 77 941 83 927L125 827C129 816 137 812 148 812H243C254 812 263 816 267 827L309 927C315 941 309 950 294 950ZM196 1002ZM197 760Z" glyph-name="Dcaron" horiz-adv-x="457" unicode="&#270;" /><glyph d="M26 324H223C236 324 243 331 243 344V428C243 441 236 448 223 448H26C13 448 6 441 6 428V344C6 331 13 324 26 324ZM45 740V20C45 7 52 0 65 0H221C378 0 450 71 450 335V425C450 695 374 760 221 760H65C52 760 45 753 45 740ZM206 632H231C271 632 285 615 285 504V259C285 150 271 131 231 131H206ZM212 760Z" glyph-name="Dcroat" horiz-adv-x="472" unicode="&#272;" /><glyph d="M50 0H334C347 0 354 7 354 20V112C354 125 347 132 334 132H192V317H324C337 317 344 324 344 337V429C344 442 337 449 324 449H192V628H334C347 628 354 635 354 648V740C354 753 347 760 334 760H50C37 760 30 753 30 740V20C30 7 37 0 50 0ZM194 0ZM354 0ZM196 760Z" glyph-name="E" horiz-adv-x="376" unicode="E" /><glyph d="M50 0H334C347 0 354 7 354 20V112C354 125 347 132 334 132H192V317H324C337 317 344 324 344 337V429C344 442 337 449 324 449H192V628H334C347 628 354 635 354 648V740C354 753 347 760 334 760H50C37 760 30 753 30 740V20C30 7 37 0 50 0ZM194 0ZM354 0ZM196 760ZM167 812H234C245 812 252 817 257 827L306 926C313 940 306 950 291 950H210C199 950 191 945 187 934L151 835C146 821 153 812 167 812ZM196 760Z" glyph-name="Eacute" horiz-adv-x="376" unicode="&#201;" /><glyph d="M50 0H334C347 0 354 7 354 20V112C354 125 347 132 334 132H192V317H324C337 317 344 324 344 337V429C344 442 337 449 324 449H192V628H334C347 628 354 635 354 648V740C354 753 347 760 334 760H50C37 760 30 753 30 740V20C30 7 37 0 50 0ZM194 0ZM354 0ZM196 760ZM197 814C263 814 302 842 309 922C310 940 303 950 290 950H244C232 950 224 943 223 929C221 896 213 884 197 884C182 884 174 896 173 929C172 943 164 950 152 950H104C91 950 84 943 85 929C90 843 129 814 197 814ZM196 760Z" glyph-name="Ebreve" horiz-adv-x="376" unicode="&#276;" /><glyph d="M50 0H334C347 0 354 7 354 20V112C354 125 347 132 334 132H192V317H324C337 317 344 324 344 337V429C344 442 337 449 324 449H192V628H334C347 628 354 635 354 648V740C354 753 347 760 334 760H50C37 760 30 753 30 740V20C30 7 37 0 50 0ZM194 0ZM354 0ZM196 760ZM293 950H238C227 950 220 946 216 934L198 880H192L174 934C170 946 163 950 152 950H97C82 950 76 941 82 927L124 827C128 816 136 812 147 812H242C253 812 262 816 266 827L308 927C314 941 308 950 293 950ZM195 1002ZM196 760Z" glyph-name="Ecaron" horiz-adv-x="376" unicode="&#282;" /><glyph d="M50 0H334C347 0 354 7 354 20V112C354 125 347 132 334 132H192V317H324C337 317 344 324 344 337V429C344 442 337 449 324 449H192V628H334C347 628 354 635 354 648V740C354 753 347 760 334 760H50C37 760 30 753 30 740V20C30 7 37 0 50 0ZM194 0ZM354 0ZM196 760ZM98 812H153C164 812 171 816 175 828L193 882H199L217 828C221 816 228 812 239 812H294C309 812 315 821 309 835L267 935C263 946 255 950 244 950H149C138 950 129 946 125 935L83 835C77 821 83 812 98 812ZM196 760Z" glyph-name="Ecircumflex" horiz-adv-x="376" unicode="&#202;" /><glyph d="M50 0H334C347 0 354 7 354 20V112C354 125 347 132 334 132H192V317H324C337 317 344 324 344 337V429C344 442 337 449 324 449H192V628H334C347 628 354 635 354 648V740C354 753 347 760 334 760H50C37 760 30 753 30 740V20C30 7 37 0 50 0ZM194 0ZM354 0ZM196 760ZM125 826C161 826 187 853 187 890C187 927 161 953 125 953C88 953 61 927 61 890C61 853 88 826 125 826ZM267 826C304 826 330 853 330 890C330 927 304 953 267 953C230 953 204 927 204 890C204 853 230 826 267 826ZM196 760Z" glyph-name="Edieresis" horiz-adv-x="376" unicode="&#203;" /><glyph d="M50 0H334C347 0 354 7 354 20V112C354 125 347 132 334 132H192V317H324C337 317 344 324 344 337V429C344 442 337 449 324 449H192V628H334C347 628 354 635 354 648V740C354 753 347 760 334 760H50C37 760 30 753 30 740V20C30 7 37 0 50 0ZM194 0ZM354 0ZM196 760ZM196 833C230 833 255 855 255 892C255 930 230 950 196 950C161 950 135 930 135 892C135 855 160 833 196 833ZM196 760Z" glyph-name="Edotaccent" horiz-adv-x="376" unicode="&#278;" /><glyph d="M50 0H334C347 0 354 7 354 20V112C354 125 347 132 334 132H192V317H324C337 317 344 324 344 337V429C344 442 337 449 324 449H192V628H334C347 628 354 635 354 648V740C354 753 347 760 334 760H50C37 760 30 753 30 740V20C30 7 37 0 50 0ZM194 0ZM354 0ZM196 760ZM225 812H158C147 812 140 817 135 827L86 926C79 940 86 950 101 950H182C193 950 201 945 205 934L241 835C246 821 239 812 225 812ZM196 760ZM196 760Z" glyph-name="Egrave" horiz-adv-x="376" unicode="&#200;" /><glyph d="M50 0H334C347 0 354 7 354 20V112C354 125 347 132 334 132H192V317H324C337 317 344 324 344 337V429C344 442 337 449 324 449H192V628H334C347 628 354 635 354 648V740C354 753 347 760 334 760H50C37 760 30 753 30 740V20C30 7 37 0 50 0ZM194 0ZM354 0ZM196 760ZM122 839H269C282 839 289 846 289 859V910C289 923 282 930 269 930H122C109 930 102 923 102 910V859C102 846 109 839 122 839ZM196 760Z" glyph-name="Emacron" horiz-adv-x="376" unicode="&#274;" /><glyph d="M264 -2C264 -20 257 -28 237 -28C227 -28 222 -35 222 -48V-125C222 -138 229 -145 242 -145H292C378 -145 420 -95 420 -12V250C420 263 413 270 400 270H284C271 270 264 263 264 250ZM30 740V20C30 7 37 0 50 0H157C170 0 177 7 177 20L171 293L169 370H176L198 293L287 16C290 5 298 0 309 0H400C413 0 420 7 420 20V740C420 753 413 760 400 760H293C280 760 273 753 273 740L279 462L280 385H273L250 462L162 743C159 754 151 760 140 760H50C37 760 30 753 30 740ZM225 0ZM225 760Z" glyph-name="Eng" horiz-adv-x="495" unicode="&#330;" /><glyph d="M50 0H288C262 -24 238 -54 238 -84C238 -128 275 -145 316 -145H364C377 -145 384 -138 384 -125V-85C384 -72 377 -65 364 -65H351C336 -65 326 -59 326 -46C326 -35 333 -25 345 -11C351 -3 354 4 354 14V112C354 125 347 132 334 132H192V317H324C337 317 344 324 344 337V429C344 442 337 449 324 449H192V628H334C347 628 354 635 354 648V740C354 753 347 760 334 760H50C37 760 30 753 30 740V20C30 7 37 0 50 0Z" glyph-name="Eogonek" horiz-adv-x="376" unicode="&#280;" /><glyph d="M26 324H223C236 324 243 331 243 344V428C243 441 236 448 223 448H26C13 448 6 441 6 428V344C6 331 13 324 26 324ZM45 740V20C45 7 52 0 65 0H221C378 0 450 71 450 335V425C450 695 374 760 221 760H65C52 760 45 753 45 740ZM206 632H231C271 632 285 615 285 504V259C285 150 271 131 231 131H206ZM212 760Z" glyph-name="Eth" horiz-adv-x="472" unicode="&#208;" /><glyph d="M50 0H334C347 0 354 7 354 20V112C354 125 347 132 334 132H192V317H324C337 317 344 324 344 337V429C344 442 337 449 324 449H192V628H334C347 628 354 635 354 648V740C354 753 347 760 334 760H50C37 760 30 753 30 740V20C30 7 37 0 50 0ZM194 0ZM354 0ZM196 760ZM246 810C293 810 309 844 312 914C313 937 306 950 293 950H266C254 950 247 943 245 930C243 913 239 907 229 907C219 907 212 914 205 922C192.3158 934.6842 179 952 147 952C97 952 81 914 79 833C79 819 86 812 99 812H126C138 812 145 819 147 832C150 849 154 855 164 855C174 855 181 849 187 841C198.6552 828.2852 211 810 246 810ZM196 760Z" glyph-name="Etilde" horiz-adv-x="376" unicode="&#7868;" /><glyph d="M286 205V152C286 107 278 99 259 99C237 99 230 112 230 185V572C230 649 237 661 259 661C278 661 286 651 286 596V557C286 544 293 537 306 537H412C425 537 432 544 432 557V558C432 699 378 770 258 770C128 770 74 694 74 509V249C74 66 128 -10 258 -10C378 -10 432 60 432 204V205C432 218 425 225 412 225H306C293 225 286 218 286 205ZM39 401H333C346 401 353 408 353 421V476C353 489 346 496 333 496H39C26 496 19 489 19 476V421C19 408 26 401 39 401ZM39 266H333C346 266 353 273 353 286V341C353 354 346 361 333 361H39C26 361 19 354 19 341V286C19 273 26 266 39 266Z" glyph-name="Euro" horiz-adv-x="456" unicode="&#8364;" /><glyph d="M50 0H172C185 0 192 7 192 20V315H319C332 315 339 322 339 335V427C339 440 332 447 319 447H192V628H327C340 628 347 635 347 648V740C347 753 340 760 327 760H50C37 760 30 753 30 740V20C30 7 37 0 50 0Z" glyph-name="F" horiz-adv-x="366" unicode="F" /><glyph d="M174 -10C236 -10 269 21 280 92H293L305 18C307 5 314 0 326 0H432C445 0 452 9 450 22L437 100V368C437 381 430 388 417 388H256C243 388 236 381 236 368V286C236 273 243 266 256 266H278V240C278 141 270 124 237 124C204 124 196 141 196 240V519C196 622 203 637 237 637C270 637 278 622 278 519V466C278 453 285 446 298 446H417C430 446 437 453 437 466V502C437 701 370 770 237 770C94 770 22 695 22 429V331C22 68 72 -10 174 -10ZM242 0ZM237 760Z" glyph-name="G" horiz-adv-x="465" unicode="G" /><glyph d="M174 -10C236 -10 269 21 280 92H293L305 18C307 5 314 0 326 0H432C445 0 452 9 450 22L437 100V368C437 381 430 388 417 388H256C243 388 236 381 236 368V286C236 273 243 266 256 266H278V240C278 141 270 124 237 124C204 124 196 141 196 240V519C196 622 203 637 237 637C270 637 278 622 278 519V466C278 453 285 446 298 446H417C430 446 437 453 437 466V502C437 701 370 770 237 770C94 770 22 695 22 429V331C22 68 72 -10 174 -10ZM242 0ZM237 760ZM238 814C304 814 343 842 350 922C351 940 344 950 331 950H285C273 950 265 943 264 929C262 896 254 884 238 884C223 884 215 896 214 929C213 943 205 950 193 950H145C132 950 125 943 126 929C131 843 170 814 238 814ZM237 760Z" glyph-name="Gbreve" horiz-adv-x="465" unicode="&#286;" /><glyph d="M174 -10C236 -10 269 21 280 92H293L305 18C307 5 314 0 326 0H432C445 0 452 9 450 22L437 100V368C437 381 430 388 417 388H256C243 388 236 381 236 368V286C236 273 243 266 256 266H278V240C278 141 270 124 237 124C204 124 196 141 196 240V519C196 622 203 637 237 637C270 637 278 622 278 519V466C278 453 285 446 298 446H417C430 446 437 453 437 466V502C437 701 370 770 237 770C94 770 22 695 22 429V331C22 68 72 -10 174 -10ZM242 0ZM237 760ZM334 950H279C268 950 261 946 257 934L239 880H233L215 934C211 946 204 950 193 950H138C123 950 117 941 123 927L165 827C169 816 177 812 188 812H283C294 812 303 816 307 827L349 927C355 941 349 950 334 950ZM236 1002ZM237 760Z" glyph-name="Gcaron" horiz-adv-x="465" unicode="&#486;" /><glyph d="M174 -10C236 -10 269 21 280 92H293L305 18C307 5 314 0 326 0H432C445 0 452 9 450 22L437 100V368C437 381 430 388 417 388H256C243 388 236 381 236 368V286C236 273 243 266 256 266H278V240C278 141 270 124 237 124C204 124 196 141 196 240V519C196 622 203 637 237 637C270 637 278 622 278 519V466C278 453 285 446 298 446H417C430 446 437 453 437 466V502C437 701 370 770 237 770C94 770 22 695 22 429V331C22 68 72 -10 174 -10ZM242 0ZM237 760ZM139 812H194C205 812 212 816 216 828L234 882H240L258 828C262 816 269 812 280 812H335C350 812 356 821 350 835L308 935C304 946 296 950 285 950H190C179 950 170 946 166 935L124 835C118 821 124 812 139 812ZM237 760Z" glyph-name="Gcircumflex" horiz-adv-x="465" unicode="&#284;" /><glyph d="M174 -10C236 -10 269 21 280 92H293L305 18C307 5 314 0 326 0H432C445 0 452 9 450 22L437 100V368C437 381 430 388 417 388H256C243 388 236 381 236 368V286C236 273 243 266 256 266H278V240C278 141 270 124 237 124C204 124 196 141 196 240V519C196 622 203 637 237 637C270 637 278 622 278 519V466C278 453 285 446 298 446H417C430 446 437 453 437 466V502C437 701 370 770 237 770C94 770 22 695 22 429V331C22 68 72 -10 174 -10ZM242 0ZM237 760ZM237 833C271 833 296 855 296 892C296 930 271 950 237 950C202 950 176 930 176 892C176 855 201 833 237 833ZM237 760Z" glyph-name="Gdotaccent" horiz-adv-x="465" unicode="&#288;" /><glyph d="M50 0H171C184 0 191 7 191 20V317H272V20C272 7 279 0 292 0H414C427 0 434 7 434 20V740C434 753 427 760 414 760H292C279 760 272 753 272 740V449H191V740C191 753 184 760 171 760H50C37 760 30 753 30 740V20C30 7 37 0 50 0ZM232 0ZM232 760Z" glyph-name="H" horiz-adv-x="464" unicode="H" /><glyph d="M26 540H468C481 540 488 547 488 560V623C488 636 481 643 468 643H26C13 643 6 636 6 623V560C6 547 13 540 26 540ZM65 0H186C199 0 206 7 206 20V317H287V20C287 7 294 0 307 0H429C442 0 449 7 449 20V740C449 753 442 760 429 760H307C294 760 287 753 287 740V449H206V740C206 753 199 760 186 760H65C52 760 45 753 45 740V20C45 7 52 0 65 0ZM247 0ZM247 760Z" glyph-name="Hbar" horiz-adv-x="494" unicode="&#294;" /><glyph d="M50 0H171C184 0 191 7 191 20V317H272V20C272 7 279 0 292 0H414C427 0 434 7 434 20V740C434 753 427 760 414 760H292C279 760 272 753 272 740V449H191V740C191 753 184 760 171 760H50C37 760 30 753 30 740V20C30 7 37 0 50 0ZM232 0ZM232 760ZM134 812H189C200 812 207 816 211 828L229 882H235L253 828C257 816 264 812 275 812H330C345 812 351 821 345 835L303 935C299 946 291 950 280 950H185C174 950 165 946 161 935L119 835C113 821 119 812 134 812ZM232 760Z" glyph-name="Hcircumflex" horiz-adv-x="464" unicode="&#292;" /><glyph d="M30 740V20C30 7 37 0 50 0H173C186 0 193 7 193 20V740C193 753 186 760 173 760H50C37 760 30 753 30 740ZM111 0ZM193 0ZM112 760Z" glyph-name="I" horiz-adv-x="224" unicode="I" /><glyph d="M30 740V20C30 7 37 0 50 0H173C186 0 193 7 193 20V740C193 753 186 760 173 760H50C37 760 30 753 30 740ZM111 0ZM193 0ZM112 760ZM83 812H150C161 812 168 817 173 827L222 926C229 940 222 950 207 950H126C115 950 107 945 103 934L67 835C62 821 69 812 83 812ZM112 760Z" glyph-name="Iacute" horiz-adv-x="224" unicode="&#205;" /><glyph d="M30 740V20C30 7 37 0 50 0H173C186 0 193 7 193 20V740C193 753 186 760 173 760H50C37 760 30 753 30 740ZM111 0ZM193 0ZM112 760ZM113 814C179 814 218 842 225 922C226 940 219 950 206 950H160C148 950 140 943 139 929C137 896 129 884 113 884C98 884 90 896 89 929C88 943 80 950 68 950H20C7 950 0 943 1 929C6 843 45 814 113 814ZM112 760Z" glyph-name="Ibreve" horiz-adv-x="224" unicode="&#300;" /><glyph d="M30 740V20C30 7 37 0 50 0H173C186 0 193 7 193 20V740C193 753 186 760 173 760H50C37 760 30 753 30 740ZM111 0ZM193 0ZM112 760ZM209 950H154C143 950 136 946 132 934L114 880H108L90 934C86 946 79 950 68 950H13C-2 950 -8 941 -2 927L40 827C44 816 52 812 63 812H158C169 812 178 816 182 827L224 927C230 941 224 950 209 950ZM111 1002ZM112 760Z" glyph-name="Icaron" horiz-adv-x="224" unicode="&#463;" /><glyph d="M30 740V20C30 7 37 0 50 0H173C186 0 193 7 193 20V740C193 753 186 760 173 760H50C37 760 30 753 30 740ZM111 0ZM193 0ZM112 760ZM14 812H69C80 812 87 816 91 828L109 882H115L133 828C137 816 144 812 155 812H210C225 812 231 821 225 835L183 935C179 946 171 950 160 950H65C54 950 45 946 41 935L-1 835C-7 821 -1 812 14 812ZM112 760Z" glyph-name="Icircumflex" horiz-adv-x="224" unicode="&#206;" /><glyph d="M30 740V20C30 7 37 0 50 0H173C186 0 193 7 193 20V740C193 753 186 760 173 760H50C37 760 30 753 30 740ZM111 0ZM193 0ZM112 760ZM41 826C77 826 103 853 103 890C103 927 77 953 41 953C4 953 -23 927 -23 890C-23 853 4 826 41 826ZM183 826C220 826 246 853 246 890C246 927 220 953 183 953C146 953 120 927 120 890C120 853 146 826 183 826ZM112 760Z" glyph-name="Idieresis" horiz-adv-x="224" unicode="&#207;" /><glyph d="M30 740V20C30 7 37 0 50 0H173C186 0 193 7 193 20V740C193 753 186 760 173 760H50C37 760 30 753 30 740ZM111 0ZM193 0ZM112 760ZM112 833C146 833 171 855 171 892C171 930 146 950 112 950C77 950 51 930 51 892C51 855 76 833 112 833ZM112 760Z" glyph-name="Idotaccent" horiz-adv-x="224" unicode="&#304;" /><glyph d="M30 740V20C30 7 37 0 50 0H173C186 0 193 7 193 20V740C193 753 186 760 173 760H50C37 760 30 753 30 740ZM111 0ZM193 0ZM112 760ZM141 812H74C63 812 56 817 51 827L2 926C-5 940 2 950 17 950H98C109 950 117 945 121 934L157 835C162 821 155 812 141 812ZM112 760ZM112 760Z" glyph-name="Igrave" horiz-adv-x="224" unicode="&#204;" /><glyph d="M30 740V20C30 7 37 0 50 0H173C186 0 193 7 193 20V740C193 753 186 760 173 760H50C37 760 30 753 30 740ZM111 0ZM193 0ZM112 760ZM38 839H185C198 839 205 846 205 859V910C205 923 198 930 185 930H38C25 930 18 923 18 910V859C18 846 25 839 38 839ZM112 760Z" glyph-name="Imacron" horiz-adv-x="224" unicode="&#298;" /><glyph d="M30 740V20C30 7 37 0 50 0H173C186 0 193 7 193 20V740C193 753 186 760 173 760H50C37 760 30 753 30 740ZM111 0ZM193 0ZM112 760ZM118 -9C95 -32 77 -58 77 -84C77 -128 114 -145 155 -145H203C216 -145 223 -138 223 -125V-85C223 -72 216 -65 203 -65H190C175 -65 165 -59 165 -46C165 -38 169 -30 175 -22C184 -9 179 1 163 1H142C132 1 125 -2 118 -9ZM193 0Z" glyph-name="Iogonek" horiz-adv-x="224" unicode="&#302;" /><glyph d="M30 740V20C30 7 37 0 50 0H173C186 0 193 7 193 20V740C193 753 186 760 173 760H50C37 760 30 753 30 740ZM111 0ZM193 0ZM112 760ZM162 810C209 810 225 844 228 914C229 937 222 950 209 950H182C170 950 163 943 161 930C159 913 155 907 145 907C135 907 128 914 121 922C108.3158 934.6842 95 952 63 952C13 952 -3 914 -5 833C-5 819 2 812 15 812H42C54 812 61 819 63 832C66 849 70 855 80 855C90 855 97 849 103 841C114.6552 828.2852 127 810 162 810ZM112 760Z" glyph-name="Itilde" horiz-adv-x="224" unicode="&#296;" /><glyph d="M14 239C14 60 62 -10 193 -10C330 -10 382 61 382 229V740C382 753 375 760 362 760H74C61 760 54 753 54 740V648C54 635 61 628 74 628H221V199C221 134 215 122 192 122C169 122 163 134 163 199V293C163 306 156 313 143 313H34C21 313 14 306 14 293ZM202 760Z" glyph-name="J" horiz-adv-x="408" unicode="J" /><glyph d="M14 239C14 60 62 -10 193 -10C330 -10 382 61 382 229V740C382 753 375 760 362 760H74C61 760 54 753 54 740V648C54 635 61 628 74 628H221V199C221 134 215 122 192 122C169 122 163 134 163 199V293C163 306 156 313 143 313H34C21 313 14 306 14 293ZM202 760ZM173 812H240C251 812 258 817 263 827L312 926C319 940 312 950 297 950H216C205 950 197 945 193 934L157 835C152 821 159 812 173 812ZM202 760Z" glyph-name="Jacute" horiz-adv-x="408" /><glyph d="M14 239C14 60 62 -10 193 -10C330 -10 382 61 382 229V740C382 753 375 760 362 760H74C61 760 54 753 54 740V648C54 635 61 628 74 628H221V199C221 134 215 122 192 122C169 122 163 134 163 199V293C163 306 156 313 143 313H34C21 313 14 306 14 293ZM202 760ZM104 812H159C170 812 177 816 181 828L199 882H205L223 828C227 816 234 812 245 812H300C315 812 321 821 315 835L273 935C269 946 261 950 250 950H155C144 950 135 946 131 935L89 835C83 821 89 812 104 812ZM202 760Z" glyph-name="Jcircumflex" horiz-adv-x="408" unicode="&#308;" /><glyph d="M50 0H170C183 0 190 7 190 20L188 320H202L281 17C284 6 291 0 303 0H430C444 0 451 10 447 23L338 386L445 737C449 750 442 760 428 760H307C296 760 287 755 284 743L202 452H188L190 740C190 753 183 760 170 760H50C37 760 30 753 30 740V20C30 7 37 0 50 0ZM234 0ZM231 760Z" glyph-name="K" horiz-adv-x="454" unicode="K" /><glyph d="M50 0H335C348 0 355 7 355 20V112C355 125 348 132 335 132H192V740C192 753 185 760 172 760H50C37 760 30 753 30 740V20C30 7 37 0 50 0ZM174 0ZM92 724Z" glyph-name="L" horiz-adv-x="367" unicode="L" /><glyph d="M50 0H335C348 0 355 7 355 20V112C355 125 348 132 335 132H192V740C192 753 185 760 172 760H50C37 760 30 753 30 740V20C30 7 37 0 50 0ZM174 0ZM92 724ZM63 776H130C141 776 148 781 153 791L202 890C209 904 202 914 187 914H106C95 914 87 909 83 898L47 799C42 785 49 776 63 776ZM92 724Z" glyph-name="Lacute" horiz-adv-x="367" unicode="&#313;" /><glyph d="M50 0H335C348 0 355 7 355 20V112C355 125 348 132 335 132H192V740C192 753 185 760 172 760H50C37 760 30 753 30 740V20C30 7 37 0 50 0ZM174 0ZM92 724ZM288.3934 315.1248C333.9416 315.1248 366.5988 347.782 366.5988 393.3302C366.5988 438.8784 333.9416 471.5356 288.3934 471.5356C242.8452 471.5356 210.188 438.8784 210.188 393.3302C210.188 347.782 242.8452 315.1248 288.3934 315.1248Z" glyph-name="Ldot" horiz-adv-x="380" unicode="&#319;" /><glyph d="M24 255 292 417C301 423 306 430 306 441V521C306 537 295 543 282 535L14 374C5 368 0 361 0 350V269C0 253 11 247 24 255ZM59 0H344C357 0 364 7 364 20V112C364 125 357 132 344 132H201V740C201 753 194 760 181 760H59C46 760 39 753 39 740V20C39 7 46 0 59 0ZM183 0ZM101 724Z" glyph-name="Lslash" horiz-adv-x="376" unicode="&#321;" /><glyph d="M30 740V20C30 7 37 0 50 0H157C170 0 177 7 177 20L173 301L172 397H179L203 299L247 130C250 119 258 113 270 113H279C291 113 299 119 302 130L346 299L369 395H376L375 301L371 20C371 7 378 0 391 0H499C512 0 519 7 519 20V740C519 753 512 760 499 760H397C386 760 377 755 374 743L308 507L279 391H272L243 507L174 743C171 755 162 760 151 760H50C37 760 30 753 30 740ZM276 0ZM276 760Z" glyph-name="M" horiz-adv-x="548" unicode="M" /><glyph d="M30 740V20C30 7 37 0 50 0H157C170 0 177 7 177 20L171 293L169 370H176L198 293L287 16C290 5 298 0 309 0H400C413 0 420 7 420 20V740C420 753 413 760 400 760H293C280 760 273 753 273 740L279 462L280 385H273L250 462L162 743C159 754 151 760 140 760H50C37 760 30 753 30 740ZM225 0ZM225 760Z" glyph-name="N" horiz-adv-x="449" unicode="N" /><glyph d="M30 740V20C30 7 37 0 50 0H157C170 0 177 7 177 20L171 293L169 370H176L198 293L287 16C290 5 298 0 309 0H400C413 0 420 7 420 20V740C420 753 413 760 400 760H293C280 760 273 753 273 740L279 462L280 385H273L250 462L162 743C159 754 151 760 140 760H50C37 760 30 753 30 740ZM225 0ZM225 760ZM196 812H263C274 812 281 817 286 827L335 926C342 940 335 950 320 950H239C228 950 220 945 216 934L180 835C175 821 182 812 196 812ZM225 760Z" glyph-name="Nacute" horiz-adv-x="449" unicode="&#323;" /><glyph d="M30 740V20C30 7 37 0 50 0H157C170 0 177 7 177 20L171 293L169 370H176L198 293L287 16C290 5 298 0 309 0H400C413 0 420 7 420 20V740C420 753 413 760 400 760H293C280 760 273 753 273 740L279 462L280 385H273L250 462L162 743C159 754 151 760 140 760H50C37 760 30 753 30 740ZM225 0ZM225 760ZM322 950H267C256 950 249 946 245 934L227 880H221L203 934C199 946 192 950 181 950H126C111 950 105 941 111 927L153 827C157 816 165 812 176 812H271C282 812 291 816 295 827L337 927C343 941 337 950 322 950ZM224 1002ZM225 760Z" glyph-name="Ncaron" horiz-adv-x="449" unicode="&#327;" /><glyph d="M30 740V20C30 7 37 0 50 0H157C170 0 177 7 177 20L171 293L169 370H176L198 293L287 16C290 5 298 0 309 0H400C413 0 420 7 420 20V740C420 753 413 760 400 760H293C280 760 273 753 273 740L279 462L280 385H273L250 462L162 743C159 754 151 760 140 760H50C37 760 30 753 30 740ZM225 0ZM225 760ZM275 810C322 810 338 844 341 914C342 937 335 950 322 950H295C283 950 276 943 274 930C272 913 268 907 258 907C248 907 241 914 234 922C221.3158 934.6842 208 952 176 952C126 952 110 914 108 833C108 819 115 812 128 812H155C167 812 174 819 176 832C179 849 183 855 193 855C203 855 210 849 216 841C227.6552 828.2852 240 810 275 810ZM225 760Z" glyph-name="Ntilde" horiz-adv-x="449" unicode="&#209;" /><glyph d="M242 -10C391 -10 462 68 462 331V429C462 696 388 770 242 770C96 770 22 695 22 429V331C22 69 92 -10 242 -10ZM242 124C205 124 196 141 196 240V519C196 622 204 637 242 637C279 637 288 622 288 519V240C288 141 279 124 242 124ZM242 0ZM312 0ZM242 760Z" glyph-name="O" horiz-adv-x="484" unicode="O" /><glyph d="M286 0H570C583 0 590 7 590 20V112C590 125 583 132 570 132H428V317H560C573 317 580 324 580 337V429C580 442 573 449 560 449H428V628H570C583 628 590 635 590 648V740C590 753 583 760 570 760H286C273 760 266 753 266 740V20C266 7 273 0 286 0ZM430 0ZM590 0ZM432 760ZM427 20V740C427 753 420 760 407 760H251C94 760 22 689 22 425V335C22 65 98 0 251 0H407C420 0 427 7 427 20ZM266 128H241C201 128 187 145 187 256V501C187 610 201 629 241 629H266ZM260 0Z" glyph-name="OE" horiz-adv-x="612" unicode="&#338;" /><glyph d="M242 -10C391 -10 462 68 462 331V429C462 696 388 770 242 770C96 770 22 695 22 429V331C22 69 92 -10 242 -10ZM242 124C205 124 196 141 196 240V519C196 622 204 637 242 637C279 637 288 622 288 519V240C288 141 279 124 242 124ZM242 0ZM312 0ZM242 760ZM213 812H280C291 812 298 817 303 827L352 926C359 940 352 950 337 950H256C245 950 237 945 233 934L197 835C192 821 199 812 213 812ZM242 760Z" glyph-name="Oacute" horiz-adv-x="484" unicode="&#211;" /><glyph d="M242 -10C391 -10 462 68 462 331V429C462 696 388 770 242 770C96 770 22 695 22 429V331C22 69 92 -10 242 -10ZM242 124C205 124 196 141 196 240V519C196 622 204 637 242 637C279 637 288 622 288 519V240C288 141 279 124 242 124ZM242 0ZM312 0ZM242 760ZM243 814C309 814 348 842 355 922C356 940 349 950 336 950H290C278 950 270 943 269 929C267 896 259 884 243 884C228 884 220 896 219 929C218 943 210 950 198 950H150C137 950 130 943 131 929C136 843 175 814 243 814ZM242 760Z" glyph-name="Obreve" horiz-adv-x="484" unicode="&#334;" /><glyph d="M242 -10C391 -10 462 68 462 331V429C462 696 388 770 242 770C96 770 22 695 22 429V331C22 69 92 -10 242 -10ZM242 124C205 124 196 141 196 240V519C196 622 204 637 242 637C279 637 288 622 288 519V240C288 141 279 124 242 124ZM242 0ZM312 0ZM242 760ZM339 950H284C273 950 266 946 262 934L244 880H238L220 934C216 946 209 950 198 950H143C128 950 122 941 128 927L170 827C174 816 182 812 193 812H288C299 812 308 816 312 827L354 927C360 941 354 950 339 950ZM241 1002ZM242 760Z" glyph-name="Ocaron" horiz-adv-x="484" unicode="&#465;" /><glyph d="M242 -10C391 -10 462 68 462 331V429C462 696 388 770 242 770C96 770 22 695 22 429V331C22 69 92 -10 242 -10ZM242 124C205 124 196 141 196 240V519C196 622 204 637 242 637C279 637 288 622 288 519V240C288 141 279 124 242 124ZM242 0ZM312 0ZM242 760ZM144 812H199C210 812 217 816 221 828L239 882H245L263 828C267 816 274 812 285 812H340C355 812 361 821 355 835L313 935C309 946 301 950 290 950H195C184 950 175 946 171 935L129 835C123 821 129 812 144 812ZM242 760Z" glyph-name="Ocircumflex" horiz-adv-x="484" unicode="&#212;" /><glyph d="M242 -10C391 -10 462 68 462 331V429C462 696 388 770 242 770C96 770 22 695 22 429V331C22 69 92 -10 242 -10ZM242 124C205 124 196 141 196 240V519C196 622 204 637 242 637C279 637 288 622 288 519V240C288 141 279 124 242 124ZM242 0ZM312 0ZM242 760ZM171 826C207 826 233 853 233 890C233 927 207 953 171 953C134 953 107 927 107 890C107 853 134 826 171 826ZM313 826C350 826 376 853 376 890C376 927 350 953 313 953C276 953 250 927 250 890C250 853 276 826 313 826ZM242 760Z" glyph-name="Odieresis" horiz-adv-x="484" unicode="&#214;" /><glyph d="M242 -10C391 -10 462 68 462 331V429C462 696 388 770 242 770C96 770 22 695 22 429V331C22 69 92 -10 242 -10ZM242 124C205 124 196 141 196 240V519C196 622 204 637 242 637C279 637 288 622 288 519V240C288 141 279 124 242 124ZM242 0ZM312 0ZM242 760ZM271 812H204C193 812 186 817 181 827L132 926C125 940 132 950 147 950H228C239 950 247 945 251 934L287 835C292 821 285 812 271 812ZM242 760ZM242 760Z" glyph-name="Ograve" horiz-adv-x="484" unicode="&#210;" /><glyph d="M242 -10C391 -10 462 68 462 331V429C462 696 388 770 242 770C96 770 22 695 22 429V331C22 69 92 -10 242 -10ZM242 124C205 124 196 141 196 240V519C196 622 204 637 242 637C279 637 288 622 288 519V240C288 141 279 124 242 124ZM242 0ZM312 0ZM242 760ZM164 812H206C217 812 226 816 230 827L272 927C278 941 272 950 257 950H201C190 950 182 945 179 934L147 835C143 821 150 812 164 812ZM284 812H326C337 812 346 816 350 827L392 927C398 941 392 950 377 950H320C309 950 301 944 298 933L267 835C263 821 270 812 284 812ZM242 760Z" glyph-name="Ohungarumlaut" horiz-adv-x="484" unicode="&#336;" /><glyph d="M242 -10C391 -10 462 68 462 331V429C462 696 388 770 242 770C96 770 22 695 22 429V331C22 69 92 -10 242 -10ZM242 124C205 124 196 141 196 240V519C196 622 204 637 242 637C279 637 288 622 288 519V240C288 141 279 124 242 124ZM242 0ZM312 0ZM242 760ZM168 839H315C328 839 335 846 335 859V910C335 923 328 930 315 930H168C155 930 148 923 148 910V859C148 846 155 839 168 839ZM242 760Z" glyph-name="Omacron" horiz-adv-x="484" unicode="&#332;" /><glyph d="M242 124C205 124 196 141 196 240V519C196 622 204 637 242 637C279 637 288 622 288 519V240C288 141 279 124 242 124ZM236 -10C214 -33 196 -58 196 -84C196 -128 233 -145 274 -145H322C335 -145 342 -138 342 -125V-85C342 -72 335 -65 322 -65H309C294 -65 284 -59 284 -46C284 -27 300 -8 325 1C416 33 462 114 462 331V429C462 696 388 770 242 770C96 770 22 695 22 429V331C22 73 90 -8 236 -10Z" glyph-name="Oogonek" horiz-adv-x="484" unicode="&#490;" /><glyph d="M38 -30H70C81 -30 88 -26 93 -15L462 766C468 780 462 790 447 790H415C404 790 397 786 392 775L23 -6C17 -20 23 -30 38 -30ZM242 -10C391 -10 462 68 462 331V429C462 696 388 770 242 770C96 770 22 695 22 429V331C22 69 92 -10 242 -10ZM242 124C205 124 196 141 196 240V519C196 622 204 637 242 637C279 637 288 622 288 519V240C288 141 279 124 242 124ZM242 0ZM312 0ZM242 760ZM242 760Z" glyph-name="Oslash" horiz-adv-x="484" unicode="&#216;" /><glyph d="M38 -30H70C81 -30 88 -26 93 -15L462 766C468 780 462 790 447 790H415C404 790 397 786 392 775L23 -6C17 -20 23 -30 38 -30ZM242 -10C391 -10 462 68 462 331V429C462 696 388 770 242 770C96 770 22 695 22 429V331C22 69 92 -10 242 -10ZM242 124C205 124 196 141 196 240V519C196 622 204 637 242 637C279 637 288 622 288 519V240C288 141 279 124 242 124ZM242 0ZM312 0ZM242 760ZM242 760ZM213 812H280C291 812 298 817 303 827L352 926C359 940 352 950 337 950H256C245 950 237 945 233 934L197 835C192 821 199 812 213 812ZM242 760Z" glyph-name="Oslashacute" horiz-adv-x="484" unicode="&#510;" /><glyph d="M242 -10C391 -10 462 68 462 331V429C462 696 388 770 242 770C96 770 22 695 22 429V331C22 69 92 -10 242 -10ZM242 124C205 124 196 141 196 240V519C196 622 204 637 242 637C279 637 288 622 288 519V240C288 141 279 124 242 124ZM242 0ZM312 0ZM242 760ZM292 810C339 810 355 844 358 914C359 937 352 950 339 950H312C300 950 293 943 291 930C289 913 285 907 275 907C265 907 258 914 251 922C238.3158 934.6842 225 952 193 952C143 952 127 914 125 833C125 819 132 812 145 812H172C184 812 191 819 193 832C196 849 200 855 210 855C220 855 227 849 233 841C244.6552 828.2852 257 810 292 810ZM242 760Z" glyph-name="Otilde" horiz-adv-x="484" unicode="&#213;" /><glyph d="M50 0H171C184 0 191 7 191 20V254H220C348 254 426 322 426 503V512C426 691 349 760 219 760H50C37 760 30 753 30 740V20C30 7 37 0 50 0ZM191 376V639H208C245 639 264 619 264 545V470C264 396 245 376 208 376Z" glyph-name="P" horiz-adv-x="440" unicode="P" /><glyph d="M198 80 301 -106C306 -116 314 -120 325 -120H446C461 -120 467 -110 460 -96L344 115C339 125 330 129 319 127L210 106C196 103 191 92 198 80ZM242 -10C391 -10 462 68 462 331V429C462 696 388 770 242 770C96 770 22 695 22 429V331C22 69 92 -10 242 -10ZM242 124C205 124 196 141 196 240V519C196 622 204 637 242 637C279 637 288 622 288 519V240C288 141 279 124 242 124ZM242 0ZM312 0ZM242 760Z" glyph-name="Q" horiz-adv-x="484" unicode="Q" /><glyph d="M50 0H171C184 0 191 7 191 20V289H199L282 17C285 6 293 0 304 0H438C452 0 459 9 454 23L337 336V346C391 369 426 424 426 533V542C426 699 349 760 219 760H50C37 760 30 753 30 740V20C30 7 37 0 50 0ZM191 406V639H208C245 639 264 619 264 545V500C264 426 245 406 208 406ZM237 0ZM206 760Z" glyph-name="R" horiz-adv-x="450" unicode="R" /><glyph d="M50 0H171C184 0 191 7 191 20V289H199L282 17C285 6 293 0 304 0H438C452 0 459 9 454 23L337 336V346C391 369 426 424 426 533V542C426 699 349 760 219 760H50C37 760 30 753 30 740V20C30 7 37 0 50 0ZM191 406V639H208C245 639 264 619 264 545V500C264 426 245 406 208 406ZM237 0ZM206 760ZM177 812H244C255 812 262 817 267 827L316 926C323 940 316 950 301 950H220C209 950 201 945 197 934L161 835C156 821 163 812 177 812ZM206 760Z" glyph-name="Racute" horiz-adv-x="450" unicode="&#340;" /><glyph d="M50 0H171C184 0 191 7 191 20V289H199L282 17C285 6 293 0 304 0H438C452 0 459 9 454 23L337 336V346C391 369 426 424 426 533V542C426 699 349 760 219 760H50C37 760 30 753 30 740V20C30 7 37 0 50 0ZM191 406V639H208C245 639 264 619 264 545V500C264 426 245 406 208 406ZM237 0ZM206 760ZM303 950H248C237 950 230 946 226 934L208 880H202L184 934C180 946 173 950 162 950H107C92 950 86 941 92 927L134 827C138 816 146 812 157 812H252C263 812 272 816 276 827L318 927C324 941 318 950 303 950ZM205 1002ZM206 760Z" glyph-name="Rcaron" horiz-adv-x="450" unicode="&#344;" /><glyph d="M398 558C398 707 339 770 206 770C76 770 17 699 17 592V577C17 478 59 425 116 367L185 296C225 255 246 216 246 171V169C246 132 234 115 207 115C180 115 168 132 168 169V253C168 266 161 273 148 273H34C21 273 14 266 14 253V214C14 62 64 -10 209 -10C347 -10 405 59 405 176V191C405 290 362 351 307 408L243 475C196 524 174 555 174 596V598C174 632 186 647 210 647C234 647 246 632 246 598V533C246 520 253 513 266 513H378C391 513 398 520 398 533ZM209 0ZM207 760Z" glyph-name="S" horiz-adv-x="419" unicode="S" /><glyph d="M398 558C398 707 339 770 206 770C76 770 17 699 17 592V577C17 478 59 425 116 367L185 296C225 255 246 216 246 171V169C246 132 234 115 207 115C180 115 168 132 168 169V253C168 266 161 273 148 273H34C21 273 14 266 14 253V214C14 62 64 -10 209 -10C347 -10 405 59 405 176V191C405 290 362 351 307 408L243 475C196 524 174 555 174 596V598C174 632 186 647 210 647C234 647 246 632 246 598V533C246 520 253 513 266 513H378C391 513 398 520 398 533ZM209 0ZM207 760ZM178 812H245C256 812 263 817 268 827L317 926C324 940 317 950 302 950H221C210 950 202 945 198 934L162 835C157 821 164 812 178 812ZM207 760Z" glyph-name="Sacute" horiz-adv-x="419" unicode="&#346;" /><glyph d="M398 558C398 707 339 770 206 770C76 770 17 699 17 592V577C17 478 59 425 116 367L185 296C225 255 246 216 246 171V169C246 132 234 115 207 115C180 115 168 132 168 169V253C168 266 161 273 148 273H34C21 273 14 266 14 253V214C14 62 64 -10 209 -10C347 -10 405 59 405 176V191C405 290 362 351 307 408L243 475C196 524 174 555 174 596V598C174 632 186 647 210 647C234 647 246 632 246 598V533C246 520 253 513 266 513H378C391 513 398 520 398 533ZM209 0ZM207 760ZM304 950H249C238 950 231 946 227 934L209 880H203L185 934C181 946 174 950 163 950H108C93 950 87 941 93 927L135 827C139 816 147 812 158 812H253C264 812 273 816 277 827L319 927C325 941 319 950 304 950ZM206 1002ZM207 760Z" glyph-name="Scaron" horiz-adv-x="419" unicode="&#352;" /><glyph d="M164 -145H231C287 -145 311 -116 311 -83C311 -41 283 -25 234 -25H230L234 -9C354 -1 405 66 405 176V191C405 285 362 351 307 408L243 475C196 524 174 560 174 596V598C174 632 186 647 210 647C234 647 246 632 246 598V533C246 520 253 513 266 513H378C391 513 398 520 398 533V558C398 707 339 770 206 770C76 770 17 699 17 592V577C17 483 59 425 116 367L185 296C225 255 246 211 246 171V169C246 132 234 115 207 115C180 115 168 132 168 169V253C168 266 161 273 148 273H34C21 273 14 266 14 253V214C14 75 56 3 174 -8L161 -54C157 -67 164 -76 178 -76H215C230 -76 237 -79 237 -88C237 -97 230 -99 215 -99H164C151 -99 144 -106 144 -119V-125C144 -138 151 -145 164 -145Z" glyph-name="Scedilla" horiz-adv-x="419" unicode="&#350;" /><glyph d="M398 558C398 707 339 770 206 770C76 770 17 699 17 592V577C17 478 59 425 116 367L185 296C225 255 246 216 246 171V169C246 132 234 115 207 115C180 115 168 132 168 169V253C168 266 161 273 148 273H34C21 273 14 266 14 253V214C14 62 64 -10 209 -10C347 -10 405 59 405 176V191C405 290 362 351 307 408L243 475C196 524 174 555 174 596V598C174 632 186 647 210 647C234 647 246 632 246 598V533C246 520 253 513 266 513H378C391 513 398 520 398 533ZM209 0ZM207 760ZM109 812H164C175 812 182 816 186 828L204 882H210L228 828C232 816 239 812 250 812H305C320 812 326 821 320 835L278 935C274 946 266 950 255 950H160C149 950 140 946 136 935L94 835C88 821 94 812 109 812ZM207 760Z" glyph-name="Scircumflex" horiz-adv-x="419" unicode="&#348;" /><glyph d="M10 740V648C10 635 17 628 30 628H125V20C125 7 132 0 145 0H268C281 0 288 7 288 20V628H384C397 628 404 635 404 648V740C404 753 397 760 384 760H30C17 760 10 753 10 740ZM207 0ZM207 760Z" glyph-name="T" horiz-adv-x="414" unicode="T" /><glyph d="M57 326H356C369 326 376 333 376 346V436C376 449 369 456 356 456H57C44 456 37 449 37 436V346C37 333 44 326 57 326ZM10 740V648C10 635 17 628 30 628H125V20C125 7 132 0 145 0H268C281 0 288 7 288 20V628H384C397 628 404 635 404 648V740C404 753 397 760 384 760H30C17 760 10 753 10 740ZM207 0ZM207 760Z" glyph-name="Tbar" horiz-adv-x="414" unicode="&#358;" /><glyph d="M10 740V648C10 635 17 628 30 628H125V20C125 7 132 0 145 0H268C281 0 288 7 288 20V628H384C397 628 404 635 404 648V740C404 753 397 760 384 760H30C17 760 10 753 10 740ZM207 0ZM207 760ZM304 950H249C238 950 231 946 227 934L209 880H203L185 934C181 946 174 950 163 950H108C93 950 87 941 93 927L135 827C139 816 147 812 158 812H253C264 812 273 816 277 827L319 927C325 941 319 950 304 950ZM206 1002ZM207 760Z" glyph-name="Tcaron" horiz-adv-x="414" unicode="&#356;" /><glyph d="M162 -145H229C285 -145 309 -116 309 -83C309 -41 281 -25 232 -25H228L234 0H268C281 0 288 7 288 20V628H384C397 628 404 635 404 648V740C404 753 397 760 384 760H30C17 760 10 753 10 740V648C10 635 17 628 30 628H125V20C125 7 132 0 145 0H175L160 -53C156 -66 162 -76 176 -76H213C228 -76 235 -79 235 -88C235 -97 228 -99 213 -99H162C149 -99 142 -106 142 -119V-125C142 -138 149 -145 162 -145Z" glyph-name="Tcedilla" horiz-adv-x="414" unicode="&#354;" /><glyph d="M50 0H171C184 0 191 7 191 20V254H220C348 254 426 322 426 503V512C426 691 349 760 219 760H50C37 760 30 753 30 740V20C30 7 37 0 50 0ZM191 376V639H208C245 639 264 619 264 545V470C264 396 245 376 208 376Z" glyph-name="Thorn" horiz-adv-x="440" unicode="&#222;" /><glyph d="M26 200C26 64 89 -10 229 -10C368 -10 432 65 432 200V740C432 753 425 760 412 760H291C278 760 271 753 271 740V160C271 125 257 114 230 114C203 114 189 125 189 160V740C189 753 182 760 169 760H46C33 760 26 753 26 740ZM230 0ZM297 0ZM230 760Z" glyph-name="U" horiz-adv-x="458" unicode="U" /><glyph d="M26 200C26 64 89 -10 229 -10C368 -10 432 65 432 200V740C432 753 425 760 412 760H291C278 760 271 753 271 740V160C271 125 257 114 230 114C203 114 189 125 189 160V740C189 753 182 760 169 760H46C33 760 26 753 26 740ZM230 0ZM297 0ZM230 760ZM201 812H268C279 812 286 817 291 827L340 926C347 940 340 950 325 950H244C233 950 225 945 221 934L185 835C180 821 187 812 201 812ZM230 760Z" glyph-name="Uacute" horiz-adv-x="458" unicode="&#218;" /><glyph d="M26 200C26 64 89 -10 229 -10C368 -10 432 65 432 200V740C432 753 425 760 412 760H291C278 760 271 753 271 740V160C271 125 257 114 230 114C203 114 189 125 189 160V740C189 753 182 760 169 760H46C33 760 26 753 26 740ZM230 0ZM297 0ZM230 760ZM231 814C297 814 336 842 343 922C344 940 337 950 324 950H278C266 950 258 943 257 929C255 896 247 884 231 884C216 884 208 896 207 929C206 943 198 950 186 950H138C125 950 118 943 119 929C124 843 163 814 231 814ZM230 760Z" glyph-name="Ubreve" horiz-adv-x="458" unicode="&#364;" /><glyph d="M26 200C26 64 89 -10 229 -10C368 -10 432 65 432 200V740C432 753 425 760 412 760H291C278 760 271 753 271 740V160C271 125 257 114 230 114C203 114 189 125 189 160V740C189 753 182 760 169 760H46C33 760 26 753 26 740ZM230 0ZM297 0ZM230 760ZM327 950H272C261 950 254 946 250 934L232 880H226L208 934C204 946 197 950 186 950H131C116 950 110 941 116 927L158 827C162 816 170 812 181 812H276C287 812 296 816 300 827L342 927C348 941 342 950 327 950ZM229 1002ZM230 760Z" glyph-name="Ucaron" horiz-adv-x="458" unicode="&#467;" /><glyph d="M26 200C26 64 89 -10 229 -10C368 -10 432 65 432 200V740C432 753 425 760 412 760H291C278 760 271 753 271 740V160C271 125 257 114 230 114C203 114 189 125 189 160V740C189 753 182 760 169 760H46C33 760 26 753 26 740ZM230 0ZM297 0ZM230 760ZM132 812H187C198 812 205 816 209 828L227 882H233L251 828C255 816 262 812 273 812H328C343 812 349 821 343 835L301 935C297 946 289 950 278 950H183C172 950 163 946 159 935L117 835C111 821 117 812 132 812ZM230 760Z" glyph-name="Ucircumflex" horiz-adv-x="458" unicode="&#219;" /><glyph d="M26 200C26 64 89 -10 229 -10C368 -10 432 65 432 200V740C432 753 425 760 412 760H291C278 760 271 753 271 740V160C271 125 257 114 230 114C203 114 189 125 189 160V740C189 753 182 760 169 760H46C33 760 26 753 26 740ZM230 0ZM297 0ZM230 760ZM159 826C195 826 221 853 221 890C221 927 195 953 159 953C122 953 95 927 95 890C95 853 122 826 159 826ZM301 826C338 826 364 853 364 890C364 927 338 953 301 953C264 953 238 927 238 890C238 853 264 826 301 826ZM230 760Z" glyph-name="Udieresis" horiz-adv-x="458" unicode="&#220;" /><glyph d="M26 200C26 64 89 -10 229 -10C368 -10 432 65 432 200V740C432 753 425 760 412 760H291C278 760 271 753 271 740V160C271 125 257 114 230 114C203 114 189 125 189 160V740C189 753 182 760 169 760H46C33 760 26 753 26 740ZM230 0ZM297 0ZM230 760ZM259 812H192C181 812 174 817 169 827L120 926C113 940 120 950 135 950H216C227 950 235 945 239 934L275 835C280 821 273 812 259 812ZM230 760ZM230 760Z" glyph-name="Ugrave" horiz-adv-x="458" unicode="&#217;" /><glyph d="M26 200C26 64 89 -10 229 -10C368 -10 432 65 432 200V740C432 753 425 760 412 760H291C278 760 271 753 271 740V160C271 125 257 114 230 114C203 114 189 125 189 160V740C189 753 182 760 169 760H46C33 760 26 753 26 740ZM230 0ZM297 0ZM230 760ZM152 812H194C205 812 214 816 218 827L260 927C266 941 260 950 245 950H189C178 950 170 945 167 934L135 835C131 821 138 812 152 812ZM272 812H314C325 812 334 816 338 827L380 927C386 941 380 950 365 950H308C297 950 289 944 286 933L255 835C251 821 258 812 272 812ZM230 760Z" glyph-name="Uhungarumlaut" horiz-adv-x="458" unicode="&#368;" /><glyph d="M26 200C26 64 89 -10 229 -10C368 -10 432 65 432 200V740C432 753 425 760 412 760H291C278 760 271 753 271 740V160C271 125 257 114 230 114C203 114 189 125 189 160V740C189 753 182 760 169 760H46C33 760 26 753 26 740ZM230 0ZM297 0ZM230 760ZM156 839H303C316 839 323 846 323 859V910C323 923 316 930 303 930H156C143 930 136 923 136 910V859C136 846 143 839 156 839ZM230 760Z" glyph-name="Umacron" horiz-adv-x="458" unicode="&#362;" /><glyph d="M221 -10C199 -32 181 -58 181 -84C181 -128 218 -145 259 -145H307C320 -145 327 -138 327 -125V-85C327 -72 320 -65 307 -65H294C279 -65 269 -59 269 -46C269 -33 279 -21 294 -3C388 18 432 88 432 200V740C432 753 425 760 412 760H291C278 760 271 753 271 740V160C271 125 257 114 230 114C203 114 189 125 189 160V740C189 753 182 760 169 760H46C33 760 26 753 26 740V200C26 67 87 -7 221 -10Z" glyph-name="Uogonek" horiz-adv-x="458" unicode="&#370;" /><glyph d="M26 200C26 64 89 -10 229 -10C368 -10 432 65 432 200V740C432 753 425 760 412 760H291C278 760 271 753 271 740V160C271 125 257 114 230 114C203 114 189 125 189 160V740C189 753 182 760 169 760H46C33 760 26 753 26 740ZM230 0ZM297 0ZM230 760ZM229 812C281 812 319 842 319 892C319 942 281 973 229 973C178 973 139 942 139 892C139 842 178 812 229 812ZM229 864C212 864 201 875 201 892C201 909 212 920 229 920C246 920 258 909 258 892C258 875 246 864 229 864ZM230 760Z" glyph-name="Uring" horiz-adv-x="458" unicode="&#366;" /><glyph d="M26 200C26 64 89 -10 229 -10C368 -10 432 65 432 200V740C432 753 425 760 412 760H291C278 760 271 753 271 740V160C271 125 257 114 230 114C203 114 189 125 189 160V740C189 753 182 760 169 760H46C33 760 26 753 26 740ZM230 0ZM297 0ZM230 760ZM280 810C327 810 343 844 346 914C347 937 340 950 327 950H300C288 950 281 943 279 930C277 913 273 907 263 907C253 907 246 914 239 922C226.3158 934.6842 213 952 181 952C131 952 115 914 113 833C113 819 120 812 133 812H160C172 812 179 819 181 832C184 849 188 855 198 855C208 855 215 849 221 841C232.6552 828.2852 245 810 280 810ZM230 760Z" glyph-name="Utilde" horiz-adv-x="458" unicode="&#360;" /><glyph d="M230 221H223L213 354L176 741C175 753 167 760 155 760H26C13 760 5 752 7 739L77 289L123 18C125 5 132 0 144 0H298C310 0 317 6 319 18L366 289L437 739C439 752 431 760 418 760H297C285 760 277 753 276 741L240 354Z" glyph-name="V" horiz-adv-x="444" unicode="V" /><glyph d="M122 0H233C245 0 253 7 254 19L271 160L288 320L294 400H299L305 320L322 160L339 19C340 7 348 0 360 0H463C475 0 482 6 484 19L522 300L578 739C580 753 573 760 560 760H439C427 760 420 753 419 741L401 397L397 327H391L385 397L346 741C345 754 337 760 325 760H269C257 760 249 754 248 741L210 397L204 327H198L194 397L176 741C175 753 168 760 156 760H26C13 760 6 753 8 739L64 300L101 19C103 6 110 0 122 0ZM297 0ZM298 760Z" glyph-name="W" horiz-adv-x="587" unicode="W" /><glyph d="M122 0H233C245 0 253 7 254 19L271 160L288 320L294 400H299L305 320L322 160L339 19C340 7 348 0 360 0H463C475 0 482 6 484 19L522 300L578 739C580 753 573 760 560 760H439C427 760 420 753 419 741L401 397L397 327H391L385 397L346 741C345 754 337 760 325 760H269C257 760 249 754 248 741L210 397L204 327H198L194 397L176 741C175 753 168 760 156 760H26C13 760 6 753 8 739L64 300L101 19C103 6 110 0 122 0ZM297 0ZM298 760ZM269 812H336C347 812 354 817 359 827L408 926C415 940 408 950 393 950H312C301 950 293 945 289 934L253 835C248 821 255 812 269 812ZM298 760Z" glyph-name="Wacute" horiz-adv-x="587" unicode="&#7810;" /><glyph d="M122 0H233C245 0 253 7 254 19L271 160L288 320L294 400H299L305 320L322 160L339 19C340 7 348 0 360 0H463C475 0 482 6 484 19L522 300L578 739C580 753 573 760 560 760H439C427 760 420 753 419 741L401 397L397 327H391L385 397L346 741C345 754 337 760 325 760H269C257 760 249 754 248 741L210 397L204 327H198L194 397L176 741C175 753 168 760 156 760H26C13 760 6 753 8 739L64 300L101 19C103 6 110 0 122 0ZM297 0ZM298 760ZM200 812H255C266 812 273 816 277 828L295 882H301L319 828C323 816 330 812 341 812H396C411 812 417 821 411 835L369 935C365 946 357 950 346 950H251C240 950 231 946 227 935L185 835C179 821 185 812 200 812ZM298 760Z" glyph-name="Wcircumflex" horiz-adv-x="587" unicode="&#372;" /><glyph d="M122 0H233C245 0 253 7 254 19L271 160L288 320L294 400H299L305 320L322 160L339 19C340 7 348 0 360 0H463C475 0 482 6 484 19L522 300L578 739C580 753 573 760 560 760H439C427 760 420 753 419 741L401 397L397 327H391L385 397L346 741C345 754 337 760 325 760H269C257 760 249 754 248 741L210 397L204 327H198L194 397L176 741C175 753 168 760 156 760H26C13 760 6 753 8 739L64 300L101 19C103 6 110 0 122 0ZM297 0ZM298 760ZM227 826C263 826 289 853 289 890C289 927 263 953 227 953C190 953 163 927 163 890C163 853 190 826 227 826ZM369 826C406 826 432 853 432 890C432 927 406 953 369 953C332 953 306 927 306 890C306 853 332 826 369 826ZM298 760Z" glyph-name="Wdieresis" horiz-adv-x="587" unicode="&#7812;" /><glyph d="M122 0H233C245 0 253 7 254 19L271 160L288 320L294 400H299L305 320L322 160L339 19C340 7 348 0 360 0H463C475 0 482 6 484 19L522 300L578 739C580 753 573 760 560 760H439C427 760 420 753 419 741L401 397L397 327H391L385 397L346 741C345 754 337 760 325 760H269C257 760 249 754 248 741L210 397L204 327H198L194 397L176 741C175 753 168 760 156 760H26C13 760 6 753 8 739L64 300L101 19C103 6 110 0 122 0ZM297 0ZM298 760ZM327 812H260C249 812 242 817 237 827L188 926C181 940 188 950 203 950H284C295 950 303 945 307 934L343 835C348 821 341 812 327 812ZM298 760ZM298 760Z" glyph-name="Wgrave" horiz-adv-x="587" unicode="&#7808;" /><glyph d="M28 0H142C154 0 161 7 164 18L202 185L214 263H220L233 185L271 18C274 7 281 0 293 0H420C434 0 440 9 437 22L342 389L431 738C434 751 428 760 414 760H300C288 760 280 753 278 742L245 586L233 508H227L214 586L182 742C180 754 172 760 160 760H34C20 760 14 752 17 738L105 387L11 22C8 9 14 0 28 0ZM229 760Z" glyph-name="X" horiz-adv-x="448" unicode="X" /><glyph d="M274 742 246 578 228 453H221L203 578L175 742C173 755 166 760 154 760H26C12 760 6 752 9 738L137 229V20C137 7 144 0 157 0H281C294 0 301 7 301 20V231L430 738C433 751 427 760 413 760H295C283 760 276 755 274 742ZM219 0ZM226 760Z" glyph-name="Y" horiz-adv-x="439" unicode="Y" /><glyph d="M274 742 246 578 228 453H221L203 578L175 742C173 755 166 760 154 760H26C12 760 6 752 9 738L137 229V20C137 7 144 0 157 0H281C294 0 301 7 301 20V231L430 738C433 751 427 760 413 760H295C283 760 276 755 274 742ZM219 0ZM226 760ZM197 812H264C275 812 282 817 287 827L336 926C343 940 336 950 321 950H240C229 950 221 945 217 934L181 835C176 821 183 812 197 812ZM226 760Z" glyph-name="Yacute" horiz-adv-x="439" unicode="&#221;" /><glyph d="M274 742 246 578 228 453H221L203 578L175 742C173 755 166 760 154 760H26C12 760 6 752 9 738L137 229V20C137 7 144 0 157 0H281C294 0 301 7 301 20V231L430 738C433 751 427 760 413 760H295C283 760 276 755 274 742ZM219 0ZM226 760ZM128 812H183C194 812 201 816 205 828L223 882H229L247 828C251 816 258 812 269 812H324C339 812 345 821 339 835L297 935C293 946 285 950 274 950H179C168 950 159 946 155 935L113 835C107 821 113 812 128 812ZM226 760Z" glyph-name="Ycircumflex" horiz-adv-x="439" unicode="&#374;" /><glyph d="M274 742 246 578 228 453H221L203 578L175 742C173 755 166 760 154 760H26C12 760 6 752 9 738L137 229V20C137 7 144 0 157 0H281C294 0 301 7 301 20V231L430 738C433 751 427 760 413 760H295C283 760 276 755 274 742ZM219 0ZM226 760ZM155 826C191 826 217 853 217 890C217 927 191 953 155 953C118 953 91 927 91 890C91 853 118 826 155 826ZM297 826C334 826 360 853 360 890C360 927 334 953 297 953C260 953 234 927 234 890C234 853 260 826 297 826ZM226 760Z" glyph-name="Ydieresis" horiz-adv-x="439" unicode="&#376;" /><glyph d="M274 742 246 578 228 453H221L203 578L175 742C173 755 166 760 154 760H26C12 760 6 752 9 738L137 229V20C137 7 144 0 157 0H281C294 0 301 7 301 20V231L430 738C433 751 427 760 413 760H295C283 760 276 755 274 742ZM219 0ZM226 760ZM255 812H188C177 812 170 817 165 827L116 926C109 940 116 950 131 950H212C223 950 231 945 235 934L271 835C276 821 269 812 255 812ZM226 760ZM226 760Z" glyph-name="Ygrave" horiz-adv-x="439" unicode="&#7922;" /><glyph d="M274 742 246 578 228 453H221L203 578L175 742C173 755 166 760 154 760H26C12 760 6 752 9 738L137 229V20C137 7 144 0 157 0H281C294 0 301 7 301 20V231L430 738C433 751 427 760 413 760H295C283 760 276 755 274 742ZM219 0ZM226 760ZM152 839H299C312 839 319 846 319 859V910C319 923 312 930 299 930H152C139 930 132 923 132 910V859C132 846 139 839 152 839ZM226 760Z" glyph-name="Ymacron" horiz-adv-x="439" unicode="&#562;" /><glyph d="M274 742 246 578 228 453H221L203 578L175 742C173 755 166 760 154 760H26C12 760 6 752 9 738L137 229V20C137 7 144 0 157 0H281C294 0 301 7 301 20V231L430 738C433 751 427 760 413 760H295C283 760 276 755 274 742ZM219 0ZM226 760ZM276 810C323 810 339 844 342 914C343 937 336 950 323 950H296C284 950 277 943 275 930C273 913 269 907 259 907C249 907 242 914 235 922C222.3158 934.6842 209 952 177 952C127 952 111 914 109 833C109 819 116 812 129 812H156C168 812 175 819 177 832C180 849 184 855 194 855C204 855 211 849 217 841C228.6552 828.2852 241 810 276 810ZM226 760Z" glyph-name="Ytilde" horiz-adv-x="439" unicode="&#7928;" /><glyph d="M372 20V112C372 125 365 132 352 132H207L361 738C364 751 358 760 344 760H45C32 760 25 753 25 740V648C25 635 32 628 45 628H170L16 22C13 9 19 0 33 0H352C365 0 372 7 372 20ZM192 0ZM199 760Z" glyph-name="Z" horiz-adv-x="390" unicode="Z" /><glyph d="M372 20V112C372 125 365 132 352 132H207L361 738C364 751 358 760 344 760H45C32 760 25 753 25 740V648C25 635 32 628 45 628H170L16 22C13 9 19 0 33 0H352C365 0 372 7 372 20ZM192 0ZM199 760ZM170 812H237C248 812 255 817 260 827L309 926C316 940 309 950 294 950H213C202 950 194 945 190 934L154 835C149 821 156 812 170 812ZM199 760Z" glyph-name="Zacute" horiz-adv-x="390" unicode="&#377;" /><glyph d="M372 20V112C372 125 365 132 352 132H207L361 738C364 751 358 760 344 760H45C32 760 25 753 25 740V648C25 635 32 628 45 628H170L16 22C13 9 19 0 33 0H352C365 0 372 7 372 20ZM192 0ZM199 760ZM296 950H241C230 950 223 946 219 934L201 880H195L177 934C173 946 166 950 155 950H100C85 950 79 941 85 927L127 827C131 816 139 812 150 812H245C256 812 265 816 269 827L311 927C317 941 311 950 296 950ZM198 1002ZM199 760Z" glyph-name="Zcaron" horiz-adv-x="390" unicode="&#381;" /><glyph d="M372 20V112C372 125 365 132 352 132H207L361 738C364 751 358 760 344 760H45C32 760 25 753 25 740V648C25 635 32 628 45 628H170L16 22C13 9 19 0 33 0H352C365 0 372 7 372 20ZM192 0ZM199 760ZM199 833C233 833 258 855 258 892C258 930 233 950 199 950C164 950 138 930 138 892C138 855 163 833 199 833ZM199 760Z" glyph-name="Zdotaccent" horiz-adv-x="390" unicode="&#379;" /><glyph d="M192 102C175 102 166 116 166 159V188C166 234 177 253 204 253H224V158C224 115 209 102 192 102ZM168 419C168 458 176 470 196 470C216 470 224 458 224 419V327H139C60 327 14 280 14 175V133C14 34 54 -9 124 -9C181 -9 209 18 219 70H230L243 17C246 6 253 0 265 0H370C384 0 391 9 388 22L375 90V403C375 524 317 579 198 579C79 579 21 524 21 403V381C21 368 28 361 41 361H148C161 361 168 368 168 381ZM207 0ZM392 0ZM197 570Z" glyph-name="a" horiz-adv-x="398" unicode="a" /><glyph d="M212 470C236 470 243 457 243 379V196C243 121 236 108 212 108C188 108 181 121 181 196V379C181 457 188 470 212 470ZM239 72H254L267 17C270 6 277 0 289 0H394C408 0 415 9 412 22L399 90V550C399 563 392 570 379 570H263C250 570 243 563 243 550V513H231C224 555 196 576 146 576C66 576 20 526 20 343V227C20 44 64 -6 146 -6C202 -6 232 20 239 72ZM231 0ZM416 0ZM221 570Z" glyph-name="a.01" horiz-adv-x="425" /><glyph d="M192 102C175 102 166 116 166 159V188C166 234 177 253 204 253H224V158C224 115 209 102 192 102ZM168 419C168 458 176 470 196 470C216 470 224 458 224 419V327H139C60 327 14 280 14 175V133C14 34 54 -9 124 -9C181 -9 209 18 219 70H230L243 17C246 6 253 0 265 0H370C384 0 391 9 388 22L375 90V403C375 524 317 579 198 579C79 579 21 524 21 403V381C21 368 28 361 41 361H148C161 361 168 368 168 381ZM207 0ZM392 0ZM197 570ZM168 622H235C246 622 253 627 258 637L307 736C314 750 307 760 292 760H211C200 760 192 755 188 744L152 645C147 631 154 622 168 622ZM197 570Z" glyph-name="aacute" horiz-adv-x="398" unicode="&#225;" /><glyph d="M182 622H249C260 622 267 627 272 637L321 736C328 750 321 760 306 760H225C214 760 206 755 202 744L166 645C161 631 168 622 182 622ZM211 570ZM212 470C236 470 243 457 243 379V196C243 121 236 108 212 108C188 108 181 121 181 196V379C181 457 188 470 212 470ZM239 72H254L267 17C270 6 277 0 289 0H394C408 0 415 9 412 22L399 90V550C399 563 392 570 379 570H263C250 570 243 563 243 550V513H231C224 555 196 576 146 576C66 576 20 526 20 343V227C20 44 64 -6 146 -6C202 -6 232 20 239 72ZM231 0ZM416 0ZM221 570Z" glyph-name="aacute.01" horiz-adv-x="425" /><glyph d="M192 102C175 102 166 116 166 159V188C166 234 177 253 204 253H224V158C224 115 209 102 192 102ZM168 419C168 458 176 470 196 470C216 470 224 458 224 419V327H139C60 327 14 280 14 175V133C14 34 54 -9 124 -9C181 -9 209 18 219 70H230L243 17C246 6 253 0 265 0H370C384 0 391 9 388 22L375 90V403C375 524 317 579 198 579C79 579 21 524 21 403V381C21 368 28 361 41 361H148C161 361 168 368 168 381ZM207 0ZM392 0ZM197 570ZM198 624C264 624 303 652 310 732C311 750 304 760 291 760H245C233 760 225 753 224 739C222 706 214 694 198 694C183 694 175 706 174 739C173 753 165 760 153 760H105C92 760 85 753 86 739C91 653 130 624 198 624ZM197 570Z" glyph-name="abreve" horiz-adv-x="398" unicode="&#259;" /><glyph d="M224 624C290 624 329 652 336 732C337 750 330 760 317 760H271C259 760 251 753 250 739C248 706 240 694 224 694C209 694 201 706 200 739C199 753 191 760 179 760H131C118 760 111 753 112 739C117 653 156 624 224 624ZM223 570ZM212 470C236 470 243 457 243 379V196C243 121 236 108 212 108C188 108 181 121 181 196V379C181 457 188 470 212 470ZM239 72H254L267 17C270 6 277 0 289 0H394C408 0 415 9 412 22L399 90V550C399 563 392 570 379 570H263C250 570 243 563 243 550V513H231C224 555 196 576 146 576C66 576 20 526 20 343V227C20 44 64 -6 146 -6C202 -6 232 20 239 72ZM231 0ZM416 0ZM221 570Z" glyph-name="abreve.01" horiz-adv-x="425" /><glyph d="M192 102C175 102 166 116 166 159V188C166 234 177 253 204 253H224V158C224 115 209 102 192 102ZM168 419C168 458 176 470 196 470C216 470 224 458 224 419V327H139C60 327 14 280 14 175V133C14 34 54 -9 124 -9C181 -9 209 18 219 70H230L243 17C246 6 253 0 265 0H370C384 0 391 9 388 22L375 90V403C375 524 317 579 198 579C79 579 21 524 21 403V381C21 368 28 361 41 361H148C161 361 168 368 168 381ZM207 0ZM392 0ZM197 570ZM294 760H239C228 760 221 756 217 744L199 690H193L175 744C171 756 164 760 153 760H98C83 760 77 751 83 737L125 637C129 626 137 622 148 622H243C254 622 263 626 267 637L309 737C315 751 309 760 294 760ZM196 812ZM197 570Z" glyph-name="acaron" horiz-adv-x="398" unicode="&#462;" /><glyph d="M328 760H273C262 760 255 756 251 744L233 690H227L209 744C205 756 198 760 187 760H132C117 760 111 751 117 737L159 637C163 626 171 622 182 622H277C288 622 297 626 301 637L343 737C349 751 343 760 328 760ZM230 812ZM231 570ZM212 470C236 470 243 457 243 379V196C243 121 236 108 212 108C188 108 181 121 181 196V379C181 457 188 470 212 470ZM239 72H254L267 17C270 6 277 0 289 0H394C408 0 415 9 412 22L399 90V550C399 563 392 570 379 570H263C250 570 243 563 243 550V513H231C224 555 196 576 146 576C66 576 20 526 20 343V227C20 44 64 -6 146 -6C202 -6 232 20 239 72ZM231 0ZM416 0ZM221 570Z" glyph-name="acaron.01" horiz-adv-x="425" /><glyph d="M192 102C175 102 166 116 166 159V188C166 234 177 253 204 253H224V158C224 115 209 102 192 102ZM168 419C168 458 176 470 196 470C216 470 224 458 224 419V327H139C60 327 14 280 14 175V133C14 34 54 -9 124 -9C181 -9 209 18 219 70H230L243 17C246 6 253 0 265 0H370C384 0 391 9 388 22L375 90V403C375 524 317 579 198 579C79 579 21 524 21 403V381C21 368 28 361 41 361H148C161 361 168 368 168 381ZM207 0ZM392 0ZM197 570ZM99 622H154C165 622 172 626 176 638L194 692H200L218 638C222 626 229 622 240 622H295C310 622 316 631 310 645L268 745C264 756 256 760 245 760H150C139 760 130 756 126 745L84 645C78 631 84 622 99 622ZM197 570Z" glyph-name="acircumflex" horiz-adv-x="398" unicode="&#226;" /><glyph d="M128 622H183C194 622 201 626 205 638L223 692H229L247 638C251 626 258 622 269 622H324C339 622 345 631 339 645L297 745C293 756 285 760 274 760H179C168 760 159 756 155 745L113 645C107 631 113 622 128 622ZM226 570ZM212 470C236 470 243 457 243 379V196C243 121 236 108 212 108C188 108 181 121 181 196V379C181 457 188 470 212 470ZM239 72H254L267 17C270 6 277 0 289 0H394C408 0 415 9 412 22L399 90V550C399 563 392 570 379 570H263C250 570 243 563 243 550V513H231C224 555 196 576 146 576C66 576 20 526 20 343V227C20 44 64 -6 146 -6C202 -6 232 20 239 72ZM231 0ZM416 0ZM221 570Z" glyph-name="acircumflex.01" horiz-adv-x="425" /><glyph d="M69 622H136C147 622 154 627 159 637L208 736C215 750 208 760 193 760H112C101 760 93 755 89 744L53 645C48 631 55 622 69 622ZM98 570Z" glyph-name="acute" horiz-adv-x="263" unicode="&#180;" /><glyph d="M192 102C175 102 166 116 166 159V188C166 234 177 253 204 253H224V158C224 115 209 102 192 102ZM168 419C168 458 176 470 196 470C216 470 224 458 224 419V327H139C60 327 14 280 14 175V133C14 34 54 -9 124 -9C181 -9 209 18 219 70H230L243 17C246 6 253 0 265 0H370C384 0 391 9 388 22L375 90V403C375 524 317 579 198 579C79 579 21 524 21 403V381C21 368 28 361 41 361H148C161 361 168 368 168 381ZM207 0ZM392 0ZM197 570ZM126 636C162 636 188 663 188 700C188 737 162 763 126 763C89 763 62 737 62 700C62 663 89 636 126 636ZM268 636C305 636 331 663 331 700C331 737 305 763 268 763C231 763 205 737 205 700C205 663 231 636 268 636ZM197 570Z" glyph-name="adieresis" horiz-adv-x="398" unicode="&#228;" /><glyph d="M160 636C196 636 222 663 222 700C222 737 196 763 160 763C123 763 96 737 96 700C96 663 123 636 160 636ZM302 636C339 636 365 663 365 700C365 737 339 763 302 763C265 763 239 737 239 700C239 663 265 636 302 636ZM231 570ZM212 470C236 470 243 457 243 379V196C243 121 236 108 212 108C188 108 181 121 181 196V379C181 457 188 470 212 470ZM239 72H254L267 17C270 6 277 0 289 0H394C408 0 415 9 412 22L399 90V550C399 563 392 570 379 570H263C250 570 243 563 243 550V513H231C224 555 196 576 146 576C66 576 20 526 20 343V227C20 44 64 -6 146 -6C202 -6 232 20 239 72ZM231 0ZM416 0ZM221 570Z" glyph-name="adieresis.01" horiz-adv-x="425" /><glyph d="M297 487C284.9814 549.096 244.8992 579 173 579C70.3758 579 21 524 21 403V381C21 368 28 361 41 361H148C161 361 168 368 168 381V419C168 458 176 470 196 470C216 470 224 458 224 419V327H139C60 327 14 280 14 175V143C14 37 56.6718 -9 144 -9C219 -9 263 24 276 90H285C307 22 350 -9 421 -9C533.7089 -9 580 63 580 208V212C580 225 573 232 560 232H456C443 232 436 225 436 212V164C436 111 427 100 406 100C383 100 375 112 375 182V270H561C574 270 581 277 581 290V355C581 507 538.1282 579 429 579C358.6949 579 323.0334 550.1315 307 487ZM406 470C428 470 436 458 436 399V344H375V399C375 459 384 470 406 470ZM192 102C175 102 166 116 166 159V188C166 234 177 253 204 253H224V158C224 115 209 102 192 102ZM306 570Z" glyph-name="ae" horiz-adv-x="599" unicode="&#230;" /><glyph d="M297 487C284.9814 549.096 244.8992 579 173 579C70.3758 579 21 524 21 403V381C21 368 28 361 41 361H148C161 361 168 368 168 381V419C168 458 176 470 196 470C216 470 224 458 224 419V327H139C60 327 14 280 14 175V143C14 37 56.6718 -9 144 -9C219 -9 263 24 276 90H285C307 22 350 -9 421 -9C533.7089 -9 580 63 580 208V212C580 225 573 232 560 232H456C443 232 436 225 436 212V164C436 111 427 100 406 100C383 100 375 112 375 182V270H561C574 270 581 277 581 290V355C581 507 538.1282 579 429 579C358.6949 579 323.0334 550.1315 307 487ZM406 470C428 470 436 458 436 399V344H375V399C375 459 384 470 406 470ZM192 102C175 102 166 116 166 159V188C166 234 177 253 204 253H224V158C224 115 209 102 192 102ZM306 570ZM277 622H344C355 622 362 627 367 637L416 736C423 750 416 760 401 760H320C309 760 301 755 297 744L261 645C256 631 263 622 277 622ZM306 570Z" glyph-name="aeacute" horiz-adv-x="599" unicode="&#509;" /><glyph d="M297 487C284.9814 549.096 244.8992 579 173 579C70.3758 579 21 524 21 403V381C21 368 28 361 41 361H148C161 361 168 368 168 381V419C168 458 176 470 196 470C216 470 224 458 224 419V327H139C60 327 14 280 14 175V143C14 37 56.6718 -9 144 -9C219 -9 263 24 276 90H285C307 22 350 -9 421 -9C533.7089 -9 580 63 580 208V212C580 225 573 232 560 232H456C443 232 436 225 436 212V164C436 111 427 100 406 100C383 100 375 112 375 182V270H561C574 270 581 277 581 290V355C581 507 538.1282 579 429 579C358.6949 579 323.0334 550.1315 307 487ZM406 470C428 470 436 458 436 399V344H375V399C375 459 384 470 406 470ZM192 102C175 102 166 116 166 159V188C166 234 177 253 204 253H224V158C224 115 209 102 192 102ZM306 570ZM232 649H379C392 649 399 656 399 669V720C399 733 392 740 379 740H232C219 740 212 733 212 720V669C212 656 219 649 232 649ZM306 570Z" glyph-name="aemacron" horiz-adv-x="599" unicode="&#483;" /><glyph d="M192 102C175 102 166 116 166 159V188C166 234 177 253 204 253H224V158C224 115 209 102 192 102ZM168 419C168 458 176 470 196 470C216 470 224 458 224 419V327H139C60 327 14 280 14 175V133C14 34 54 -9 124 -9C181 -9 209 18 219 70H230L243 17C246 6 253 0 265 0H370C384 0 391 9 388 22L375 90V403C375 524 317 579 198 579C79 579 21 524 21 403V381C21 368 28 361 41 361H148C161 361 168 368 168 381ZM207 0ZM392 0ZM197 570ZM226 622H159C148 622 141 627 136 637L87 736C80 750 87 760 102 760H183C194 760 202 755 206 744L242 645C247 631 240 622 226 622ZM197 570ZM197 570Z" glyph-name="agrave" horiz-adv-x="398" unicode="&#224;" /><glyph d="M256 622H189C178 622 171 627 166 637L117 736C110 750 117 760 132 760H213C224 760 232 755 236 744L272 645C277 631 270 622 256 622ZM227 570ZM227 570ZM212 470C236 470 243 457 243 379V196C243 121 236 108 212 108C188 108 181 121 181 196V379C181 457 188 470 212 470ZM239 72H254L267 17C270 6 277 0 289 0H394C408 0 415 9 412 22L399 90V550C399 563 392 570 379 570H263C250 570 243 563 243 550V513H231C224 555 196 576 146 576C66 576 20 526 20 343V227C20 44 64 -6 146 -6C202 -6 232 20 239 72ZM231 0ZM416 0ZM221 570Z" glyph-name="agrave.01" horiz-adv-x="425" /><glyph d="M192 102C175 102 166 116 166 159V188C166 234 177 253 204 253H224V158C224 115 209 102 192 102ZM168 419C168 458 176 470 196 470C216 470 224 458 224 419V327H139C60 327 14 280 14 175V133C14 34 54 -9 124 -9C181 -9 209 18 219 70H230L243 17C246 6 253 0 265 0H370C384 0 391 9 388 22L375 90V403C375 524 317 579 198 579C79 579 21 524 21 403V381C21 368 28 361 41 361H148C161 361 168 368 168 381ZM207 0ZM392 0ZM197 570ZM123 649H270C283 649 290 656 290 669V720C290 733 283 740 270 740H123C110 740 103 733 103 720V669C103 656 110 649 123 649ZM197 570Z" glyph-name="amacron" horiz-adv-x="398" unicode="&#257;" /><glyph d="M134 649H281C294 649 301 656 301 669V720C301 733 294 740 281 740H134C121 740 114 733 114 720V669C114 656 121 649 134 649ZM208 570ZM212 470C236 470 243 457 243 379V196C243 121 236 108 212 108C188 108 181 121 181 196V379C181 457 188 470 212 470ZM239 72H254L267 17C270 6 277 0 289 0H394C408 0 415 9 412 22L399 90V550C399 563 392 570 379 570H263C250 570 243 563 243 550V513H231C224 555 196 576 146 576C66 576 20 526 20 343V227C20 44 64 -6 146 -6C202 -6 232 20 239 72ZM231 0ZM416 0ZM221 570Z" glyph-name="amacron.01" horiz-adv-x="425" /><glyph d="M151 -10C209 -10 246 18 254 82H266L280 18C283 7 290 0 302 0H411C425 0 431 8 428 22L409 100V367C409 380 402 387 389 387H274C261 387 254 380 254 367V166C254 119 244 105 220 105C197 105 186 119 186 166V254C186 305 197 322 224 322H432C445 322 452 329 452 342V426C452 439 445 446 432 446H223C198 446 187 461 187 503V603C187 645 198 659 221 659C245 659 255 645 255 603V524C255 511 262 504 275 504H389C402 504 409 511 409 524V555C409 709 343.3438 770 218 770C85.3196 770 23 702 23 583V555C23 452 64 404 127 392V381C57 372 20 319 20 200V191C20 72 51 -10 151 -10Z" glyph-name="ampersand" horiz-adv-x="462" unicode="&amp;" /><glyph d="M168 419C168 458 176 470 196 470C216 470 224 458 224 419V327H139C60 327 14 280 14 175V133C14 34 54 -9 124 -9C181 -9 209 18 219 70H230L243 17C246 6 253 0 265 0H326C300 -24 276 -54 276 -84C276 -128 313 -145 354 -145H402C415 -145 422 -138 422 -125V-85C422 -72 415 -65 402 -65H389C374 -65 364 -59 364 -46C364 -35 371 -25 382 -12C389 -3 391 4 389 15L375 90V403C375 524 317 579 198 579C79 579 21 524 21 403V381C21 368 28 361 41 361H148C161 361 168 368 168 381ZM192 102C175 102 166 116 166 159V188C166 234 177 253 204 253H224V158C224 115 209 102 192 102Z" glyph-name="aogonek" horiz-adv-x="398" unicode="&#261;" /><glyph d="M239 72H254L267 17C270 6 277 0 289 0H350C324 -24 300 -54 300 -84C300 -128 337 -145 378 -145H426C439 -145 446 -138 446 -125V-85C446 -72 439 -65 426 -65H413C398 -65 388 -59 388 -46C388 -35 395 -25 406 -12C413 -3 415 4 413 15L399 90V550C399 563 392 570 379 570H263C250 570 243 563 243 550V513H231C224 555 196 576 146 576C66 576 20 526 20 343V227C20 44 64 -6 146 -6C202 -6 232 20 239 72ZM212 470C236 470 243 457 243 379V196C243 121 236 108 212 108C188 108 181 121 181 196V379C181 457 188 470 212 470Z" glyph-name="aogonek.01" horiz-adv-x="425" /><glyph d="M49 336H107C119 336 126 342 129 355C137 393 145 409 161 409C171 409 178 404 201 377C232 341 250 334 287 334C361 334 393 391 408 519C409 533 402 541 389 541H333C321 541 314 535 311 522C304 483 295 466 280 466C267 466 260 472 234 502C208 533 188 542 154 542C83 542 47 480 31 358C29 344 36 336 49 336ZM49 109H107C119 109 126 115 129 128C137 166 145 183 161 183C171 183 178 178 201 151C232 115 250 107 287 107C361 107 393 164 408 292C409 306 402 314 389 314H333C321 314 314 308 311 295C304 256 295 240 280 240C267 240 260 245 234 276C208 307 188 315 154 315C83 315 47 253 31 131C29 117 36 109 49 109Z" glyph-name="approxequal" horiz-adv-x="440" unicode="&#8776;" /><glyph d="M192 102C175 102 166 116 166 159V188C166 234 177 253 204 253H224V158C224 115 209 102 192 102ZM168 419C168 458 176 470 196 470C216 470 224 458 224 419V327H139C60 327 14 280 14 175V133C14 34 54 -9 124 -9C181 -9 209 18 219 70H230L243 17C246 6 253 0 265 0H370C384 0 391 9 388 22L375 90V403C375 524 317 579 198 579C79 579 21 524 21 403V381C21 368 28 361 41 361H148C161 361 168 368 168 381ZM207 0ZM392 0ZM197 570ZM196 622C248 622 286 652 286 702C286 752 248 783 196 783C145 783 106 752 106 702C106 652 145 622 196 622ZM196 674C179 674 168 685 168 702C168 719 179 730 196 730C213 730 225 719 225 702C225 685 213 674 196 674ZM197 570Z" glyph-name="aring" horiz-adv-x="398" unicode="&#229;" /><glyph d="M209 622C261 622 299 652 299 702C299 752 261 783 209 783C158 783 119 752 119 702C119 652 158 622 209 622ZM209 674C192 674 181 685 181 702C181 719 192 730 209 730C226 730 238 719 238 702C238 685 226 674 209 674ZM210 570ZM212 470C236 470 243 457 243 379V196C243 121 236 108 212 108C188 108 181 121 181 196V379C181 457 188 470 212 470ZM239 72H254L267 17C270 6 277 0 289 0H394C408 0 415 9 412 22L399 90V550C399 563 392 570 379 570H263C250 570 243 563 243 550V513H231C224 555 196 576 146 576C66 576 20 526 20 343V227C20 44 64 -6 146 -6C202 -6 232 20 239 72ZM231 0ZM416 0ZM221 570Z" glyph-name="aring.01" horiz-adv-x="425" /><glyph d="M403 696H280C267 696 260 689 260 676L268 323H264L132 455C123 464 113 464 104 455L30 381C21 372 21 362 30 353L327 56C336 47 346 47 355 56L653 353C662 362 662 372 653 381L579 455C570 464 560 464 551 455L419 323H415L423 676C423 689 416 696 403 696Z" glyph-name="arrowdown" horiz-adv-x="683" unicode="&#8595;" /><glyph d="M280 38H403C416 38 423 45 423 58L415 411H419L551 279C560 270 570 270 579 279L653 353C662 362 662 372 653 381L356 678C347 687 337 687 328 678L30 381C21 372 21 362 30 353L104 279C113 270 123 270 132 279L264 411H268L260 58C260 45 267 38 280 38Z" glyph-name="arrowup" horiz-adv-x="683" unicode="&#8593;" /><glyph d="M49 398H146C158 398 166 404 168 417L201 661H210L242 417C244 404 251 398 263 398H368C382 398 389 407 386 420L314 742C311 753 304 760 292 760H127C115 760 108 753 105 742L31 420C28 407 35 398 49 398Z" glyph-name="asciicircum" horiz-adv-x="417" unicode="^" /><glyph d="M36 261H103C115 261 122 267 124 280C133 327 142 345 160 345C171 345 178 339 201 309C234 268 254 260 294 260C377 260 411 323 427 468C428 482 421 490 408 490H343C331 490 323 484 321 471C313 424 303 406 287 406C273 406 266 412 239 446C212 482 189 490 152 490C73 490 34 422 17 283C16 269 23 261 36 261Z" glyph-name="asciitilde" horiz-adv-x="444" unicode="~" /><glyph d="M163 424H195C208 424 215 431 215 444V740C215 753 208 760 195 760H163C150 760 143 753 143 740V444C143 431 150 424 163 424ZM316 494 332 522C338 533 336 542 325 549L69 697C58 704 48 701 42 690L26 662C20 651 22 642 33 635L289 487C300 480 310 483 316 494ZM69 487 325 635C336 642 338 651 332 662L316 690C310 701 300 704 289 697L33 549C22 542 20 533 26 522L42 494C48 483 58 480 69 487Z" glyph-name="asterisk" horiz-adv-x="358" unicode="*" /><glyph d="M333 133C317 133 309 146 309 186V202C309 245 319 262 344 262H362V185C362 145 348 133 333 133ZM523 -45H333C182.3148 -45 127 41.498 127 202V339C127 513 181 616 340 616C491 616 545 533 545 359V228C545 140 536 120 518 120C506 120 501 131 501 167V401C501 512 448 563 338 563C228 563 176 514 176 392V382C176 369 183 362 196 362H291C304 362 311 369 311 382V412C311 451 320 462 337 462C355 462 362 453 362 422V331H284C211 331 168 287 168 190V162C168 70 205 31 270 31C335 31 367 64 379 127H390C400 63 442 31 504 31C593.3919 31 651 84 651 233V360C651 603 564.4434 716 340 716C106 716 18 578 18 339V202C18 -23.5014 107.1605 -145 332 -145H523C536 -145 543 -138 543 -125V-65C543 -52 536 -45 523 -45Z" glyph-name="at" horiz-adv-x="669" unicode="@" /><glyph d="M192 102C175 102 166 116 166 159V188C166 234 177 253 204 253H224V158C224 115 209 102 192 102ZM168 419C168 458 176 470 196 470C216 470 224 458 224 419V327H139C60 327 14 280 14 175V133C14 34 54 -9 124 -9C181 -9 209 18 219 70H230L243 17C246 6 253 0 265 0H370C384 0 391 9 388 22L375 90V403C375 524 317 579 198 579C79 579 21 524 21 403V381C21 368 28 361 41 361H148C161 361 168 368 168 381ZM207 0ZM392 0ZM197 570ZM247 620C294 620 310 654 313 724C314 747 307 760 294 760H267C255 760 248 753 246 740C244 723 240 717 230 717C220 717 213 724 206 732C193.3158 744.6842 180 762 148 762C98 762 82 724 80 643C80 629 87 622 100 622H127C139 622 146 629 148 642C151 659 155 665 165 665C175 665 182 659 188 651C199.6552 638.2852 212 620 247 620ZM197 570Z" glyph-name="atilde" horiz-adv-x="398" unicode="&#227;" /><glyph d="M270 620C317 620 333 654 336 724C337 747 330 760 317 760H290C278 760 271 753 269 740C267 723 263 717 253 717C243 717 236 724 229 732C216.3158 744.6842 203 762 171 762C121 762 105 724 103 643C103 629 110 622 123 622H150C162 622 169 629 171 642C174 659 178 665 188 665C198 665 205 659 211 651C222.6552 638.2852 235 620 270 620ZM220 570ZM212 470C236 470 243 457 243 379V196C243 121 236 108 212 108C188 108 181 121 181 196V379C181 457 188 470 212 470ZM239 72H254L267 17C270 6 277 0 289 0H394C408 0 415 9 412 22L399 90V550C399 563 392 570 379 570H263C250 570 243 563 243 550V513H231C224 555 196 576 146 576C66 576 20 526 20 343V227C20 44 64 -6 146 -6C202 -6 232 20 239 72ZM231 0ZM416 0ZM221 570Z" glyph-name="atilde.01" horiz-adv-x="425" /><glyph d="M213 470C237 470 244 457 244 379V196C244 121 237 108 213 108C189 108 182 121 182 196V379C182 457 189 470 213 470ZM46 0H154C167 0 174 7 174 20V72H186C193 20 223 -6 279 -6C361 -6 405 44 405 227V343C405 526 359 576 279 576C229 576 201 555 194 513H182V740C182 753 175 760 162 760H46C33 760 26 753 26 740V20C26 7 33 0 46 0Z" glyph-name="b" horiz-adv-x="425" unicode="b" /><glyph d="M304 0H202C190 0 183 6 180 17L5 738C2 751 9 760 23 760H126C138 760 145 754 148 743L322 22C325 9 318 0 304 0Z" glyph-name="backslash" horiz-adv-x="327" unicode="\" /><glyph d="M132 -200H157C170 -200 177 -193 177 -180V904C177 917 170 924 157 924H132C119 924 112 917 112 904V-180C112 -193 119 -200 132 -200Z" glyph-name="bar" horiz-adv-x="289" unicode="|" /><glyph d="M39 295H57C84 295 101 273 101 222V108C101 -3.4943 161 -86 287 -86H319C332 -86 339 -79 339 -66V11C339 24 332 31 319 31H316C274 31 256 64 256 126V234C256 316.336 199.9931 351.0009 144 358V366C199.9931 372.9991 256 407.664 256 490V598C256 660 274 693 316 693H319C332 693 339 700 339 713V790C339 803 332 810 319 810H287C161 810 101 727.4942 101 616V502C101 451 84 429 57 429H41C28 429 21 422 21 409V315C21 302 28 295 39 295Z" glyph-name="braceleft" horiz-adv-x="356" unicode="{" /><glyph d="M317 429H299C272 429 255 451 255 502V616C255 727.4942 195 810 69 810H37C24 810 17 803 17 790V713C17 700 24 693 37 693H40C82 693 100 660 100 598V490C100 407.664 156.0069 372.9991 212 366V358C156.0069 351.0009 100 316.336 100 234V126C100 64 82 31 40 31H37C24 31 17 24 17 11V-66C17 -79 24 -86 37 -86H69C195 -86 255 -3.4942 255 108V222C255 273 272 295 299 295H315C328 295 335 302 335 315V409C335 422 328 429 317 429Z" glyph-name="braceright" horiz-adv-x="356" unicode="}" /><glyph d="M67 -86H257C270 -86 277 -79 277 -66V11C277 24 270 31 257 31H195V693H257C270 693 277 700 277 713V790C277 803 270 810 257 810H67C54 810 47 803 47 790V-66C47 -79 54 -86 67 -86Z" glyph-name="bracketleft" horiz-adv-x="295" unicode="[" /><glyph d="M228 810H38C25 810 18 803 18 790V713C18 700 25 693 38 693H100V31H38C25 31 18 24 18 11V-66C18 -79 25 -86 38 -86H228C241 -86 248 -79 248 -66V790C248 803 241 810 228 810Z" glyph-name="bracketright" horiz-adv-x="295" unicode="]" /><glyph d="M163 624C229 624 268 652 275 732C276 750 269 760 256 760H210C198 760 190 753 189 739C187 706 179 694 163 694C148 694 140 706 139 739C138 753 130 760 118 760H70C57 760 50 753 51 739C56 653 95 624 163 624ZM162 570Z" glyph-name="breve" horiz-adv-x="326" unicode="&#728;" /><glyph d="M176 482V904C176 917 169 924 156 924H132C119 924 112 917 112 904V482C112 469 119 462 132 462H156C169 462 176 469 176 482ZM132 -200H156C169 -200 176 -193 176 -180V242C176 255 169 262 156 262H132C119 262 112 255 112 242V-180C112 -193 119 -200 132 -200Z" glyph-name="brokenbar" horiz-adv-x="288" unicode="&#166;" /><glyph d="M213 481C120 481 44 411 44 312C44 213 120 143 213 143C306 143 382 213 382 312C382 411 306 481 213 481Z" glyph-name="bullet" horiz-adv-x="426" unicode="&#8226;" /><glyph d="M234 239V167C234 110 226 100 207 100C185 100 178 113 178 186V381C178 458 185 470 207 470C226 470 234 460 234 405V339C234 326 241 319 254 319H360C373 319 380 326 380 339V367C380 508 326 579 206 579C74 579 20 503 20 318V250C20 67 74 -9 206 -9C326 -9 380 61 380 205V239C380 252 373 259 360 259H254C241 259 234 252 234 239ZM207 0ZM206 570Z" glyph-name="c" horiz-adv-x="400" unicode="c" /><glyph d="M234 239V167C234 110 226 100 207 100C185 100 178 113 178 186V381C178 458 185 470 207 470C226 470 234 460 234 405V339C234 326 241 319 254 319H360C373 319 380 326 380 339V367C380 479 347 546 275 570C197 597 161 621 161 648C161 664 173 673 213 673H524C537 673 544 680 544 693V740C544 753 537 760 524 760H180C113 760 79 728 79 680C79 626 123 596 184 587V578C68 570 20 492 20 318V250C20 67 74 -9 206 -9C326 -9 380 61 380 205V239C380 252 373 259 360 259H254C241 259 234 252 234 239ZM613 470C637 470 644 457 644 379V196C644 121 637 108 613 108C589 108 582 121 582 196V379C582 457 589 470 613 470ZM446 0H554C567 0 574 7 574 20V72H586C593 20 623 -6 679 -6C761 -6 805 44 805 227V343C805 526 759 576 679 576C629 576 601 555 594 513H582V740C582 753 575 760 562 760H446C433 760 426 753 426 740V20C426 7 433 0 446 0Z" glyph-name="c_b" horiz-adv-x="825" /><glyph d="M234 239V167C234 110 226 100 207 100C185 100 178 113 178 186V381C178 458 185 470 207 470C226 470 234 460 234 405V339C234 326 241 319 254 319H360C373 319 380 326 380 339V367C380 479 347 546 275 570C197 597 161 621 161 648C161 664 173 673 213 673H524C537 673 544 680 544 693V740C544 753 537 760 524 760H180C113 760 79 728 79 680C79 626 123 596 184 587V578C68 570 20 492 20 318V250C20 67 74 -9 206 -9C326 -9 380 61 380 205V239C380 252 373 259 360 259H254C241 259 234 252 234 239ZM661 0H777C790 0 797 7 797 20V435C797 537 753 578 687 578C633 578 606 552 595 506H583V740C583 753 576 760 563 760H447C434 760 427 753 427 740V20C427 7 434 0 447 0H563C576 0 583 7 583 20V409C583 447 594 465 615 465C632 465 641 455 641 429V20C641 7 648 0 661 0ZM612 0ZM502 760Z" glyph-name="c_h" horiz-adv-x="820" /><glyph d="M234 239V167C234 110 226 100 207 100C185 100 178 113 178 186V381C178 458 185 470 207 470C226 470 234 460 234 405V339C234 326 241 319 254 319H360C373 319 380 326 380 339V367C380 479 347 546 275 570C197 597 161 621 161 648C161 664 173 673 213 673H524C537 673 544 680 544 693V740C544 753 537 760 524 760H180C113 760 79 728 79 680C79 626 123 596 184 587V578C68 570 20 492 20 318V250C20 67 74 -9 206 -9C326 -9 380 61 380 205V239C380 252 373 259 360 259H254C241 259 234 252 234 239ZM447 0H563C576 0 583 7 583 20L581 244H596L645 18C647 7 655 0 667 0H796C810 0 817 9 813 22L735 293L810 547C814 560 807 570 793 570H669C657 570 650 564 647 553L596 339H581L583 740C583 753 576 760 563 760H447C434 760 427 753 427 740V20C427 7 434 0 447 0ZM610 0Z" glyph-name="c_k" horiz-adv-x="819" /><glyph d="M234 239V167C234 110 226 100 207 100C185 100 178 113 178 186V381C178 458 185 470 207 470C226 470 234 460 234 405V339C234 326 241 319 254 319H360C373 319 380 326 380 339V367C380 479 347 546 275 570C197 597 161 621 161 648C161 664 173 673 213 673H524C537 673 544 680 544 693V740C544 753 537 760 524 760H180C113 760 79 728 79 680C79 626 123 596 184 587V578C68 570 20 492 20 318V250C20 67 74 -9 206 -9C326 -9 380 61 380 205V239C380 252 373 259 360 259H254C241 259 234 252 234 239ZM563 760H447C434 760 427 753 427 740V20C427 7 434 0 447 0H563C576 0 583 7 583 20V740C583 753 576 760 563 760ZM506 0ZM507 760Z" glyph-name="c_l" horiz-adv-x="609" /><glyph d="M234 239V167C234 110 226 100 207 100C185 100 178 113 178 186V381C178 458 185 470 207 470C226 470 234 460 234 405V339C234 326 241 319 254 319H360C373 319 380 326 380 339V367C380 508 326 579 206 579C74 579 20 503 20 318V250C20 67 74 -9 206 -9C326 -9 380 61 380 205V239C380 252 373 259 360 259H254C241 259 234 252 234 239ZM207 0ZM206 570ZM177 622H244C255 622 262 627 267 637L316 736C323 750 316 760 301 760H220C209 760 201 755 197 744L161 645C156 631 163 622 177 622ZM206 570Z" glyph-name="cacute" horiz-adv-x="400" unicode="&#263;" /><glyph d="M266 760H211C200 760 193 756 189 744L171 690H165L147 744C143 756 136 760 125 760H70C55 760 49 751 55 737L97 637C101 626 109 622 120 622H215C226 622 235 626 239 637L281 737C287 751 281 760 266 760ZM168 812ZM169 570Z" glyph-name="caron" horiz-adv-x="336" unicode="&#711;" /><glyph d="M194 622H242C253 622 261 627 265 638L301 737C306 751 299 760 285 760H194C181 760 174 753 174 740V642C174 629 181 622 194 622ZM222 570Z" glyph-name="caron.01" horiz-adv-x="500" /><glyph d="M234 239V167C234 110 226 100 207 100C185 100 178 113 178 186V381C178 458 185 470 207 470C226 470 234 460 234 405V339C234 326 241 319 254 319H360C373 319 380 326 380 339V367C380 508 326 579 206 579C74 579 20 503 20 318V250C20 67 74 -9 206 -9C326 -9 380 61 380 205V239C380 252 373 259 360 259H254C241 259 234 252 234 239ZM207 0ZM206 570ZM303 760H248C237 760 230 756 226 744L208 690H202L184 744C180 756 173 760 162 760H107C92 760 86 751 92 737L134 637C138 626 146 622 157 622H252C263 622 272 626 276 637L318 737C324 751 318 760 303 760ZM205 812ZM206 570Z" glyph-name="ccaron" horiz-adv-x="400" unicode="&#269;" /><glyph d="M162 -145H229C285 -145 309 -116 309 -83C309 -41 281 -25 232 -25H228L232 -8C334 2 380 72 380 205V239C380 252 373 259 360 259H254C241 259 234 252 234 239V167C234 110 226 100 207 100C185 100 178 113 178 186V381C178 458 185 470 207 470C226 470 234 460 234 405V339C234 326 241 319 254 319H360C373 319 380 326 380 339V367C380 508 326 579 206 579C74 579 20 503 20 318V250C20 83 65 5 173 -7L160 -53C156 -66 162 -76 176 -76H213C228 -76 235 -79 235 -88C235 -97 228 -99 213 -99H162C149 -99 142 -106 142 -119V-125C142 -138 149 -145 162 -145Z" glyph-name="ccedilla" horiz-adv-x="400" unicode="&#231;" /><glyph d="M234 239V167C234 110 226 100 207 100C185 100 178 113 178 186V381C178 458 185 470 207 470C226 470 234 460 234 405V339C234 326 241 319 254 319H360C373 319 380 326 380 339V367C380 508 326 579 206 579C74 579 20 503 20 318V250C20 67 74 -9 206 -9C326 -9 380 61 380 205V239C380 252 373 259 360 259H254C241 259 234 252 234 239ZM207 0ZM206 570ZM108 622H163C174 622 181 626 185 638L203 692H209L227 638C231 626 238 622 249 622H304C319 622 325 631 319 645L277 745C273 756 265 760 254 760H159C148 760 139 756 135 745L93 645C87 631 93 622 108 622ZM206 570Z" glyph-name="ccircumflex" horiz-adv-x="400" unicode="&#265;" /><glyph d="M234 239V167C234 110 226 100 207 100C185 100 178 113 178 186V381C178 458 185 470 207 470C226 470 234 460 234 405V339C234 326 241 319 254 319H360C373 319 380 326 380 339V367C380 508 326 579 206 579C74 579 20 503 20 318V250C20 67 74 -9 206 -9C326 -9 380 61 380 205V239C380 252 373 259 360 259H254C241 259 234 252 234 239ZM207 0ZM206 570ZM206 643C240 643 265 665 265 702C265 740 240 760 206 760C171 760 145 740 145 702C145 665 170 643 206 643ZM206 570Z" glyph-name="cdotaccent" horiz-adv-x="400" unicode="&#267;" /><glyph d="M71 -145H138C194 -145 218 -116 218 -83C218 -41 190 -25 141 -25H137L142 -3C145 10 138 19 124 19H107C96 19 87 14 84 2L68 -54C64 -67 71 -76 85 -76H122C137 -76 144 -79 144 -88C144 -97 137 -99 122 -99H71C58 -99 51 -106 51 -119V-125C51 -138 58 -145 71 -145ZM116 0Z" glyph-name="cedilla" horiz-adv-x="268" unicode="&#184;" /><glyph d="M147 740V655C147 642 154 635 167 635H226C239 635 246 642 246 655V740C246 753 239 760 226 760H167C154 760 147 753 147 740ZM224 332V233C224 188 216 180 197 180C175 180 168 193 168 266V487C168 564 175 576 197 576C216 576 224 566 224 511V432C224 419 231 412 244 412H350C363 412 370 419 370 432V473C370 614 316 685 196 685C73 685 22 609 22 424V330C22 147 73 71 196 71C316 71 370 141 370 285V332C370 345 363 352 350 352H244C231 352 224 345 224 332ZM147 105V20C147 7 154 0 167 0H226C239 0 246 7 246 20V105C246 118 239 125 226 125H167C154 125 147 118 147 105Z" glyph-name="cent" horiz-adv-x="392" unicode="&#162;" /><glyph d="M70 622H125C136 622 143 626 147 638L165 692H171L189 638C193 626 200 622 211 622H266C281 622 287 631 281 645L239 745C235 756 227 760 216 760H121C110 760 101 756 97 745L55 645C49 631 55 622 70 622ZM168 570Z" glyph-name="circumflex" horiz-adv-x="336" unicode="&#710;" /><glyph d="M111 -8C164 -8 202 30 202 83C202 136 164 174 111 174C58 174 20 136 20 83C20 30 58 -8 111 -8ZM111 390C164 390 202 428 202 481C202 534 164 572 111 572C58 572 20 534 20 481C20 428 58 390 111 390Z" glyph-name="colon" horiz-adv-x="222" unicode=":" /><glyph d="M123 -13 45 -54C36 -59 31 -67 31 -78V-120C31 -135 41 -142 55 -134L133 -93C183 -67 200 -37 200 21V80C200 137 159 173 108 173C58.5618 173 20 137 20 85C20 35.1461 54 -2 101 -2C141 -2 173 26 181 66C184 79 175 87 162 87H143C130 87 123 80 123 67Z" glyph-name="comma" horiz-adv-x="222" unicode="," /><glyph d="M299 100C402 100 449 160 449 284V321C449 334 442 341 429 341H343C330 341 323 334 323 321V251C323 202 316 194 300 194C281 194 275 205 275 268V492C275 558 281 568 300 568C316 568 323 560 323 512V448C323 435 330 428 343 428H429C442 428 449 435 449 448V480C449 601 402 662 299 662C185 662 139 597 139 437V323C139 165 185 100 299 100ZM294 55C167 55 95 139 95 293V467C95 621 167 706 294 706C421 706 493 621 493 467V293C493 139 421 55 294 55ZM294 -10C470 -10 566 101 566 293V467C566 659 470 770 294 770C118 770 22 659 22 467V293C22 101 118 -10 294 -10Z" glyph-name="copyright" horiz-adv-x="588" unicode="&#169;" /><glyph d="M212 470C188 470 181 457 181 379V196C181 121 188 108 212 108C236 108 243 121 243 196V379C243 457 236 470 212 470ZM379 0H271C258 0 251 7 251 20V72H239C232 20 202 -6 146 -6C64 -6 20 44 20 227V343C20 526 66 576 146 576C196 576 224 555 231 513H243V740C243 753 250 760 263 760H379C392 760 399 753 399 740V20C399 7 392 0 379 0ZM454 570Z" glyph-name="d" horiz-adv-x="425" unicode="d" /><glyph d="M315 646H241V740C241 753 234 760 221 760H128C115 760 108 753 108 740V646H36C23 646 16 639 16 626V555C16 542 23 535 36 535H108V233C108 220 115 213 128 213H221C234 213 241 220 241 233V535H315C328 535 335 542 335 555V626C335 639 328 646 315 646Z" glyph-name="dagger" horiz-adv-x="351" unicode="&#8224;" /><glyph d="M136 171H229C242 171 249 178 249 191V279H323C336 279 343 286 343 299V383C343 396 336 403 323 403H249V541H323C336 541 343 548 343 561V632C343 645 336 652 323 652H249V740C249 753 242 760 229 760H136C123 760 116 753 116 740V652H44C31 652 24 645 24 632V561C24 548 31 541 44 541H116V403H44C31 403 24 396 24 383V299C24 286 31 279 44 279H116V191C116 178 123 171 136 171Z" glyph-name="daggerdbl" horiz-adv-x="367" unicode="&#8225;" /><glyph d="M212 470C188 470 181 457 181 379V196C181 121 188 108 212 108C236 108 243 121 243 196V379C243 457 236 470 212 470ZM379 0H271C258 0 251 7 251 20V72H239C232 20 202 -6 146 -6C64 -6 20 44 20 227V343C20 526 66 576 146 576C196 576 224 555 231 513H243V740C243 753 250 760 263 760H379C392 760 399 753 399 740V20C399 7 392 0 379 0ZM454 570ZM447 622H495C506 622 514 627 518 638L554 737C559 751 552 760 538 760H447C434 760 427 753 427 740V642C427 629 434 622 447 622ZM475 570Z" glyph-name="dcaron" horiz-adv-x="425" unicode="&#271;" /><glyph d="M168 476C81 476 20 533 20 618C20 704 81 760 168 760C256 760 317 704 317 618C317 533 256 476 168 476ZM168 562C198 562 221 585 221 618C221 652 198 674 168 674C138 674 116 652 116 618C116 585 138 562 168 562Z" glyph-name="degree" horiz-adv-x="337" unicode="&#176;" /><glyph d="M103 636C139 636 165 663 165 700C165 737 139 763 103 763C66 763 39 737 39 700C39 663 66 636 103 636ZM245 636C282 636 308 663 308 700C308 737 282 763 245 763C208 763 182 737 182 700C182 663 208 636 245 636ZM174 570Z" glyph-name="dieresis" horiz-adv-x="347" unicode="&#168;" /><glyph d="M48 313H404C417 313 424 320 424 333V407C424 420 417 427 404 427H48C35 427 28 420 28 407V333C28 320 35 313 48 313ZM226 476C261 476 291 502 291 541C291 580 261 606 226 606C191 606 161 580 161 541C161 502 191 476 226 476ZM226 133C261 133 291 159 291 198C291 237 261 263 226 263C191 263 161 237 161 198C161 159 191 133 226 133Z" glyph-name="divide" horiz-adv-x="452" unicode="&#247;" /><glyph d="M144 740V635C144 622 151 615 164 615H223C236 615 243 622 243 635V740C243 753 236 760 223 760H164C151 760 144 753 144 740ZM163 218V276C163 289 156 296 143 296H40C27 296 20 289 20 276V245C20 120 80 71 194 71C311 71 371 122 371 231V251C371 331 332 381 267 419L218 448C182 469 168 494 168 519V548C168 572 178 587 198 587C218 587 228 572 228 548V488C228 475 235 468 248 468H346C359 468 366 475 366 488V520C366 638 306 686 195 686C84 686 24 637 24 531V504C24 427 65 380 127 342L173 314C212 290 225 265 225 238V218C225 189 215 173 194 173C173 173 163 189 163 218ZM144 124V20C144 7 151 0 164 0H223C236 0 243 7 243 20V116C243 128 236 136 224 137L165 143C152 144 144 137 144 124Z" glyph-name="dollar" horiz-adv-x="395" unicode="$" /><glyph d="M111 643C145 643 170 665 170 702C170 740 145 760 111 760C76 760 50 740 50 702C50 665 75 643 111 643ZM111 570Z" glyph-name="dotaccent" horiz-adv-x="220" unicode="&#729;" /><glyph d="M28 550V20C28 7 35 0 48 0H164C177 0 184 7 184 20V550C184 563 177 570 164 570H48C35 570 28 563 28 550ZM107 570Z" glyph-name="dotlessi" horiz-adv-x="212" unicode="&#305;" /><glyph d="M163 632H405C418 632 425 639 425 652V690C425 703 418 710 405 710H163C150 710 143 703 143 690V652C143 639 150 632 163 632ZM212 470C236 470 243 457 243 379V196C243 121 236 108 212 108C188 108 181 121 181 196V379C181 457 188 470 212 470ZM399 20V740C399 753 392 760 379 760H263C250 760 243 753 243 740V513H231C224 555 196 576 146 576C66 576 20 526 20 343V227C20 44 64 -6 146 -6C202 -6 232 20 239 72H251V20C251 7 258 0 271 0H379C392 0 399 7 399 20Z" glyph-name="dslash" horiz-adv-x="425" unicode="&#273;" /><glyph d="M208 470C230 470 238 458 238 399V344H177V399C177 459 186 470 208 470ZM383 355C383 507 333 579 207 579C73 579 20 503 20 321V247C20 67 73 -9 207 -9C331 -9 382 63 382 208V212C382 225 375 232 362 232H258C245 232 238 225 238 212V164C238 111 229 100 208 100C185 100 177 112 177 182V270H363C376 270 383 277 383 290ZM207 0ZM272 0ZM208 570Z" glyph-name="e" horiz-adv-x="403" unicode="e" /><glyph d="M208 470C230 470 238 458 238 399V344H177V399C177 459 186 470 208 470ZM383 355C383 507 333 579 207 579C73 579 20 503 20 321V247C20 67 73 -9 207 -9C331 -9 382 63 382 208V212C382 225 375 232 362 232H258C245 232 238 225 238 212V164C238 111 229 100 208 100C185 100 177 112 177 182V270H363C376 270 383 277 383 290ZM207 0ZM272 0ZM208 570ZM179 622H246C257 622 264 627 269 637L318 736C325 750 318 760 303 760H222C211 760 203 755 199 744L163 645C158 631 165 622 179 622ZM208 570Z" glyph-name="eacute" horiz-adv-x="403" unicode="&#233;" /><glyph d="M208 470C230 470 238 458 238 399V344H177V399C177 459 186 470 208 470ZM383 355C383 507 333 579 207 579C73 579 20 503 20 321V247C20 67 73 -9 207 -9C331 -9 382 63 382 208V212C382 225 375 232 362 232H258C245 232 238 225 238 212V164C238 111 229 100 208 100C185 100 177 112 177 182V270H363C376 270 383 277 383 290ZM207 0ZM272 0ZM208 570ZM209 624C275 624 314 652 321 732C322 750 315 760 302 760H256C244 760 236 753 235 739C233 706 225 694 209 694C194 694 186 706 185 739C184 753 176 760 164 760H116C103 760 96 753 97 739C102 653 141 624 209 624ZM208 570Z" glyph-name="ebreve" horiz-adv-x="403" unicode="&#277;" /><glyph d="M208 470C230 470 238 458 238 399V344H177V399C177 459 186 470 208 470ZM383 355C383 507 333 579 207 579C73 579 20 503 20 321V247C20 67 73 -9 207 -9C331 -9 382 63 382 208V212C382 225 375 232 362 232H258C245 232 238 225 238 212V164C238 111 229 100 208 100C185 100 177 112 177 182V270H363C376 270 383 277 383 290ZM207 0ZM272 0ZM208 570ZM305 760H250C239 760 232 756 228 744L210 690H204L186 744C182 756 175 760 164 760H109C94 760 88 751 94 737L136 637C140 626 148 622 159 622H254C265 622 274 626 278 637L320 737C326 751 320 760 305 760ZM207 812ZM208 570Z" glyph-name="ecaron" horiz-adv-x="403" unicode="&#283;" /><glyph d="M208 470C230 470 238 458 238 399V344H177V399C177 459 186 470 208 470ZM383 355C383 507 333 579 207 579C73 579 20 503 20 321V247C20 67 73 -9 207 -9C331 -9 382 63 382 208V212C382 225 375 232 362 232H258C245 232 238 225 238 212V164C238 111 229 100 208 100C185 100 177 112 177 182V270H363C376 270 383 277 383 290ZM207 0ZM272 0ZM208 570ZM110 622H165C176 622 183 626 187 638L205 692H211L229 638C233 626 240 622 251 622H306C321 622 327 631 321 645L279 745C275 756 267 760 256 760H161C150 760 141 756 137 745L95 645C89 631 95 622 110 622ZM208 570Z" glyph-name="ecircumflex" horiz-adv-x="403" unicode="&#234;" /><glyph d="M208 470C230 470 238 458 238 399V344H177V399C177 459 186 470 208 470ZM383 355C383 507 333 579 207 579C73 579 20 503 20 321V247C20 67 73 -9 207 -9C331 -9 382 63 382 208V212C382 225 375 232 362 232H258C245 232 238 225 238 212V164C238 111 229 100 208 100C185 100 177 112 177 182V270H363C376 270 383 277 383 290ZM207 0ZM272 0ZM208 570ZM137 636C173 636 199 663 199 700C199 737 173 763 137 763C100 763 73 737 73 700C73 663 100 636 137 636ZM279 636C316 636 342 663 342 700C342 737 316 763 279 763C242 763 216 737 216 700C216 663 242 636 279 636ZM208 570Z" glyph-name="edieresis" horiz-adv-x="403" unicode="&#235;" /><glyph d="M208 470C230 470 238 458 238 399V344H177V399C177 459 186 470 208 470ZM383 355C383 507 333 579 207 579C73 579 20 503 20 321V247C20 67 73 -9 207 -9C331 -9 382 63 382 208V212C382 225 375 232 362 232H258C245 232 238 225 238 212V164C238 111 229 100 208 100C185 100 177 112 177 182V270H363C376 270 383 277 383 290ZM207 0ZM272 0ZM208 570ZM208 643C242 643 267 665 267 702C267 740 242 760 208 760C173 760 147 740 147 702C147 665 172 643 208 643ZM208 570Z" glyph-name="edotaccent" horiz-adv-x="403" unicode="&#279;" /><glyph d="M208 470C230 470 238 458 238 399V344H177V399C177 459 186 470 208 470ZM383 355C383 507 333 579 207 579C73 579 20 503 20 321V247C20 67 73 -9 207 -9C331 -9 382 63 382 208V212C382 225 375 232 362 232H258C245 232 238 225 238 212V164C238 111 229 100 208 100C185 100 177 112 177 182V270H363C376 270 383 277 383 290ZM207 0ZM272 0ZM208 570ZM237 622H170C159 622 152 627 147 637L98 736C91 750 98 760 113 760H194C205 760 213 755 217 744L253 645C258 631 251 622 237 622ZM208 570ZM208 570Z" glyph-name="egrave" horiz-adv-x="403" unicode="&#232;" /><glyph d="M223 648C248 648 257 634 257 593V500C257 458 247 443 223 443C199 443 189 458 189 500V593C189 634 198 648 223 648ZM223 340C250 340 260 324 260 273V175C260 129 249 115 223 115C197 115 186 129 186 175V273C186 324 196 340 223 340ZM223 -11C368 -11 428 64 428 192V217C428 318 382 373 325 390V399C369 414 418 460 418 560V582C418 702 356 771 223 771C90 771 28 702 28 582V560C28 460 78 414 122 399V390C65 373 18 318 18 217V192C18 64 78 -11 223 -11Z" glyph-name="eight" horiz-adv-x="446" unicode="8" /><glyph d="M225 648C250 648 259 634 259 593V500C259 458 249 443 225 443C201 443 191 458 191 500V593C191 634 200 648 225 648ZM225 340C252 340 262 324 262 273V175C262 129 251 115 225 115C199 115 188 129 188 175V273C188 324 198 340 225 340ZM225 -11C370 -11 430 64 430 192V217C430 318 384 373 327 390V399C371 414 420 460 420 560V582C420 702 358 771 225 771C92 771 30 702 30 582V560C30 460 80 414 124 399V390C67 373 20 318 20 217V192C20 64 80 -11 225 -11Z" glyph-name="eight.tf" horiz-adv-x="452" /><glyph d="M111 -8C164 -8 202 30 202 83C202 136 164 174 111 174C58 174 20 136 20 83C20 30 58 -8 111 -8ZM331 -8C384 -8 422 30 422 83C422 136 384 174 331 174C278 174 240 136 240 83C240 30 278 -8 331 -8ZM551 -8C604 -8 642 30 642 83C642 136 604 174 551 174C498 174 460 136 460 83C460 30 498 -8 551 -8Z" glyph-name="ellipsis" horiz-adv-x="662" unicode="&#8230;" /><glyph d="M208 470C230 470 238 458 238 399V344H177V399C177 459 186 470 208 470ZM383 355C383 507 333 579 207 579C73 579 20 503 20 321V247C20 67 73 -9 207 -9C331 -9 382 63 382 208V212C382 225 375 232 362 232H258C245 232 238 225 238 212V164C238 111 229 100 208 100C185 100 177 112 177 182V270H363C376 270 383 277 383 290ZM207 0ZM272 0ZM208 570ZM134 649H281C294 649 301 656 301 669V720C301 733 294 740 281 740H134C121 740 114 733 114 720V669C114 656 121 649 134 649ZM208 570Z" glyph-name="emacron" horiz-adv-x="403" unicode="&#275;" /><glyph d="M25 329V274C25 261 32 254 45 254H491C504 254 511 261 511 274V329C511 342 504 349 491 349H45C32 349 25 342 25 329Z" glyph-name="emdash" horiz-adv-x="536" unicode="&#8212;" /><glyph d="M25 329V274C25 261 32 254 45 254H333C346 254 353 261 353 274V329C353 342 346 349 333 349H45C32 349 25 342 25 329Z" glyph-name="endash" horiz-adv-x="378" unicode="&#8211;" /><glyph d="M240 -2C240 -20 233 -28 213 -28C203 -28 198 -35 198 -48V-125C198 -138 205 -145 218 -145H268C354 -145 396 -95 396 -12V150C396 163 389 170 376 170H260C247 170 240 163 240 150ZM260 0H376C389 0 396 7 396 20V433C396 534 353 578 284 578C227 578 198 552 186 500H174V550C174 563 167 570 154 570H46C33 570 26 563 26 550V20C26 7 33 0 46 0H162C175 0 182 7 182 20V409C182 447 193 465 214 465C231 465 240 455 240 429V20C240 7 247 0 260 0ZM211 0ZM199 570Z" glyph-name="eng" horiz-adv-x="419" unicode="&#331;" /><glyph d="M208 470C230 470 238 458 238 399V344H177V399C177 459 186 470 208 470ZM197 -9C174 -32 156 -58 156 -84C156 -128 193 -145 234 -145H282C295 -145 302 -138 302 -125V-85C302 -72 295 -65 282 -65H269C254 -65 244 -59 244 -46C244 -32 255 -20 271 -1C349 22 382 91 382 208V212C382 225 375 232 362 232H258C245 232 238 225 238 212V164C238 111 229 100 208 100C185 100 177 112 177 182V270H363C376 270 383 277 383 290V355C383 507 333 579 207 579C73 579 20 503 20 321V247C20 72 70 -5 197 -9Z" glyph-name="eogonek" horiz-adv-x="403" unicode="&#281;" /><glyph d="M48 407H404C417 407 424 414 424 427V501C424 514 417 521 404 521H48C35 521 28 514 28 501V427C28 414 35 407 48 407ZM48 218H404C417 218 424 225 424 238V312C424 325 417 332 404 332H48C35 332 28 325 28 312V238C28 225 35 218 48 218Z" glyph-name="equal" horiz-adv-x="452" unicode="=" /><glyph d="M210 100C187 100 180 113 180 188V365C180 443 187 456 210 456C233 456 240 443 240 365V188C240 113 233 100 210 100ZM56 587 359 684C370 688 375 695 375 706V746C375 760 366 768 352 763L49 665C38 661 33 654 33 643V604C33 590 42 582 56 587ZM144 565C58 565 20 488 20 304V250C20 67 76 -9 210 -9C344 -9 400 67 400 250V384C400 505 392 591 250 749C243 757 235 760 225 760H106C89 760 83 748 96 735C171 657 237 556 252 494H235C216.1059 542.7268 187 565 144 565Z" glyph-name="eth" horiz-adv-x="420" unicode="&#240;" /><glyph d="M208 470C230 470 238 458 238 399V344H177V399C177 459 186 470 208 470ZM383 355C383 507 333 579 207 579C73 579 20 503 20 321V247C20 67 73 -9 207 -9C331 -9 382 63 382 208V212C382 225 375 232 362 232H258C245 232 238 225 238 212V164C238 111 229 100 208 100C185 100 177 112 177 182V270H363C376 270 383 277 383 290ZM207 0ZM272 0ZM208 570ZM258 620C305 620 321 654 324 724C325 747 318 760 305 760H278C266 760 259 753 257 740C255 723 251 717 241 717C231 717 224 724 217 732C204.3158 744.6842 191 762 159 762C109 762 93 724 91 643C91 629 98 622 111 622H138C150 622 157 629 159 642C162 659 166 665 176 665C186 665 193 659 199 651C210.6552 638.2852 223 620 258 620ZM208 570Z" glyph-name="etilde" horiz-adv-x="403" unicode="&#7869;" /><glyph d="M148 252 192 570V740C192 753 185 760 172 760H58C45 760 38 753 38 740V570L83 251C85 238 93 233 105 233H126C138 233 146 239 148 252ZM111 -8C164 -8 202 30 202 83C202 136 164 174 111 174C58 174 20 136 20 83C20 30 58 -8 111 -8Z" glyph-name="exclam" horiz-adv-x="222" unicode="!" /><glyph d="M74 363 30 45V-125C30 -138 37 -145 50 -145H164C177 -145 184 -138 184 -125V45L139 364C137 377 129 382 117 382H96C84 382 76 376 74 363ZM111 623C58 623 20 585 20 532C20 479 58 441 111 441C164 441 202 479 202 532C202 585 164 623 111 623Z" glyph-name="exclamdown" horiz-adv-x="222" unicode="&#161;" /><glyph d="M190 760C100.7606 760 58 708.7415 58 623V570H26C13 570 6 563 6 550V473C6 460 13 453 26 453H58V20C58 7 65 0 78 0H194C207 0 214 7 214 20V453H273C286 453 293 460 293 473V550C293 563 286 570 273 570H214V621C214 636.7143 221.9444 646 240 646H270C283 646 290 653 290 666V740C290 753 283 760 270 760Z" glyph-name="f" horiz-adv-x="301" unicode="f" /><glyph d="M190 760C101 760 58 709 58 623V570H26C13 570 6 563 6 550V473C6 460 13 453 26 453H58V20C58 7 65 0 78 0H194C207 0 214 7 214 20V453H273C286 453 293 460 293 473V550C293 563 286 570 273 570H214V621C214 637 222 646 240 646H258C271 646 278 653 278 666V740C278 753 271 760 258 760Z" glyph-name="f.short" horiz-adv-x="445" /><glyph d="M245 453H386C399 453 406 460 406 473V550C406 563 399 570 386 570H245C232 570 225 563 225 550V473C225 460 232 453 245 453ZM501 470C525 470 532 457 532 379V196C532 121 525 108 501 108C477 108 470 121 470 196V379C470 457 477 470 501 470ZM334 0H442C455 0 462 7 462 20V72H474C481 20 511 -6 567 -6C649 -6 693 44 693 227V343C693 526 647 576 567 576C517 576 489 555 482 513H470V740C470 753 463 760 450 760H334C321 760 314 753 314 740V20C314 7 321 0 334 0ZM190 760C101 760 58 709 58 623V570H26C13 570 6 563 6 550V473C6 460 13 453 26 453H58V20C58 7 65 0 78 0H194C207 0 214 7 214 20V453H273C286 453 293 460 293 473V550C293 563 286 570 273 570H214V621C214 637 222 646 240 646H258C271 646 278 653 278 666V740C278 753 271 760 258 760Z" glyph-name="f_b" horiz-adv-x="713" /><glyph d="M245 453H386C399 453 406 460 406 473V550C406 563 399 570 386 570H245C232 570 225 563 225 550V473C225 460 232 453 245 453ZM446 760C356.7606 760 314 708.7415 314 623V570H282C269 570 262 563 262 550V473C262 460 269 453 282 453H314V20C314 7 321 0 334 0H450C463 0 470 7 470 20V453H529C542 453 549 460 549 473V550C549 563 542 570 529 570H470V621C470 636.7143 477.9444 646 496 646H526C539 646 546 653 546 666V740C546 753 539 760 526 760ZM190 760C101 760 58 709 58 623V570H26C13 570 6 563 6 550V473C6 460 13 453 26 453H58V20C58 7 65 0 78 0H194C207 0 214 7 214 20V453H273C286 453 293 460 293 473V550C293 563 286 570 273 570H214V621C214 637 222 646 240 646H258C271 646 278 653 278 666V740C278 753 271 760 258 760Z" glyph-name="f_f" horiz-adv-x="557" /><glyph d="M245 453H386C399 453 406 460 406 473V550C406 563 399 570 386 570H245C232 570 225 563 225 550V473C225 460 232 453 245 453ZM508 453H689C702 453 709 460 709 473V550C709 563 702 570 689 570H508C495 570 488 563 488 550V473C488 460 495 453 508 453ZM757 470C781 470 788 457 788 379V196C788 121 781 108 757 108C733 108 726 121 726 196V379C726 457 733 470 757 470ZM590 0H698C711 0 718 7 718 20V72H730C737 20 767 -6 823 -6C905 -6 949 44 949 227V343C949 526 903 576 823 576C773 576 745 555 738 513H726V740C726 753 719 760 706 760H590C577 760 570 753 570 740V20C570 7 577 0 590 0ZM190 760C101 760 58 709 58 623V570H26C13 570 6 563 6 550V473C6 460 13 453 26 453H58V20C58 7 65 0 78 0H194C207 0 214 7 214 20V453H273C286 453 293 460 293 473V550C293 563 286 570 273 570H214V621C214 637 222 646 240 646H258C271 646 278 653 278 666V740C278 753 271 760 258 760ZM446 760C357 760 314 709 314 623V570H282C269 570 262 563 262 550V473C262 460 269 453 282 453H314V20C314 7 321 0 334 0H450C463 0 470 7 470 20V453H529C542 453 549 460 549 473V550C549 563 542 570 529 570H470V621C470 637 478 646 496 646H514C527 646 534 653 534 666V740C534 753 527 760 514 760Z" glyph-name="f_f_b" horiz-adv-x="969" /><glyph d="M245 453H386C399 453 406 460 406 473V550C406 563 399 570 386 570H245C232 570 225 563 225 550V473C225 460 232 453 245 453ZM508 453H689C702 453 709 460 709 473V550C709 563 702 570 689 570H508C495 570 488 563 488 550V473C488 460 495 453 508 453ZM804 0H920C933 0 940 7 940 20V435C940 537 896 578 830 578C776 578 749 552 738 506H726V740C726 753 719 760 706 760H590C577 760 570 753 570 740V20C570 7 577 0 590 0H706C719 0 726 7 726 20V409C726 447 737 465 758 465C775 465 784 455 784 429V20C784 7 791 0 804 0ZM755 0ZM645 760ZM190 760C101 760 58 709 58 623V570H26C13 570 6 563 6 550V473C6 460 13 453 26 453H58V20C58 7 65 0 78 0H194C207 0 214 7 214 20V453H273C286 453 293 460 293 473V550C293 563 286 570 273 570H214V621C214 637 222 646 240 646H258C271 646 278 653 278 666V740C278 753 271 760 258 760ZM446 760C357 760 314 709 314 623V570H282C269 570 262 563 262 550V473C262 460 269 453 282 453H314V20C314 7 321 0 334 0H450C463 0 470 7 470 20V453H529C542 453 549 460 549 473V550C549 563 542 570 529 570H470V621C470 637 478 646 496 646H514C527 646 534 653 534 666V740C534 753 527 760 514 760Z" glyph-name="f_f_h" horiz-adv-x="963" /><glyph d="M245 453H386C399 453 406 460 406 473V550C406 563 399 570 386 570H245C232 570 225 563 225 550V473C225 460 232 453 245 453ZM508 453H689C702 453 709 460 709 473V550C709 563 702 570 689 570H508C495 570 488 563 488 550V473C488 460 495 453 508 453ZM570 550V20C570 7 577 0 590 0H706C719 0 726 7 726 20V550C726 563 719 570 706 570H590C577 570 570 563 570 550ZM648 598C697 598 733 633.7386 733 683C733 731.2759 697 767 648 767C599 767 563 731.2759 563 683C563 633.7386 599 598 648 598ZM649 0ZM726 0ZM190 760C101 760 58 709 58 623V570H26C13 570 6 563 6 550V473C6 460 13 453 26 453H58V20C58 7 65 0 78 0H194C207 0 214 7 214 20V453H273C286 453 293 460 293 473V550C293 563 286 570 273 570H214V621C214 637 222 646 240 646H258C271 646 278 653 278 666V740C278 753 271 760 258 760ZM446 760C357 760 314 709 314 623V570H282C269 570 262 563 262 550V473C262 460 269 453 282 453H314V20C314 7 321 0 334 0H450C463 0 470 7 470 20V453H529C542 453 549 460 549 473V550C549 563 542 570 529 570H470V621C470 637 478 646 496 646H514C527 646 534 653 534 666V740C534 753 527 760 514 760Z" glyph-name="f_f_i" horiz-adv-x="754" /><glyph d="M245 453H386C399 453 406 460 406 473V550C406 563 399 570 386 570H245C232 570 225 563 225 550V473C225 460 232 453 245 453ZM508 453H689C702 453 709 460 709 473V550C709 563 702 570 689 570H508C495 570 488 563 488 550V473C488 460 495 453 508 453ZM648 598C697 598 733 634 733 683C733 731 697 767 648 767C599 767 563 731 563 683C563 634 599 598 648 598ZM570 -2C570 -20 563 -28 543 -28C533 -28 528 -35 528 -48V-125C528 -138 535 -145 548 -145H598C684 -145 726 -95 726 -12V550C726 563 719 570 706 570H590C577 570 570 563 570 550ZM190 760C101 760 58 709 58 623V570H26C13 570 6 563 6 550V473C6 460 13 453 26 453H58V20C58 7 65 0 78 0H194C207 0 214 7 214 20V453H273C286 453 293 460 293 473V550C293 563 286 570 273 570H214V621C214 637 222 646 240 646H258C271 646 278 653 278 666V740C278 753 271 760 258 760ZM446 760C357 760 314 709 314 623V570H282C269 570 262 563 262 550V473C262 460 269 453 282 453H314V20C314 7 321 0 334 0H450C463 0 470 7 470 20V453H529C542 453 549 460 549 473V550C549 563 542 570 529 570H470V621C470 637 478 646 496 646H514C527 646 534 653 534 666V740C534 753 527 760 514 760Z" glyph-name="f_f_j" horiz-adv-x="754" /><glyph d="M245 453H386C399 453 406 460 406 473V550C406 563 399 570 386 570H245C232 570 225 563 225 550V473C225 460 232 453 245 453ZM445 453H586C599 453 606 460 606 473V550C606 563 599 570 586 570H445C432 570 425 563 425 550V473C425 460 432 453 445 453ZM590 0H706C719 0 726 7 726 20L724 244H739L788 18C790 7 798 0 810 0H939C953 0 960 9 956 22L878 293L953 547C957 560 950 570 936 570H812C800 570 793 564 790 553L739 339H724L726 740C726 753 719 760 706 760H590C577 760 570 753 570 740V20C570 7 577 0 590 0ZM753 0ZM190 760C101 760 58 709 58 623V570H26C13 570 6 563 6 550V473C6 460 13 453 26 453H58V20C58 7 65 0 78 0H194C207 0 214 7 214 20V453H273C286 453 293 460 293 473V550C293 563 286 570 273 570H214V621C214 637 222 646 240 646H258C271 646 278 653 278 666V740C278 753 271 760 258 760ZM446 760C357 760 314 709 314 623V570H282C269 570 262 563 262 550V473C262 460 269 453 282 453H314V20C314 7 321 0 334 0H450C463 0 470 7 470 20V453H529C542 453 549 460 549 473V550C549 563 542 570 529 570H470V621C470 637 478 646 496 646H514C527 646 534 653 534 666V740C534 753 527 760 514 760Z" glyph-name="f_f_k" horiz-adv-x="962" /><glyph d="M245 453H386C399 453 406 460 406 473V550C406 563 399 570 386 570H245C232 570 225 563 225 550V473C225 460 232 453 245 453ZM445 453H586C599 453 606 460 606 473V550C606 563 599 570 586 570H445C432 570 425 563 425 550V473C425 460 432 453 445 453ZM706 760H590C577 760 570 753 570 740V20C570 7 577 0 590 0H706C719 0 726 7 726 20V740C726 753 719 760 706 760ZM649 0ZM650 760ZM190 760C101 760 58 709 58 623V570H26C13 570 6 563 6 550V473C6 460 13 453 26 453H58V20C58 7 65 0 78 0H194C207 0 214 7 214 20V453H273C286 453 293 460 293 473V550C293 563 286 570 273 570H214V621C214 637 222 646 240 646H258C271 646 278 653 278 666V740C278 753 271 760 258 760ZM446 760C357 760 314 709 314 623V570H282C269 570 262 563 262 550V473C262 460 269 453 282 453H314V20C314 7 321 0 334 0H450C463 0 470 7 470 20V453H529C542 453 549 460 549 473V550C549 563 542 570 529 570H470V621C470 637 478 646 496 646H514C527 646 534 653 534 666V740C534 753 527 760 514 760Z" glyph-name="f_f_l" horiz-adv-x="752" /><glyph d="M245 453H386C399 453 406 460 406 473V550C406 563 399 570 386 570H245C232 570 225 563 225 550V473C225 460 232 453 245 453ZM445 453H586C599 453 606 460 606 473V550C606 563 599 570 586 570H445C432 570 425 563 425 550V473C425 460 432 453 445 453ZM787 117H753C733 117 726 125 726 143V453H787C800 453 807 460 807 473V550C807 563 800 570 787 570H726V703C726 718 715 724 702 717L586 653C576 647 572 640 572 629V570H538C525 570 518 563 518 550V473C518 460 525 453 538 453H570V133C570 50 612 0 698 0H787C800 0 807 7 807 20V97C807 110 800 117 787 117ZM705 0ZM799 570ZM190 760C101 760 58 709 58 623V570H26C13 570 6 563 6 550V473C6 460 13 453 26 453H58V20C58 7 65 0 78 0H194C207 0 214 7 214 20V453H273C286 453 293 460 293 473V550C293 563 286 570 273 570H214V621C214 637 222 646 240 646H258C271 646 278 653 278 666V740C278 753 271 760 258 760ZM446 760C357 760 314 709 314 623V570H282C269 570 262 563 262 550V473C262 460 269 453 282 453H314V20C314 7 321 0 334 0H450C463 0 470 7 470 20V453H529C542 453 549 460 549 473V550C549 563 542 570 529 570H470V621C470 637 478 646 496 646H514C527 646 534 653 534 666V740C534 753 527 760 514 760Z" glyph-name="f_f_t" horiz-adv-x="815" /><glyph d="M245 453H386C399 453 406 460 406 473V550C406 563 399 570 386 570H245C232 570 225 563 225 550V473C225 460 232 453 245 453ZM445 453H586C599 453 606 460 606 473V550C606 563 599 570 586 570H445C432 570 425 563 425 550V473C425 460 432 453 445 453ZM190 760C101 760 58 709 58 623V570H26C13 570 6 563 6 550V473C6 460 13 453 26 453H58V20C58 7 65 0 78 0H194C207 0 214 7 214 20V453H273C286 453 293 460 293 473V550C293 563 286 570 273 570H214V621C214 637 222 646 240 646H258C271 646 278 653 278 666V740C278 753 271 760 258 760ZM446 760C357 760 314 709 314 623V570H282C269 570 262 563 262 550V473C262 460 269 453 282 453H314V20C314 7 321 0 334 0H450C463 0 470 7 470 20V453H529C542 453 549 460 549 473V550C549 563 542 570 529 570H470V621C470 637 478 646 496 646H514C527 646 534 653 534 666V740C534 753 527 760 514 760ZM616 -145H817C903 -145 945 -95 945 -12V550C945 563 938 570 925 570H804C791 570 784 563 784 550V181C784 143 773 125 752 125C735 125 726 135 726 161V550C726 563 719 570 706 570H590C577 570 570 563 570 550V157C570 56 613 12 682 12C739 12 768 38 780 90H797V-2C797 -20 790 -28 770 -28H616C603 -28 596 -35 596 -48V-125C596 -138 603 -145 616 -145ZM755 570Z" glyph-name="f_f_y" horiz-adv-x="971" /><glyph d="M245 453H386C399 453 406 460 406 473V550C406 563 399 570 386 570H245C232 570 225 563 225 550V473C225 460 232 453 245 453ZM548 0H664C677 0 684 7 684 20V435C684 537 640 578 574 578C520 578 493 552 482 506H470V740C470 753 463 760 450 760H334C321 760 314 753 314 740V20C314 7 321 0 334 0H450C463 0 470 7 470 20V409C470 447 481 465 502 465C519 465 528 455 528 429V20C528 7 535 0 548 0ZM499 0ZM389 760ZM190 760C101 760 58 709 58 623V570H26C13 570 6 563 6 550V473C6 460 13 453 26 453H58V20C58 7 65 0 78 0H194C207 0 214 7 214 20V453H273C286 453 293 460 293 473V550C293 563 286 570 273 570H214V621C214 637 222 646 240 646H258C271 646 278 653 278 666V740C278 753 271 760 258 760Z" glyph-name="f_h" horiz-adv-x="707" /><glyph d="M245 453H386C399 453 406 460 406 473V550C406 563 399 570 386 570H245C232 570 225 563 225 550V473C225 460 232 453 245 453ZM392 598C441 598 477 634 477 683C477 731 441 767 392 767C343 767 307 731 307 683C307 634 343 598 392 598ZM314 -2C314 -20 307 -28 287 -28C277 -28 272 -35 272 -48V-125C272 -138 279 -145 292 -145H342C428 -145 470 -95 470 -12V550C470 563 463 570 450 570H334C321 570 314 563 314 550ZM190 760C101 760 58 709 58 623V570H26C13 570 6 563 6 550V473C6 460 13 453 26 453H58V20C58 7 65 0 78 0H194C207 0 214 7 214 20V453H273C286 453 293 460 293 473V550C293 563 286 570 273 570H214V621C214 637 222 646 240 646H258C271 646 278 653 278 666V740C278 753 271 760 258 760Z" glyph-name="f_j" horiz-adv-x="498" /><glyph d="M245 453H386C399 453 406 460 406 473V550C406 563 399 570 386 570H245C232 570 225 563 225 550V473C225 460 232 453 245 453ZM334 0H450C463 0 470 7 470 20L468 244H483L532 18C534 7 542 0 554 0H683C697 0 704 9 700 22L622 293L697 547C701 560 694 570 680 570H556C544 570 537 564 534 553L483 339H468L470 740C470 753 463 760 450 760H334C321 760 314 753 314 740V20C314 7 321 0 334 0ZM497 0ZM190 760C101 760 58 709 58 623V570H26C13 570 6 563 6 550V473C6 460 13 453 26 453H58V20C58 7 65 0 78 0H194C207 0 214 7 214 20V453H273C286 453 293 460 293 473V550C293 563 286 570 273 570H214V621C214 637 222 646 240 646H258C271 646 278 653 278 666V740C278 753 271 760 258 760Z" glyph-name="f_k" horiz-adv-x="706" /><glyph d="M245 453H386C399 453 406 460 406 473V550C406 563 399 570 386 570H245C232 570 225 563 225 550V473C225 460 232 453 245 453ZM190 760C101 760 58 709 58 623V570H26C13 570 6 563 6 550V473C6 460 13 453 26 453H58V20C58 7 65 0 78 0H194C207 0 214 7 214 20V453H273C286 453 293 460 293 473V550C293 563 286 570 273 570H214V621C214 637 222 646 240 646H258C271 646 278 653 278 666V740C278 753 271 760 258 760ZM442 570H334C321 570 314 563 314 550V20C314 7 321 0 334 0H450C463 0 470 7 470 20V345L569 421C578 428 581 435 581 445V555C581 572 571 578 557 567L470 500H462V550C462 563 455 570 442 570ZM392 0ZM443 570Z" glyph-name="f_r" horiz-adv-x="591" /><glyph d="M245 453H386C399 453 406 460 406 473V550C406 563 399 570 386 570H245C232 570 225 563 225 550V473C225 460 232 453 245 453ZM531 117H497C477 117 470 125 470 143V453H531C544 453 551 460 551 473V550C551 563 544 570 531 570H470V703C470 718 459 724 446 717L330 653C320 647 316 640 316 629V570H282C269 570 262 563 262 550V473C262 460 269 453 282 453H314V133C314 50 356 0 442 0H531C544 0 551 7 551 20V97C551 110 544 117 531 117ZM449 0ZM543 570ZM190 760C101 760 58 709 58 623V570H26C13 570 6 563 6 550V473C6 460 13 453 26 453H58V20C58 7 65 0 78 0H194C207 0 214 7 214 20V453H273C286 453 293 460 293 473V550C293 563 286 570 273 570H214V621C214 637 222 646 240 646H258C271 646 278 653 278 666V740C278 753 271 760 258 760Z" glyph-name="f_t" horiz-adv-x="559" /><glyph d="M245 453H386C399 453 406 460 406 473V550C406 563 399 570 386 570H245C232 570 225 563 225 550V473C225 460 232 453 245 453ZM190 760C101 760 58 709 58 623V570H26C13 570 6 563 6 550V473C6 460 13 453 26 453H58V20C58 7 65 0 78 0H194C207 0 214 7 214 20V453H273C286 453 293 460 293 473V550C293 563 286 570 273 570H214V621C214 637 222 646 240 646H258C271 646 278 653 278 666V740C278 753 271 760 258 760ZM684 90V550C684 563 677 570 664 570H548C535 570 528 563 528 550V161C528 123 517 105 496 105C479 105 470 115 470 141V550C470 563 463 570 450 570H334C321 570 314 563 314 550V137C314 36 357 -8 426 -8C483 -8 512 18 524 70H536L549 17C552 6 559 0 571 0H679C693 0 700 9 697 22ZM488 0ZM701 0ZM500 570Z" glyph-name="f_u" horiz-adv-x="710" /><glyph d="M245 453H386C399 453 406 460 406 473V550C406 563 399 570 386 570H245C232 570 225 563 225 550V473C225 460 232 453 245 453ZM190 760C101 760 58 709 58 623V570H26C13 570 6 563 6 550V473C6 460 13 453 26 453H58V20C58 7 65 0 78 0H194C207 0 214 7 214 20V453H273C286 453 293 460 293 473V550C293 563 286 570 273 570H214V621C214 637 222 646 240 646H258C271 646 278 653 278 666V740C278 753 271 760 258 760ZM360 -145H561C647 -145 689 -95 689 -12V550C689 563 682 570 669 570H548C535 570 528 563 528 550V181C528 143 517 125 496 125C479 125 470 135 470 161V550C470 563 463 570 450 570H334C321 570 314 563 314 550V157C314 56 357 12 426 12C483 12 512 38 524 90H541V-2C541 -20 534 -28 514 -28H360C347 -28 340 -35 340 -48V-125C340 -138 347 -145 360 -145ZM499 570Z" glyph-name="f_y" horiz-adv-x="715" /><glyph d="M245 453H386C399 453 406 460 406 473V550C406 563 399 570 386 570H245C232 570 225 563 225 550V473C225 460 232 453 245 453ZM314 550V20C314 7 321 0 334 0H450C463 0 470 7 470 20V550C470 563 463 570 450 570H334C321 570 314 563 314 550ZM392 598C441 598 477 633.7386 477 683C477 731.2759 441 767 392 767C343 767 307 731.2759 307 683C307 633.7386 343 598 392 598ZM393 0ZM470 0ZM190 760C101 760 58 709 58 623V570H26C13 570 6 563 6 550V473C6 460 13 453 26 453H58V20C58 7 65 0 78 0H194C207 0 214 7 214 20V453H273C286 453 293 460 293 473V550C293 563 286 570 273 570H214V621C214 637 222 646 240 646H258C271 646 278 653 278 666V740C278 753 271 760 258 760Z" glyph-name="fi" horiz-adv-x="498" unicode="&#64257;" /><glyph d="M177 188V247C177 260 170 267 157 267H42C29 267 22 260 22 247V229C22 58 80 -10 212 -10C349 -10 411 61 411 236V277C411 433 367 497 283 497C227.5657 497 197.9914 469.9676 185 421H173L177 628H376C389 628 396 635 396 648V740C396 753 389 760 376 760H60C47 760 40 753 40 740L33 347C33 334 40 327 53 327H151C163 327 170 333 174 344C181 365 191 377 211 377C239 377 247 361 247 310V188C247 138 239 120 212 120C185 120 177 138 177 188Z" glyph-name="five" horiz-adv-x="430" unicode="5" /><glyph d="M187 188V247C187 260 180 267 167 267H52C39 267 32 260 32 247V229C32 58 90 -10 222 -10C359 -10 421 61 421 236V277C421 433 377 497 293 497C237.5657 497 207.9914 469.9676 195 421H183L187 628H386C399 628 406 635 406 648V740C406 753 399 760 386 760H70C57 760 50 753 50 740L43 347C43 334 50 327 63 327H161C173 327 180 333 184 344C191 365 201 377 221 377C249 377 257 361 257 310V188C257 138 249 120 222 120C195 120 187 138 187 188Z" glyph-name="five.tf" horiz-adv-x="452" /><glyph d="M245 453H386C399 453 406 460 406 473V550C406 563 399 570 386 570H245C232 570 225 563 225 550V473C225 460 232 453 245 453ZM450 760H334C321 760 314 753 314 740V20C314 7 321 0 334 0H450C463 0 470 7 470 20V740C470 753 463 760 450 760ZM393 0ZM394 760ZM190 760C101 760 58 709 58 623V570H26C13 570 6 563 6 550V473C6 460 13 453 26 453H58V20C58 7 65 0 78 0H194C207 0 214 7 214 20V453H273C286 453 293 460 293 473V550C293 563 286 570 273 570H214V621C214 637 222 646 240 646H258C271 646 278 653 278 666V740C278 753 271 760 258 760Z" glyph-name="fl" horiz-adv-x="496" unicode="&#64258;" /><glyph d="M228 760C139 760 96 709 96 623V570H41C28 570 21 563 21 550V473C21 460 28 453 41 453H96V220C96 207 103 200 116 200H232C245 200 252 207 252 220V453H361C374 453 381 460 381 473V550C381 563 374 570 361 570H252V621C252 637 260 646 278 646H358C371 646 378 653 378 666V740C378 753 371 760 358 760ZM96 221V139C96 123 88 114 70 114H40C27 114 20 107 20 94V20C20 7 27 0 40 0H120C209 0 252 51 252 137V221C252 234 245 241 232 241H116C103 241 96 234 96 221Z" glyph-name="florin" horiz-adv-x="405" unicode="&#402;" /><glyph d="M406 157H432C445 157 452 164 452 177V269C452 282 445 289 432 289H406V438C406 451 399 458 386 458H268C255 458 248 451 248 438V289H171L289 738C293 751 286 760 272 760H139C127 760 120 754 117 743L23 369C21 361 20 354 20 345V177C20 164 27 157 40 157H246V20C246 7 253 0 266 0H386C399 0 406 7 406 20Z" glyph-name="four" horiz-adv-x="470" unicode="4" /><glyph d="M396 157H422C435 157 442 164 442 177V269C442 282 435 289 422 289H396V438C396 451 389 458 376 458H258C245 458 238 451 238 438V289H161L279 738C283 751 276 760 262 760H129C117 760 110 754 107 743L13 369C11 361 10 354 10 345V177C10 164 17 157 30 157H236V20C236 7 243 0 256 0H376C389 0 396 7 396 20Z" glyph-name="four.tf" horiz-adv-x="452" /><glyph d="M213 463C237 463 244 450 244 372V220C244 145 237 132 213 132C189 132 182 145 182 220V372C182 450 189 463 213 463ZM244 -2C244 -20 237 -28 217 -28H84C71 -28 64 -35 64 -48V-125C64 -138 71 -145 84 -145H271C357 -145 399 -95 399 -12V550C399 563 392 570 379 570H272C259 570 252 563 252 550V500H240C232 550 203 576 147 576C67 576 20 527 20 347V254C20 74 65 24 147 24C196 24 224 44 232 89H244ZM188 -40ZM227 570Z" glyph-name="g" horiz-adv-x="425" unicode="g" /><glyph d="M531 598C580 598 616 634 616 683C616 731 580 767 531 767C482 767 446 731 446 683C446 634 482 598 531 598ZM453 -12C453 -23 449 -28 436 -28C426 -28 421 -35 421 -48V-125C421 -138 428 -145 441 -145H491C570 -145 609 -99 609 -22V550C609 563 602 570 589 570H473C460 570 453 563 453 550ZM213 463C237 463 244 450 244 372V220C244 145 237 132 213 132C189 132 182 145 182 220V372C182 450 189 463 213 463ZM244 -2C244 -20 237 -28 217 -28H84C71 -28 64 -35 64 -48V-125C64 -138 71 -145 84 -145H271C357 -145 399 -95 399 -12V550C399 563 392 570 379 570H272C259 570 252 563 252 550V500H240C232 550 203 576 147 576C67 576 20 527 20 347V254C20 74 65 24 147 24C196 24 224 44 232 89H244ZM188 -40ZM227 570Z" glyph-name="g_j" horiz-adv-x="637" /><glyph d="M213 463C237 463 244 450 244 372V220C244 145 237 132 213 132C189 132 182 145 182 220V372C182 450 189 463 213 463ZM244 -2C244 -20 237 -28 217 -28H84C71 -28 64 -35 64 -48V-125C64 -138 71 -145 84 -145H271C357 -145 399 -95 399 -12V550C399 563 392 570 379 570H272C259 570 252 563 252 550V500H240C232 550 203 576 147 576C67 576 20 527 20 347V254C20 74 65 24 147 24C196 24 224 44 232 89H244ZM188 -40ZM227 570ZM228 624C294 624 333 652 340 732C341 750 334 760 321 760H275C263 760 255 753 254 739C252 706 244 694 228 694C213 694 205 706 204 739C203 753 195 760 183 760H135C122 760 115 753 116 739C121 653 160 624 228 624ZM227 570Z" glyph-name="gbreve" horiz-adv-x="425" unicode="&#287;" /><glyph d="M213 463C237 463 244 450 244 372V220C244 145 237 132 213 132C189 132 182 145 182 220V372C182 450 189 463 213 463ZM244 -2C244 -20 237 -28 217 -28H84C71 -28 64 -35 64 -48V-125C64 -138 71 -145 84 -145H271C357 -145 399 -95 399 -12V550C399 563 392 570 379 570H272C259 570 252 563 252 550V500H240C232 550 203 576 147 576C67 576 20 527 20 347V254C20 74 65 24 147 24C196 24 224 44 232 89H244ZM188 -40ZM227 570ZM324 760H269C258 760 251 756 247 744L229 690H223L205 744C201 756 194 760 183 760H128C113 760 107 751 113 737L155 637C159 626 167 622 178 622H273C284 622 293 626 297 637L339 737C345 751 339 760 324 760ZM226 812ZM227 570Z" glyph-name="gcaron" horiz-adv-x="425" unicode="&#487;" /><glyph d="M213 463C237 463 244 450 244 372V220C244 145 237 132 213 132C189 132 182 145 182 220V372C182 450 189 463 213 463ZM244 -2C244 -20 237 -28 217 -28H84C71 -28 64 -35 64 -48V-125C64 -138 71 -145 84 -145H271C357 -145 399 -95 399 -12V550C399 563 392 570 379 570H272C259 570 252 563 252 550V500H240C232 550 203 576 147 576C67 576 20 527 20 347V254C20 74 65 24 147 24C196 24 224 44 232 89H244ZM188 -40ZM227 570ZM129 622H184C195 622 202 626 206 638L224 692H230L248 638C252 626 259 622 270 622H325C340 622 346 631 340 645L298 745C294 756 286 760 275 760H180C169 760 160 756 156 745L114 645C108 631 114 622 129 622ZM227 570Z" glyph-name="gcircumflex" horiz-adv-x="425" unicode="&#285;" /><glyph d="M213 463C237 463 244 450 244 372V220C244 145 237 132 213 132C189 132 182 145 182 220V372C182 450 189 463 213 463ZM244 -2C244 -20 237 -28 217 -28H84C71 -28 64 -35 64 -48V-125C64 -138 71 -145 84 -145H271C357 -145 399 -95 399 -12V550C399 563 392 570 379 570H272C259 570 252 563 252 550V500H240C232 550 203 576 147 576C67 576 20 527 20 347V254C20 74 65 24 147 24C196 24 224 44 232 89H244ZM188 -40ZM227 570ZM227 643C261 643 286 665 286 702C286 740 261 760 227 760C192 760 166 740 166 702C166 665 191 643 227 643ZM227 570Z" glyph-name="gdotaccent" horiz-adv-x="425" unicode="&#289;" /><glyph d="M228 0C368.6061 0 420 74 420 202V212C420 318 373 373 313 386V395C360 408 413 455 413 559V579C413 695 350.9545 770 218 770C92.9539 770 26 708.8732 26 553V20C26 7 33 0 46 0H162C175 0 182 7 182 20V601C182 646 192.1539 661 218 661C243.8461 661 254 646 254 601V510C254 468 244.8333 453 224 453C211 453 204 446 204 433V343C204 330 211 323 222 323C244.7368 323 254 306 254 255V187C254 140 244.8333 126 224 126C211 126 204 119 204 106V20C204 7 211 0 224 0Z" glyph-name="germandbls" horiz-adv-x="440" unicode="&#223;" /><glyph d="M194 622H127C116 622 109 627 104 637L55 736C48 750 55 760 70 760H151C162 760 170 755 174 744L210 645C215 631 208 622 194 622ZM165 570ZM165 570Z" glyph-name="grave" horiz-adv-x="263" unicode="`" /><glyph d="M29 537V458C29 446 36 439 47 436L318 374V364L47 303C36 300 29 293 29 281V202C29 188 39 182 52 186L395 285C406 288 412 297 412 308V430C412 441 406 450 395 453L52 553C39 557 29 551 29 537Z" glyph-name="greater" horiz-adv-x="441" unicode="&gt;" /><glyph d="M406 76H53C40 76 33 83 33 96V167C33 180 40 187 53 187H406C419 187 426 180 426 167V96C426 83 419 76 406 76ZM39 229V308C39 320 46 327 57 330L328 392V402L57 463C46 466 39 473 39 485V564C39 578 49 584 62 580L405 481C416 478 422 469 422 458V336C422 325 416 316 405 313L62 213C49 209 39 215 39 229Z" glyph-name="greaterequal" horiz-adv-x="458" unicode="&#8805;" /><glyph d="M142 298V304L224 483C230 497 224 506 209 506H122C111 506 104 502 99 491L16 315C12 305 12 297 16 287L99 111C104 100 111 96 122 96H209C224 96 230 105 224 119ZM323 298V304L405 483C411 497 405 506 390 506H303C292 506 285 502 280 491L197 315C193 305 193 297 197 287L280 111C285 100 292 96 303 96H390C405 96 411 105 405 119Z" glyph-name="guillemotleft" horiz-adv-x="427" unicode="&#171;" /><glyph d="M285 304V298L203 119C197 105 203 96 218 96H305C316 96 323 100 328 111L411 287C415 297 415 305 411 315L328 491C323 502 316 506 305 506H218C203 506 197 497 203 483ZM104 304V298L22 119C16 105 22 96 37 96H124C135 96 142 100 147 111L230 287C234 297 234 305 230 315L147 491C142 502 135 506 124 506H37C22 506 16 497 22 483Z" glyph-name="guillemotright" horiz-adv-x="427" unicode="&#187;" /><glyph d="M142 298V304L224 483C230 497 224 506 209 506H122C111 506 104 502 99 491L16 315C12 305 12 297 16 287L99 111C104 100 111 96 122 96H209C224 96 230 105 224 119Z" glyph-name="guilsinglleft" horiz-adv-x="246" unicode="&#8249;" /><glyph d="M102 304V298L20 119C14 105 20 96 35 96H122C133 96 140 100 145 111L228 287C232 297 232 305 228 315L145 491C140 502 133 506 122 506H35C20 506 14 497 20 483Z" glyph-name="guilsinglright" horiz-adv-x="246" unicode="&#8250;" /><glyph d="M260 0H376C389 0 396 7 396 20V435C396 537 352 578 286 578C232 578 205 552 194 506H182V740C182 753 175 760 162 760H46C33 760 26 753 26 740V20C26 7 33 0 46 0H162C175 0 182 7 182 20V409C182 447 193 465 214 465C231 465 240 455 240 429V20C240 7 247 0 260 0ZM211 0ZM101 760Z" glyph-name="h" horiz-adv-x="419" unicode="h" /><glyph d="M20 632H262C275 632 282 639 282 652V690C282 703 275 710 262 710H20C7 710 0 703 0 690V652C0 639 7 632 20 632ZM260 0H376C389 0 396 7 396 20V435C396 537 352 578 286 578C232 578 205 552 194 506H182V740C182 753 175 760 162 760H46C33 760 26 753 26 740V20C26 7 33 0 46 0H162C175 0 182 7 182 20V409C182 447 193 465 214 465C231 465 240 455 240 429V20C240 7 247 0 260 0ZM211 0ZM101 760Z" glyph-name="hbar" horiz-adv-x="410" unicode="&#295;" /><glyph d="M260 0H376C389 0 396 7 396 20V435C396 537 352 578 286 578C232 578 205 552 194 506H182V740C182 753 175 760 162 760H46C33 760 26 753 26 740V20C26 7 33 0 46 0H162C175 0 182 7 182 20V409C182 447 193 465 214 465C231 465 240 455 240 429V20C240 7 247 0 260 0ZM211 0ZM101 760ZM3 812H58C69 812 76 816 80 828L98 882H104L122 828C126 816 133 812 144 812H199C214 812 220 821 214 835L172 935C168 946 160 950 149 950H54C43 950 34 946 30 935L-12 835C-18 821 -12 812 3 812ZM101 760Z" glyph-name="hcircumflex" horiz-adv-x="419" unicode="&#293;" /><glyph d="M68 622H110C121 622 130 626 134 637L176 737C182 751 176 760 161 760H105C94 760 86 755 83 744L51 645C47 631 54 622 68 622ZM188 622H230C241 622 250 626 254 637L296 737C302 751 296 760 281 760H224C213 760 205 754 202 743L171 645C167 631 174 622 188 622ZM146 570Z" glyph-name="hungarumlaut" horiz-adv-x="350" unicode="&#733;" /><glyph d="M25 329V274C25 261 32 254 45 254H219C232 254 239 261 239 274V329C239 342 232 349 219 349H45C32 349 25 342 25 329Z" glyph-name="hyphen" horiz-adv-x="264" unicode="-" /><glyph d="M28 550V20C28 7 35 0 48 0H164C177 0 184 7 184 20V550C184 563 177 570 164 570H48C35 570 28 563 28 550ZM106 598C155 598 191 633.7386 191 683C191 731.2759 155 767 106 767C57 767 21 731.2759 21 683C21 633.7386 57 598 106 598ZM107 0ZM184 0Z" glyph-name="i" horiz-adv-x="212" unicode="i" /><glyph d="M28 550V20C28 7 35 0 48 0H164C177 0 184 7 184 20V550C184 563 177 570 164 570H48C35 570 28 563 28 550ZM107 570ZM78 622H145C156 622 163 627 168 637L217 736C224 750 217 760 202 760H121C110 760 102 755 98 744L62 645C57 631 64 622 78 622ZM107 570Z" glyph-name="iacute" horiz-adv-x="212" unicode="&#237;" /><glyph d="M28 550V20C28 7 35 0 48 0H164C177 0 184 7 184 20V550C184 563 177 570 164 570H48C35 570 28 563 28 550ZM107 570ZM108 624C174 624 213 652 220 732C221 750 214 760 201 760H155C143 760 135 753 134 739C132 706 124 694 108 694C93 694 85 706 84 739C83 753 75 760 63 760H15C2 760 -5 753 -4 739C1 653 40 624 108 624ZM107 570Z" glyph-name="ibreve" horiz-adv-x="212" unicode="&#301;" /><glyph d="M28 550V20C28 7 35 0 48 0H164C177 0 184 7 184 20V550C184 563 177 570 164 570H48C35 570 28 563 28 550ZM107 570ZM204 760H149C138 760 131 756 127 744L109 690H103L85 744C81 756 74 760 63 760H8C-7 760 -13 751 -7 737L35 637C39 626 47 622 58 622H153C164 622 173 626 177 637L219 737C225 751 219 760 204 760ZM106 812ZM107 570Z" glyph-name="icaron" horiz-adv-x="212" unicode="&#464;" /><glyph d="M28 550V20C28 7 35 0 48 0H164C177 0 184 7 184 20V550C184 563 177 570 164 570H48C35 570 28 563 28 550ZM107 570ZM9 622H64C75 622 82 626 86 638L104 692H110L128 638C132 626 139 622 150 622H205C220 622 226 631 220 645L178 745C174 756 166 760 155 760H60C49 760 40 756 36 745L-6 645C-12 631 -6 622 9 622ZM107 570Z" glyph-name="icircumflex" horiz-adv-x="212" unicode="&#238;" /><glyph d="M28 550V20C28 7 35 0 48 0H164C177 0 184 7 184 20V550C184 563 177 570 164 570H48C35 570 28 563 28 550ZM107 570ZM36 636C72 636 98 663 98 700C98 737 72 763 36 763C-1 763 -28 737 -28 700C-28 663 -1 636 36 636ZM178 636C215 636 241 663 241 700C241 737 215 763 178 763C141 763 115 737 115 700C115 663 141 636 178 636ZM107 570Z" glyph-name="idieresis" horiz-adv-x="212" unicode="&#239;" /><glyph d="M28 550V20C28 7 35 0 48 0H164C177 0 184 7 184 20V550C184 563 177 570 164 570H48C35 570 28 563 28 550ZM107 570ZM107 643C141 643 166 665 166 702C166 740 141 760 107 760C72 760 46 740 46 702C46 665 71 643 107 643ZM107 570Z" glyph-name="idotaccent" horiz-adv-x="212" /><glyph d="M28 550V20C28 7 35 0 48 0H164C177 0 184 7 184 20V550C184 563 177 570 164 570H48C35 570 28 563 28 550ZM107 570ZM136 622H69C58 622 51 627 46 637L-3 736C-10 750 -3 760 12 760H93C104 760 112 755 116 744L152 645C157 631 150 622 136 622ZM107 570ZM107 570Z" glyph-name="igrave" horiz-adv-x="212" unicode="&#236;" /><glyph d="M28 550V20C28 7 35 0 48 0H164C177 0 184 7 184 20V550C184 563 177 570 164 570H48C35 570 28 563 28 550ZM107 570ZM33 649H180C193 649 200 656 200 669V720C200 733 193 740 180 740H33C20 740 13 733 13 720V669C13 656 20 649 33 649ZM107 570Z" glyph-name="imacron" horiz-adv-x="212" unicode="&#299;" /><glyph d="M106 598C155 598 191 634 191 683C191 731 155 767 106 767C57 767 21 731 21 683C21 634 57 598 106 598ZM28 550V20C28 7 35 0 48 0H118C92 -24 68 -54 68 -84C68 -128 105 -145 146 -145H194C207 -145 214 -138 214 -125V-85C214 -72 207 -65 194 -65H181C166 -65 156 -59 156 -46C156 -35 163 -25 175 -11C181 -3 184 4 184 14V550C184 563 177 570 164 570H48C35 570 28 563 28 550Z" glyph-name="iogonek" horiz-adv-x="212" unicode="&#303;" /><glyph d="M28 550V20C28 7 35 0 48 0H164C177 0 184 7 184 20V550C184 563 177 570 164 570H48C35 570 28 563 28 550ZM107 570ZM157 620C204 620 220 654 223 724C224 747 217 760 204 760H177C165 760 158 753 156 740C154 723 150 717 140 717C130 717 123 724 116 732C103.3158 744.6842 90 762 58 762C8 762 -8 724 -10 643C-10 629 -3 622 10 622H37C49 622 56 629 58 642C61 659 65 665 75 665C85 665 92 659 98 651C109.6552 638.2852 122 620 157 620ZM107 570Z" glyph-name="itilde" horiz-adv-x="212" unicode="&#297;" /><glyph d="M106 598C155 598 191 634 191 683C191 731 155 767 106 767C57 767 21 731 21 683C21 634 57 598 106 598ZM28 -2C28 -20 21 -28 1 -28C-9 -28 -14 -35 -14 -48V-125C-14 -138 -7 -145 6 -145H56C142 -145 184 -95 184 -12V550C184 563 177 570 164 570H48C35 570 28 563 28 550Z" glyph-name="j" horiz-adv-x="212" unicode="j" /><glyph d="M316 598C365 598 401 634 401 683C401 731 365 767 316 767C267 767 231 731 231 683C231 634 267 598 316 598ZM238 -12C238 -23 234 -28 221 -28C211 -28 206 -35 206 -48V-125C206 -138 213 -145 226 -145H276C355 -145 394 -99 394 -22V550C394 563 387 570 374 570H258C245 570 238 563 238 550ZM106 598C155 598 191 634 191 683C191 731 155 767 106 767C57 767 21 731 21 683C21 634 57 598 106 598ZM28 -2C28 -20 21 -28 1 -28C-9 -28 -14 -35 -14 -48V-125C-14 -138 -7 -145 6 -145H56C142 -145 184 -95 184 -12V550C184 563 177 570 164 570H48C35 570 28 563 28 550Z" glyph-name="j_j" horiz-adv-x="422" /><glyph d="M28 -2C28 -20 21 -28 1 -28C-9 -28 -14 -35 -14 -48V-125C-14 -138 -7 -145 6 -145H56C142 -145 184 -95 184 -12V550C184 563 177 570 164 570H48C35 570 28 563 28 550ZM107 570ZM78 622H145C156 622 163 627 168 637L217 736C224 750 217 760 202 760H121C110 760 102 755 98 744L62 645C57 631 64 622 78 622ZM107 570Z" glyph-name="jacute" horiz-adv-x="212" /><glyph d="M28 -2C28 -20 21 -28 1 -28C-9 -28 -14 -35 -14 -48V-125C-14 -138 -7 -145 6 -145H56C142 -145 184 -95 184 -12V550C184 563 177 570 164 570H48C35 570 28 563 28 550ZM107 570ZM9 622H64C75 622 82 626 86 638L104 692H110L128 638C132 626 139 622 150 622H205C220 622 226 631 220 645L178 745C174 756 166 760 155 760H60C49 760 40 756 36 745L-6 645C-12 631 -6 622 9 622ZM107 570Z" glyph-name="jcircumflex" horiz-adv-x="212" unicode="&#309;" /><glyph d="M46 0H162C175 0 182 7 182 20L180 244H195L244 18C246 7 254 0 266 0H395C409 0 416 9 412 22L334 293L409 547C413 560 406 570 392 570H268C256 570 249 564 246 553L195 339H180L182 740C182 753 175 760 162 760H46C33 760 26 753 26 740V20C26 7 33 0 46 0ZM209 0Z" glyph-name="k" horiz-adv-x="418" unicode="k" /><glyph d="M46 0H162C175 0 182 7 182 20L180 244H195L244 18C246 7 254 0 266 0H395C409 0 416 9 412 22L334 293L409 547C413 560 406 570 392 570H268C256 570 249 564 246 553L195 339H180L182 550C182 563 175 570 162 570H46C33 570 26 563 26 550V20C26 7 33 0 46 0Z" glyph-name="kgreenlandic" horiz-adv-x="422" unicode="&#312;" /><glyph d="M162 760H46C33 760 26 753 26 740V20C26 7 33 0 46 0H162C175 0 182 7 182 20V740C182 753 175 760 162 760ZM105 0ZM106 760Z" glyph-name="l" horiz-adv-x="208" unicode="l" /><glyph d="M162 760H46C33 760 26 753 26 740V20C26 7 33 0 46 0H162C175 0 182 7 182 20V740C182 753 175 760 162 760ZM105 0ZM106 760ZM77 812H144C155 812 162 817 167 827L216 926C223 940 216 950 201 950H120C109 950 101 945 97 934L61 835C56 821 63 812 77 812ZM106 760Z" glyph-name="lacute" horiz-adv-x="208" unicode="&#314;" /><glyph d="M162 760H46C33 760 26 753 26 740V20C26 7 33 0 46 0H162C175 0 182 7 182 20V740C182 753 175 760 162 760ZM105 0ZM106 760ZM232 622H280C291 622 299 627 303 638L339 737C344 751 337 760 323 760H232C219 760 212 753 212 740V642C212 629 219 622 232 622ZM260 570Z" glyph-name="lcaron" horiz-adv-x="208" unicode="&#318;" /><glyph d="M162 760H46C33 760 26 753 26 740V20C26 7 33 0 46 0H162C175 0 182 7 182 20V740C182 753 175 760 162 760ZM105 0ZM106 760ZM265.6123 287.6856C307.4452 287.6856 337.4386 317.679 337.4386 359.5119C337.4386 401.3448 307.4452 431.3382 265.6123 431.3382C223.7794 431.3382 193.786 401.3448 193.786 359.5119C193.786 317.679 223.7794 287.6856 265.6123 287.6856Z" glyph-name="ldot" horiz-adv-x="346" unicode="&#320;" /><glyph d="M412 201V280C412 292 405 299 394 302L123 364V374L394 435C405 438 412 445 412 457V536C412 550 402 556 389 552L46 453C35 450 29 441 29 430V308C29 297 35 288 46 285L389 185C402 181 412 187 412 201Z" glyph-name="less" horiz-adv-x="441" unicode="&lt;" /><glyph d="M53 76H406C419 76 426 83 426 96V167C426 180 419 187 406 187H53C40 187 33 180 33 167V96C33 83 40 76 53 76ZM420 229V308C420 320 413 327 402 330L131 392V402L402 463C413 466 420 473 420 485V564C420 578 410 584 397 580L54 481C43 478 37 469 37 458V336C37 325 43 316 54 313L397 213C410 209 420 215 420 229Z" glyph-name="lessequal" horiz-adv-x="458" unicode="&#8804;" /><glyph d="M48 291H404C417 291 424 298 424 311V384C424 397 417 404 404 404H48C35 404 28 397 28 384V311C28 298 35 291 48 291ZM424 169V372C424 385 417 392 404 392H327C314 392 307 385 307 372V169C307 156 314 149 327 149H404C417 149 424 156 424 169Z" glyph-name="logicalnot" horiz-adv-x="452" unicode="&#172;" /><glyph d="M32 270 237 412C246 418 250 426 250 436V550C250 566 240 573 226 563L21 421C12 415 8 407 8 397V283C8 267 18 260 32 270ZM187 760H71C58 760 51 753 51 740V20C51 7 58 0 71 0H187C200 0 207 7 207 20V740C207 753 200 760 187 760ZM130 0ZM131 760Z" glyph-name="lslash" horiz-adv-x="258" unicode="&#322;" /><glyph d="M46 0H158C171 0 178 7 178 20V409C178 447 188 465 207 465C225 465 234 455 234 429V20C234 7 241 0 254 0H365C378 0 385 7 385 20V415C386 448 396 465 415 465C433 465 442 455 442 429V20C442 7 449 0 462 0H573C586 0 593 7 593 20V434C593 535 551 578 484 578C428 578 398 549 385 500H373C360 554 327 578 277 578C222 578 193 552 181 499H169V550C169 563 162 570 149 570H46C33 570 26 563 26 550V20C26 7 33 0 46 0ZM313 570Z" glyph-name="m" horiz-adv-x="616" unicode="m" /><glyph d="M70 649H217C230 649 237 656 237 669V720C237 733 230 740 217 740H70C57 740 50 733 50 720V669C50 656 57 649 70 649ZM144 570Z" glyph-name="macron" horiz-adv-x="287" unicode="&#175;" /><glyph d="M48 313H404C417 313 424 320 424 333V407C424 420 417 427 404 427H48C35 427 28 420 28 407V333C28 320 35 313 48 313Z" glyph-name="minus" horiz-adv-x="452" unicode="&#8722;" /><glyph d="M43 -145H151C164 -145 171 -138 171 -125V196C171 209 164 216 151 216H43C30 216 23 209 23 196V-125C23 -138 30 -145 43 -145ZM393 90V550C393 563 386 570 373 570H257C244 570 237 563 237 550V161C237 123 226 105 205 105C188 105 179 115 179 141V550C179 563 172 570 159 570H43C30 570 23 563 23 550V137C23 36 66 -8 135 -8C192 -8 221 18 233 70H245L258 17C261 6 268 0 280 0H388C402 0 409 9 406 22ZM197 0ZM410 0ZM209 570Z" glyph-name="mu" horiz-adv-x="419" unicode="&#956;" /><glyph d="M126 198 390 462C399 471 399 481 390 490L338 542C329 551 319 551 310 542L46 278C37 269 37 259 46 250L98 198C107 189 117 189 126 198ZM390 278 126 542C117 551 107 551 98 542L46 490C37 481 37 471 46 462L310 198C319 189 329 189 338 198L390 250C399 259 399 269 390 278Z" glyph-name="multiply" horiz-adv-x="437" unicode="&#215;" /><glyph d="M260 0H376C389 0 396 7 396 20V433C396 534 353 578 284 578C227 578 198 552 186 500H174V550C174 563 167 570 154 570H46C33 570 26 563 26 550V20C26 7 33 0 46 0H162C175 0 182 7 182 20V409C182 447 193 465 214 465C231 465 240 455 240 429V20C240 7 247 0 260 0ZM211 0ZM199 570Z" glyph-name="n" horiz-adv-x="419" unicode="n" /><glyph d="M260 0H376C389 0 396 7 396 20V433C396 534 353 578 284 578C227 578 198 552 186 500H174V550C174 563 167 570 154 570H46C33 570 26 563 26 550V20C26 7 33 0 46 0H162C175 0 182 7 182 20V409C182 447 193 465 214 465C231 465 240 455 240 429V20C240 7 247 0 260 0ZM211 0ZM199 570ZM170 622H237C248 622 255 627 260 637L309 736C316 750 309 760 294 760H213C202 760 194 755 190 744L154 645C149 631 156 622 170 622ZM199 570Z" glyph-name="nacute" horiz-adv-x="419" unicode="&#324;" /><glyph d="M260 0H376C389 0 396 7 396 20V433C396 534 353 578 284 578C227 578 198 552 186 500H174V550C174 563 167 570 154 570H46C33 570 26 563 26 550V20C26 7 33 0 46 0H162C175 0 182 7 182 20V409C182 447 193 465 214 465C231 465 240 455 240 429V20C240 7 247 0 260 0ZM211 0ZM199 570ZM296 760H241C230 760 223 756 219 744L201 690H195L177 744C173 756 166 760 155 760H100C85 760 79 751 85 737L127 637C131 626 139 622 150 622H245C256 622 265 626 269 637L311 737C317 751 311 760 296 760ZM198 812ZM199 570Z" glyph-name="ncaron" horiz-adv-x="419" unicode="&#328;" /><glyph d="M219 643C245 643 255 624 255 582V460C255 418 245 399 219 399C193 399 183 418 183 460V582C183 624 193 643 219 643ZM185 188V215C185 228 178 235 165 235H49C36 235 29 228 29 215V214C29 56 88 -9 218 -9C359 -9 421 75 421 282V476C421 685 355 772 218 772C81 772 20 689 20 546V473C20 343 68 279 147 279C199 279 230 309 242 360H253V188C253 135 245 121 219 121C193 121 185 135 185 188Z" glyph-name="nine" horiz-adv-x="442" unicode="9" /><glyph d="M224 643C250 643 260 624 260 582V460C260 418 250 399 224 399C198 399 188 418 188 460V582C188 624 198 643 224 643ZM190 188V215C190 228 183 235 170 235H54C41 235 34 228 34 215V214C34 56 93 -9 223 -9C364 -9 426 75 426 282V476C426 685 360 772 223 772C86 772 25 689 25 546V473C25 343 73 279 152 279C204 279 235 309 247 360H258V188C258 135 250 121 224 121C198 121 190 135 190 188Z" glyph-name="nine.tf" horiz-adv-x="452" /><glyph d="M215 161 353 571C358 585 351 594 337 594H259C248 594 241 589 237 578L99 168C94 154 101 145 115 145H192C203 145 211 150 215 161ZM48 407H404C417 407 424 414 424 427V501C424 514 417 521 404 521H48C35 521 28 514 28 501V427C28 414 35 407 48 407ZM48 218H404C417 218 424 225 424 238V312C424 325 417 332 404 332H48C35 332 28 325 28 312V238C28 225 35 218 48 218Z" glyph-name="notequal" horiz-adv-x="452" unicode="&#8800;" /><glyph d="M260 0H376C389 0 396 7 396 20V433C396 534 353 578 284 578C227 578 198 552 186 500H174V550C174 563 167 570 154 570H46C33 570 26 563 26 550V20C26 7 33 0 46 0H162C175 0 182 7 182 20V409C182 447 193 465 214 465C231 465 240 455 240 429V20C240 7 247 0 260 0ZM211 0ZM199 570ZM249 620C296 620 312 654 315 724C316 747 309 760 296 760H269C257 760 250 753 248 740C246 723 242 717 232 717C222 717 215 724 208 732C195.3158 744.6842 182 762 150 762C100 762 84 724 82 643C82 629 89 622 102 622H129C141 622 148 629 150 642C153 659 157 665 167 665C177 665 184 659 190 651C201.6552 638.2852 214 620 249 620ZM199 570Z" glyph-name="ntilde" horiz-adv-x="419" unicode="&#241;" /><glyph d="M57 0H134C146 0 153 6 155 18L282 738C284 751 277 760 264 760H187C175 760 168 754 166 742L39 22C37 9 44 0 57 0ZM237 0H314C326 0 333 6 335 18L462 738C464 751 457 760 444 760H367C355 760 348 754 346 742L219 22C217 9 224 0 237 0ZM69 377 475 487C486 490 492 498 492 510V586C492 600 483 607 470 603L64 493C53 490 47 482 47 470V394C47 380 56 373 69 377ZM36 160 442 270C453 273 459 281 459 293V369C459 383 450 390 437 386L31 276C20 273 14 265 14 253V177C14 163 23 156 36 160Z" glyph-name="numbersign" horiz-adv-x="506" unicode="#" /><glyph d="M210 -9C344 -9 400 67 400 250V318C400 502 343 579 210 579C77 579 20 502 20 318V250C20 67 76 -9 210 -9ZM210 100C187 100 180 113 180 188V379C180 457 187 470 210 470C233 470 240 457 240 379V188C240 113 233 100 210 100ZM210 0ZM275 0ZM210 570Z" glyph-name="o" horiz-adv-x="420" unicode="o" /><glyph d="M210 -9C344 -9 400 67 400 250V318C400 502 343 579 210 579C77 579 20 502 20 318V250C20 67 76 -9 210 -9ZM210 100C187 100 180 113 180 188V379C180 457 187 470 210 470C233 470 240 457 240 379V188C240 113 233 100 210 100ZM210 0ZM275 0ZM210 570ZM181 622H248C259 622 266 627 271 637L320 736C327 750 320 760 305 760H224C213 760 205 755 201 744L165 645C160 631 167 622 181 622ZM210 570Z" glyph-name="oacute" horiz-adv-x="420" unicode="&#243;" /><glyph d="M210 -9C344 -9 400 67 400 250V318C400 502 343 579 210 579C77 579 20 502 20 318V250C20 67 76 -9 210 -9ZM210 100C187 100 180 113 180 188V379C180 457 187 470 210 470C233 470 240 457 240 379V188C240 113 233 100 210 100ZM210 0ZM275 0ZM210 570ZM211 624C277 624 316 652 323 732C324 750 317 760 304 760H258C246 760 238 753 237 739C235 706 227 694 211 694C196 694 188 706 187 739C186 753 178 760 166 760H118C105 760 98 753 99 739C104 653 143 624 211 624ZM210 570Z" glyph-name="obreve" horiz-adv-x="420" unicode="&#335;" /><glyph d="M210 -9C344 -9 400 67 400 250V318C400 502 343 579 210 579C77 579 20 502 20 318V250C20 67 76 -9 210 -9ZM210 100C187 100 180 113 180 188V379C180 457 187 470 210 470C233 470 240 457 240 379V188C240 113 233 100 210 100ZM210 0ZM275 0ZM210 570ZM307 760H252C241 760 234 756 230 744L212 690H206L188 744C184 756 177 760 166 760H111C96 760 90 751 96 737L138 637C142 626 150 622 161 622H256C267 622 276 626 280 637L322 737C328 751 322 760 307 760ZM209 812ZM210 570Z" glyph-name="ocaron" horiz-adv-x="420" unicode="&#466;" /><glyph d="M210 -9C344 -9 400 67 400 250V318C400 502 343 579 210 579C77 579 20 502 20 318V250C20 67 76 -9 210 -9ZM210 100C187 100 180 113 180 188V379C180 457 187 470 210 470C233 470 240 457 240 379V188C240 113 233 100 210 100ZM210 0ZM275 0ZM210 570ZM112 622H167C178 622 185 626 189 638L207 692H213L231 638C235 626 242 622 253 622H308C323 622 329 631 323 645L281 745C277 756 269 760 258 760H163C152 760 143 756 139 745L97 645C91 631 97 622 112 622ZM210 570Z" glyph-name="ocircumflex" horiz-adv-x="420" unicode="&#244;" /><glyph d="M210 -9C344 -9 400 67 400 250V318C400 502 343 579 210 579C77 579 20 502 20 318V250C20 67 76 -9 210 -9ZM210 100C187 100 180 113 180 188V379C180 457 187 470 210 470C233 470 240 457 240 379V188C240 113 233 100 210 100ZM210 0ZM275 0ZM210 570ZM139 636C175 636 201 663 201 700C201 737 175 763 139 763C102 763 75 737 75 700C75 663 102 636 139 636ZM281 636C318 636 344 663 344 700C344 737 318 763 281 763C244 763 218 737 218 700C218 663 244 636 281 636ZM210 570Z" glyph-name="odieresis" horiz-adv-x="420" unicode="&#246;" /><glyph d="M326 69C339 16 376 -9 444 -9C558 -9 605 63 605 208V212C605 225 598 232 585 232H481C468 232 461 225 461 212V164C461 111 452 100 431 100C408 100 400 112 400 182V270H586C599 270 606 277 606 290V355C606 507 560 579 444 579C378 579 339 554 326 500H316C302 554 262 579 196 579C72.8 579 20 502 20 318V250C20 67 71.8222 -9 196 -9C265 -9 302 16 316 69ZM210 100C187 100 180 113 180 188V379C180 457 187 470 210 470C233 470 240 457 240 379V188C240 113 233 100 210 100ZM431 470C453 470 461 458 461 399V344H400V399C400 459 409 470 431 470Z" glyph-name="oe" horiz-adv-x="624" unicode="&#339;" /><glyph d="M91 -9C68 -32 50 -58 50 -84C50 -128 87 -145 128 -145H176C189 -145 196 -138 196 -125V-85C196 -72 189 -65 176 -65H163C148 -65 138 -59 138 -46C138 -38 142 -30 148 -22C157 -9 152 1 136 1H115C105 1 98 -2 91 -9ZM166 0Z" glyph-name="ogonek" horiz-adv-x="247" unicode="&#731;" /><glyph d="M210 -9C344 -9 400 67 400 250V318C400 502 343 579 210 579C77 579 20 502 20 318V250C20 67 76 -9 210 -9ZM210 100C187 100 180 113 180 188V379C180 457 187 470 210 470C233 470 240 457 240 379V188C240 113 233 100 210 100ZM210 0ZM275 0ZM210 570ZM239 622H172C161 622 154 627 149 637L100 736C93 750 100 760 115 760H196C207 760 215 755 219 744L255 645C260 631 253 622 239 622ZM210 570ZM210 570Z" glyph-name="ograve" horiz-adv-x="420" unicode="&#242;" /><glyph d="M210 -9C344 -9 400 67 400 250V318C400 502 343 579 210 579C77 579 20 502 20 318V250C20 67 76 -9 210 -9ZM210 100C187 100 180 113 180 188V379C180 457 187 470 210 470C233 470 240 457 240 379V188C240 113 233 100 210 100ZM210 0ZM275 0ZM210 570ZM132 622H174C185 622 194 626 198 637L240 737C246 751 240 760 225 760H169C158 760 150 755 147 744L115 645C111 631 118 622 132 622ZM252 622H294C305 622 314 626 318 637L360 737C366 751 360 760 345 760H288C277 760 269 754 266 743L235 645C231 631 238 622 252 622ZM210 570Z" glyph-name="ohungarumlaut" horiz-adv-x="420" unicode="&#337;" /><glyph d="M210 -9C344 -9 400 67 400 250V318C400 502 343 579 210 579C77 579 20 502 20 318V250C20 67 76 -9 210 -9ZM210 100C187 100 180 113 180 188V379C180 457 187 470 210 470C233 470 240 457 240 379V188C240 113 233 100 210 100ZM210 0ZM275 0ZM210 570ZM136 649H283C296 649 303 656 303 669V720C303 733 296 740 283 740H136C123 740 116 733 116 720V669C116 656 123 649 136 649ZM210 570Z" glyph-name="omacron" horiz-adv-x="420" unicode="&#333;" /><glyph d="M123 750 34 661C27 654 24 647 24 637V506C24 488 37 483 49 496L128 578H133V20C133 7 140 0 153 0H286C299 0 306 7 306 20V740C306 753 299 760 286 760H147C137 760 130 757 123 750Z" glyph-name="one" horiz-adv-x="342" unicode="1" /><glyph d="M51 0H396C409 0 416 7 416 20V112C416 125 409 132 396 132H51C38 132 31 125 31 112V20C31 7 38 0 51 0ZM130 750 41 661C34 654 31 647 31 637V506C31 488 44 483 56 496L135 578H140V20C140 7 147 0 160 0H293C306 0 313 7 313 20V740C313 753 306 760 293 760H154C144 760 137 757 130 750Z" glyph-name="one.tf" horiz-adv-x="452" /><glyph d="M210 -9C344 -9 400 67 400 250V318C400 502 343 579 210 579C77 579 20 502 20 318V250C20 67 76 -9 210 -9ZM210 100C187 100 180 113 180 188V379C180 457 187 470 210 470C233 470 240 457 240 379V188C240 113 233 100 210 100ZM210 0ZM275 0ZM210 570ZM200 -9C177 -32 159 -58 159 -84C159 -128 196 -145 237 -145H285C298 -145 305 -138 305 -125V-85C305 -72 298 -65 285 -65H272C257 -65 247 -59 247 -46C247 -38 251 -30 257 -22C266 -9 261 1 245 1H224C214 1 207 -2 200 -9ZM275 0Z" glyph-name="oogonek" horiz-adv-x="420" unicode="&#491;" /><glyph d="M38 0H54C65 0 73 5 78 14L396 546C404 559 398 570 382 570H366C355 570 347 565 342 556L24 24C16 11 22 0 38 0ZM210 -9C344 -9 400 67 400 250V318C400 502 343 579 210 579C77 579 20 502 20 318V250C20 67 76 -9 210 -9ZM210 100C187 100 180 113 180 188V379C180 457 187 470 210 470C233 470 240 457 240 379V188C240 113 233 100 210 100ZM210 0ZM275 0ZM210 570ZM210 570Z" glyph-name="oslash" horiz-adv-x="420" unicode="&#248;" /><glyph d="M38 0H54C65 0 73 5 78 14L396 546C404 559 398 570 382 570H366C355 570 347 565 342 556L24 24C16 11 22 0 38 0ZM210 -9C344 -9 400 67 400 250V318C400 502 343 579 210 579C77 579 20 502 20 318V250C20 67 76 -9 210 -9ZM210 100C187 100 180 113 180 188V379C180 457 187 470 210 470C233 470 240 457 240 379V188C240 113 233 100 210 100ZM210 0ZM275 0ZM210 570ZM210 570ZM181 622H248C259 622 266 627 271 637L320 736C327 750 320 760 305 760H224C213 760 205 755 201 744L165 645C160 631 167 622 181 622ZM210 570Z" glyph-name="oslashacute" horiz-adv-x="420" unicode="&#511;" /><glyph d="M210 -9C344 -9 400 67 400 250V318C400 502 343 579 210 579C77 579 20 502 20 318V250C20 67 76 -9 210 -9ZM210 100C187 100 180 113 180 188V379C180 457 187 470 210 470C233 470 240 457 240 379V188C240 113 233 100 210 100ZM210 0ZM275 0ZM210 570ZM260 620C307 620 323 654 326 724C327 747 320 760 307 760H280C268 760 261 753 259 740C257 723 253 717 243 717C233 717 226 724 219 732C206.3158 744.6842 193 762 161 762C111 762 95 724 93 643C93 629 100 622 113 622H140C152 622 159 629 161 642C164 659 168 665 178 665C188 665 195 659 201 651C212.6552 638.2852 225 620 260 620ZM210 570Z" glyph-name="otilde" horiz-adv-x="420" unicode="&#245;" /><glyph d="M213 100C189 100 182 113 182 191V374C182 449 189 462 213 462C237 462 244 449 244 374V191C244 113 237 100 213 100ZM26 550V-125C26 -138 33 -145 46 -145H162C175 -145 182 -138 182 -125V57H194C201 15 229 -6 279 -6C359 -6 405 44 405 227V343C405 526 361 576 279 576C223 576 193 550 186 498H174V550C174 563 167 570 154 570H46C33 570 26 563 26 550Z" glyph-name="p" horiz-adv-x="425" unicode="p" /><glyph d="M218 0H297C310 0 317 7 317 20V647H361V20C361 7 368 0 381 0H460C473 0 480 7 480 20V740C480 753 473 760 460 760H162C70 760 18 697 18 581V463C18 348.1698 72 284 164 284H198V20C198 7 205 0 218 0ZM180 397C157 397 150 410 150 485V556C150 634 157 647 180 647H198V397Z" glyph-name="paragraph" horiz-adv-x="510" unicode="&#182;" /><glyph d="M187 -106H298C314 -106 319 -96 310 -82C234 24 182 180 182 342C182 504 234 659 310 766C320 780 314 790 298 790H187C177 790 169 787 162 779C79 685 25 522 25 342C25 163 79 0 162 -95C169 -103 177 -106 187 -106Z" glyph-name="parenleft" horiz-adv-x="329" unicode="(" /><glyph d="M142 790H31C15 790 10 780 19 766C95 660 147 504 147 342C147 180 95 25 19 -82C9 -96 15 -106 31 -106H142C152 -106 160 -103 167 -95C250 -1 304 162 304 342C304 521 250 684 167 779C160 787 152 790 142 790Z" glyph-name="parenright" horiz-adv-x="329" unicode=")" /><glyph d="M348 450H429C440 450 449 455 453 465L573 737C579 751 572 760 557 760H459C448 760 440 754 436 744L332 473C327 459 333 450 348 450ZM99 0H197C208 0 216 6 220 16L324 288C329 302 323 311 308 311H227C216 311 207 306 203 296L83 23C77 9 84 0 99 0ZM165 333C266 333 308 390 308 526V576C308 713 265 770 165 770C65 770 22 713 22 576V526C22 390 65 333 165 333ZM165 417C145 417 139 427 139 483V618C139 676 145 686 165 686C186 686 191 676 191 618V483C191 427 186 417 165 417ZM491 -10C592 -10 634 47 634 183V233C634 370 591 427 491 427C391 427 348 370 348 233V183C348 47 391 -10 491 -10ZM491 74C470 74 465 84 465 140V275C465 333 470 343 491 343C512 343 517 333 517 275V140C517 84 512 74 491 74Z" glyph-name="percent" horiz-adv-x="656" unicode="%" /><glyph d="M111 -8C164 -8 202 30 202 83C202 136 164 174 111 174C58 174 20 136 20 83C20 30 58 -8 111 -8Z" glyph-name="period" horiz-adv-x="222" unicode="." /><glyph d="M111 235C164 235 202 273 202 326C202 379 164 417 111 417C58 417 20 379 20 326C20 273 58 235 111 235Z" glyph-name="periodcentered" horiz-adv-x="203" unicode="&#183;" /><glyph d="M801 -10C902 -10 944 47 944 183V233C944 370 901 427 801 427C701 427 658 370 658 233V183C658 47 701 -10 801 -10ZM801 74C780 74 775 84 775 140V275C775 333 780 343 801 343C822 343 827 333 827 275V140C827 84 822 74 801 74ZM348 450H429C440 450 449 455 453 465L573 737C579 751 572 760 557 760H459C448 760 440 754 436 744L332 473C327 459 333 450 348 450ZM99 0H197C208 0 216 6 220 16L324 288C329 302 323 311 308 311H227C216 311 207 306 203 296L83 23C77 9 84 0 99 0ZM165 333C266 333 308 390 308 526V576C308 713 265 770 165 770C65 770 22 713 22 576V526C22 390 65 333 165 333ZM165 417C145 417 139 427 139 483V618C139 676 145 686 165 686C186 686 191 676 191 618V483C191 427 186 417 165 417ZM491 -10C592 -10 634 47 634 183V233C634 370 591 427 491 427C391 427 348 370 348 233V183C348 47 391 -10 491 -10ZM491 74C470 74 465 84 465 140V275C465 333 470 343 491 343C512 343 517 333 517 275V140C517 84 512 74 491 74Z" glyph-name="perthousand" horiz-adv-x="966" unicode="&#8240;" /><glyph d="M48 313H404C417 313 424 320 424 333V407C424 420 417 427 404 427H48C35 427 28 420 28 407V333C28 320 35 313 48 313ZM285 191V548C285 561 278 568 265 568H187C174 568 167 561 167 548V191C167 178 174 171 187 171H265C278 171 285 178 285 191Z" glyph-name="plus" horiz-adv-x="452" unicode="+" /><glyph d="M48 336H404C417 336 424 343 424 356V430C424 443 417 450 404 450H48C35 450 28 443 28 430V356C28 343 35 336 48 336ZM285 250V535C285 548 278 555 265 555H187C174 555 167 548 167 535V250C167 237 174 230 187 230H265C278 230 285 237 285 250ZM48 76H404C417 76 424 83 424 96V168C424 181 417 188 404 188H48C35 188 28 181 28 168V96C28 83 35 76 48 76Z" glyph-name="plusminus" horiz-adv-x="452" unicode="&#177;" /><glyph d="M212 100C236 100 243 113 243 191V374C243 449 236 462 212 462C188 462 181 449 181 374V191C181 113 188 100 212 100ZM399 550V-125C399 -138 392 -145 379 -145H263C250 -145 243 -138 243 -125V57H231C224 15 196 -6 146 -6C66 -6 20 44 20 227V343C20 526 64 576 146 576C202 576 232 550 239 498H251V550C251 563 258 570 271 570H379C392 570 399 563 399 550Z" glyph-name="q" horiz-adv-x="425" unicode="q" /><glyph d="M175 230H225C238 230 245 237 245 250V251C245 281 255 301 278 340L314 400C342 447 372 487 372 572V595C372 707 305 770 195 770C84 770 22 707 22 595V505C22 492 29 485 42 485H146C159 485 166 492 166 505V595C166 647 174 660 194 660C214 660 222 647 222 595V577C222 531 215 508 199 462L177 400C161 355 155 333 155 290V250C155 237 162 230 175 230ZM202 -8C255 -8 293 30 293 83C293 136 255 174 202 174C149 174 111 136 111 83C111 30 149 -8 202 -8Z" glyph-name="question" horiz-adv-x="392" unicode="?" /><glyph d="M217 532H167C154 532 147 525 147 512V511C147 481 137 461 114 422L78 362C50 315 20 275 20 190V167C20 55 87 -8 197 -8C308 -8 370 55 370 167V257C370 270 363 277 350 277H246C233 277 226 270 226 257V167C226 115 218 102 198 102C178 102 170 115 170 167V185C170 231 177 254 193 300L215 362C231 407 237 429 237 472V512C237 525 230 532 217 532ZM190 770C137 770 99 732 99 679C99 626 137 588 190 588C243 588 281 626 281 679C281 732 243 770 190 770Z" glyph-name="questiondown" horiz-adv-x="392" unicode="&#191;" /><glyph d="M69 396H136C148 396 156 403 157 415L182 739C183 753 176 760 163 760H41C28 760 21 753 22 739L48 415C49 403 57 396 69 396ZM261 396H328C340 396 348 403 349 415L374 739C375 753 368 760 355 760H233C220 760 213 753 214 739L240 415C241 403 249 396 261 396Z" glyph-name="quotedbl" horiz-adv-x="396" unicode="&quot;" /><glyph d="M333 -7 255 -48C246 -53 241 -61 241 -72V-114C241 -129 251 -136 265 -128L343 -87C393 -61 410 -31 410 27V86C410 143 369 179 318 179C268.5618 179 230 143 230 91C230 41.1461 264 4 311 4C351 4 383 32 391 72C394 85 385 93 372 93H353C340 93 333 86 333 73ZM123 -7 45 -48C36 -53 31 -61 31 -72V-114C31 -129 41 -136 55 -128L133 -87C183 -61 200 -31 200 27V86C200 143 159 179 108 179C58.5618 179 20 143 20 91C20 41.1461 54 4 101 4C141 4 173 32 181 72C184 85 175 93 162 93H143C130 93 123 86 123 73Z" glyph-name="quotedblbase" horiz-adv-x="432" unicode="&#8222;" /><glyph d="M99 636 177 677C186 682 191 690 191 701V743C191 758 181 765 167 757L89 716C39 690 22 660 22 602V543C22 486 63 450 114 450C163.4382 450 202 486 202 538C202 587.8539 168 625 121 625C81 625 49 597 41 557C38 544 47 536 60 536H79C92 536 99 543 99 556ZM309 636 387 677C396 682 401 690 401 701V743C401 758 391 765 377 757L299 716C249 690 232 660 232 602V543C232 486 273 450 324 450C373.4382 450 412 486 412 538C412 587.8539 378 625 331 625C291 625 259 597 251 557C248 544 257 536 270 536H289C302 536 309 543 309 556Z" glyph-name="quotedblleft" horiz-adv-x="432" unicode="&#8220;" /><glyph d="M333 581 255 540C246 535 241 527 241 516V474C241 459 251 452 265 460L343 501C393 527 410 557 410 615V674C410 731 369 767 318 767C268.5618 767 230 731 230 679C230 629.1461 264 592 311 592C351 592 383 620 391 660C394 673 385 681 372 681H353C340 681 333 674 333 661ZM123 581 45 540C36 535 31 527 31 516V474C31 459 41 452 55 460L133 501C183 527 200 557 200 615V674C200 731 159 767 108 767C58.5618 767 20 731 20 679C20 629.1461 54 592 101 592C141 592 173 620 181 660C184 673 175 681 162 681H143C130 681 123 674 123 661Z" glyph-name="quotedblright" horiz-adv-x="432" unicode="&#8221;" /><glyph d="M99 636 177 677C186 682 191 690 191 701V743C191 758 181 765 167 757L89 716C39 690 22 660 22 602V543C22 486 63 450 114 450C163.4382 450 202 486 202 538C202 587.8539 168 625 121 625C81 625 49 597 41 557C38 544 47 536 60 536H79C92 536 99 543 99 556Z" glyph-name="quoteleft" horiz-adv-x="222" unicode="&#8216;" /><glyph d="M123 581 45 540C36 535 31 527 31 516V474C31 459 41 452 55 460L133 501C183 527 200 557 200 615V674C200 731 159 767 108 767C58.5618 767 20 731 20 679C20 629.1461 54 592 101 592C141 592 173 620 181 660C184 673 175 681 162 681H143C130 681 123 674 123 661Z" glyph-name="quoteright" horiz-adv-x="222" unicode="&#8217;" /><glyph d="M123 -13 45 -54C36 -59 31 -67 31 -78V-120C31 -135 41 -142 55 -134L133 -93C183 -67 200 -37 200 21V80C200 137 159 173 108 173C58.5618 173 20 137 20 85C20 35.1461 54 -2 101 -2C141 -2 173 26 181 66C184 79 175 87 162 87H143C130 87 123 80 123 67Z" glyph-name="quotesinglbase" horiz-adv-x="222" unicode="&#8218;" /><glyph d="M69 396H136C148 396 156 403 157 415L182 739C183 753 176 760 163 760H41C28 760 21 753 22 739L48 415C49 403 57 396 69 396Z" glyph-name="quotesingle" horiz-adv-x="204" unicode="'" /><glyph d="M154 570H46C33 570 26 563 26 550V20C26 7 33 0 46 0H162C175 0 182 7 182 20V345L281 421C290 428 293 435 293 445V555C293 572 283 578 269 567L182 500H174V550C174 563 167 570 154 570ZM104 0ZM155 570Z" glyph-name="r" horiz-adv-x="303" unicode="r" /><glyph d="M154 570H46C33 570 26 563 26 550V20C26 7 33 0 46 0H162C175 0 182 7 182 20V345L281 421C290 428 293 435 293 445V555C293 572 283 578 269 567L182 500H174V550C174 563 167 570 154 570ZM104 0ZM155 570ZM126 622H193C204 622 211 627 216 637L265 736C272 750 265 760 250 760H169C158 760 150 755 146 744L110 645C105 631 112 622 126 622ZM155 570Z" glyph-name="racute" horiz-adv-x="303" unicode="&#341;" /><glyph d="M154 570H46C33 570 26 563 26 550V20C26 7 33 0 46 0H162C175 0 182 7 182 20V345L281 421C290 428 293 435 293 445V555C293 572 283 578 269 567L182 500H174V550C174 563 167 570 154 570ZM104 0ZM155 570ZM252 760H197C186 760 179 756 175 744L157 690H151L133 744C129 756 122 760 111 760H56C41 760 35 751 41 737L83 637C87 626 95 622 106 622H201C212 622 221 626 225 637L267 737C273 751 267 760 252 760ZM154 812ZM155 570Z" glyph-name="rcaron" horiz-adv-x="303" unicode="&#345;" /><glyph d="M194 361C113 361 72 412 72 516V569C72 674 113 723 194 723C275 723 316 674 316 569V516C316 412 275 361 194 361ZM194 314C309 314 368 382 368 516V569C368 703 309 770 194 770C79 770 20 703 20 569V516C20 382 79 314 194 314ZM141 419H160C173 419 180 426 180 439V510H183L215 434C219 424 228 419 239 419H259C274 419 281 429 274 443L234 525V529C257 538 273 555 273 590V597C273 649 248 669 205 669H141C128 669 121 662 121 649V439C121 426 128 419 141 419ZM180 554V624H196C208 624 214 618 214 593V585C214 560 208 554 196 554Z" glyph-name="registered" horiz-adv-x="388" unicode="&#174;" /><glyph d="M140 622C192 622 230 652 230 702C230 752 192 783 140 783C89 783 50 752 50 702C50 652 89 622 140 622ZM140 674C123 674 112 685 112 702C112 719 123 730 140 730C157 730 169 719 169 702C169 685 157 674 140 674ZM141 570Z" glyph-name="ring" horiz-adv-x="280" unicode="&#730;" /><glyph d="M154 143V182C154 195 147 202 134 202H31C18 202 11 195 11 182V165C11 43 75 -9 185 -9C298 -9 362 45 362 151V163C362 244 323 295 258 333L209 362C173.7325 382.8726 159 395.9855 159 429V436C159 460 169 475 189 475C209 475 219 460 219 436V402C219 389 226 382 239 382H337C350 382 357 389 357 402V413C357 528 294 579 187 579C80 579 15 527 15 424V412C15 334 56 286 118 248L164 220C203.2684 196.0975 216 183.027 216 148V143C216 114 206 98 185 98C164 98 154 114 154 143ZM185 0ZM186 570Z" glyph-name="s" horiz-adv-x="373" unicode="s" /><glyph d="M154 143V184C154 197 147 204 134 204H31C18 204 11 197 11 184V165C11 43 75 -9 185 -9C298 -9 362 45 362 151V161C362 242 323 293 258 331L209 360C173 381 159 395 159 429V436C159 460 169 475 189 475C209 475 219 460 219 436V400C219 387 226 380 239 380H337C350 380 357 387 357 400V413C357 501 320 550 258 570C178 596 142 621 142 648C142 664 154 673 194 673H505C518 673 525 680 525 693V740C525 753 518 760 505 760H161C94 760 60 728 60 680C60 626 104 596 165 587V578C71 571 15 520 15 424V414C15 336 56 288 118 250L164 222C203 198 216 184 216 148V143C216 114 206 98 185 98C164 98 154 114 154 143ZM586 470C610 470 617 457 617 379V196C617 121 610 108 586 108C562 108 555 121 555 196V379C555 457 562 470 586 470ZM419 0H527C540 0 547 7 547 20V72H559C566 20 596 -6 652 -6C734 -6 778 44 778 227V343C778 526 732 576 652 576C602 576 574 555 567 513H555V740C555 753 548 760 535 760H419C406 760 399 753 399 740V20C399 7 406 0 419 0Z" glyph-name="s_b" horiz-adv-x="798" /><glyph d="M154 143V184C154 197 147 204 134 204H31C18 204 11 197 11 184V165C11 43 75 -9 185 -9C298 -9 362 45 362 151V161C362 242 323 293 258 331L209 360C173 381 159 395 159 429V436C159 460 169 475 189 475C209 475 219 460 219 436V400C219 387 226 380 239 380H337C350 380 357 387 357 400V413C357 501 320 550 258 570C178 596 142 621 142 648C142 664 154 673 194 673H505C518 673 525 680 525 693V740C525 753 518 760 505 760H161C94 760 60 728 60 680C60 626 104 596 165 587V578C71 571 15 520 15 424V414C15 336 56 288 118 250L164 222C203 198 216 184 216 148V143C216 114 206 98 185 98C164 98 154 114 154 143ZM633 0H749C762 0 769 7 769 20V435C769 537 725 578 659 578C605 578 578 552 567 506H555V740C555 753 548 760 535 760H419C406 760 399 753 399 740V20C399 7 406 0 419 0H535C548 0 555 7 555 20V409C555 447 566 465 587 465C604 465 613 455 613 429V20C613 7 620 0 633 0ZM584 0ZM474 760Z" glyph-name="s_h" horiz-adv-x="792" /><glyph d="M154 143V184C154 197 147 204 134 204H31C18 204 11 197 11 184V165C11 43 75 -9 185 -9C298 -9 362 45 362 151V161C362 242 323 293 258 331L209 360C173 381 159 395 159 429V436C159 460 169 475 189 475C209 475 219 460 219 436V400C219 387 226 380 239 380H337C350 380 357 387 357 400V413C357 501 320 550 258 570C178 596 142 621 142 648C142 664 154 673 194 673H505C518 673 525 680 525 693V740C525 753 518 760 505 760H161C94 760 60 728 60 680C60 626 104 596 165 587V578C71 571 15 520 15 424V414C15 336 56 288 118 250L164 222C203 198 216 184 216 148V143C216 114 206 98 185 98C164 98 154 114 154 143ZM419 0H535C548 0 555 7 555 20L553 244H568L617 18C619 7 627 0 639 0H768C782 0 789 9 785 22L707 293L782 547C786 560 779 570 765 570H641C629 570 622 564 619 553L568 339H553L555 740C555 753 548 760 535 760H419C406 760 399 753 399 740V20C399 7 406 0 419 0ZM582 0Z" glyph-name="s_k" horiz-adv-x="791" /><glyph d="M154 143V184C154 197 147 204 134 204H31C18 204 11 197 11 184V165C11 43 75 -9 185 -9C298 -9 362 45 362 151V161C362 242 323 293 258 331L209 360C173 381 159 395 159 429V436C159 460 169 475 189 475C209 475 219 460 219 436V400C219 387 226 380 239 380H337C350 380 357 387 357 400V413C357 501 320 550 258 570C178 596 142 621 142 648C142 664 154 673 194 673H505C518 673 525 680 525 693V740C525 753 518 760 505 760H161C94 760 60 728 60 680C60 626 104 596 165 587V578C71 571 15 520 15 424V414C15 336 56 288 118 250L164 222C203 198 216 184 216 148V143C216 114 206 98 185 98C164 98 154 114 154 143ZM535 760H419C406 760 399 753 399 740V20C399 7 406 0 419 0H535C548 0 555 7 555 20V740C555 753 548 760 535 760ZM478 0ZM479 760Z" glyph-name="s_l" horiz-adv-x="581" /><glyph d="M154 143V182C154 195 147 202 134 202H31C18 202 11 195 11 182V165C11 43 75 -9 185 -9C298 -9 362 45 362 151V163C362 244 323 295 258 333L209 362C173.7325 382.8726 159 395.9855 159 429V436C159 460 169 475 189 475C209 475 219 460 219 436V402C219 389 226 382 239 382H337C350 382 357 389 357 402V413C357 528 294 579 187 579C80 579 15 527 15 424V412C15 334 56 286 118 248L164 220C203.2684 196.0975 216 183.027 216 148V143C216 114 206 98 185 98C164 98 154 114 154 143ZM185 0ZM186 570ZM157 622H224C235 622 242 627 247 637L296 736C303 750 296 760 281 760H200C189 760 181 755 177 744L141 645C136 631 143 622 157 622ZM186 570Z" glyph-name="sacute" horiz-adv-x="373" unicode="&#347;" /><glyph d="M154 143V182C154 195 147 202 134 202H31C18 202 11 195 11 182V165C11 43 75 -9 185 -9C298 -9 362 45 362 151V163C362 244 323 295 258 333L209 362C173.7325 382.8726 159 395.9855 159 429V436C159 460 169 475 189 475C209 475 219 460 219 436V402C219 389 226 382 239 382H337C350 382 357 389 357 402V413C357 528 294 579 187 579C80 579 15 527 15 424V412C15 334 56 286 118 248L164 220C203.2684 196.0975 216 183.027 216 148V143C216 114 206 98 185 98C164 98 154 114 154 143ZM185 0ZM186 570ZM283 760H228C217 760 210 756 206 744L188 690H182L164 744C160 756 153 760 142 760H87C72 760 66 751 72 737L114 637C118 626 126 622 137 622H232C243 622 252 626 256 637L298 737C304 751 298 760 283 760ZM185 812ZM186 570Z" glyph-name="scaron" horiz-adv-x="373" unicode="&#353;" /><glyph d="M140 -145H207C263 -145 287 -116 287 -83C287 -41 259 -25 210 -25H206L210 -8C307 -1 362 53 362 151V161C362 242 323 293 258 331L209 360C173 381 159 395 159 429V436C159 460 169 475 189 475C209 475 219 460 219 436V400C219 387 226 380 239 380H337C350 380 357 387 357 400V413C357 528 294 579 187 579C80 579 15 527 15 424V414C15 336 56 288 118 250L164 222C203 198 216 184 216 148V143C216 114 206 98 185 98C164 98 154 114 154 143V184C154 197 147 204 134 204H31C18 204 11 197 11 184V165C11 56 62 3 151 -7L138 -53C134 -66 140 -76 154 -76H191C206 -76 213 -79 213 -88C213 -97 206 -99 191 -99H140C127 -99 120 -106 120 -119V-125C120 -138 127 -145 140 -145Z" glyph-name="scedilla" horiz-adv-x="373" unicode="&#351;" /><glyph d="M154 143V182C154 195 147 202 134 202H31C18 202 11 195 11 182V165C11 43 75 -9 185 -9C298 -9 362 45 362 151V163C362 244 323 295 258 333L209 362C173.7325 382.8726 159 395.9855 159 429V436C159 460 169 475 189 475C209 475 219 460 219 436V402C219 389 226 382 239 382H337C350 382 357 389 357 402V413C357 528 294 579 187 579C80 579 15 527 15 424V412C15 334 56 286 118 248L164 220C203.2684 196.0975 216 183.027 216 148V143C216 114 206 98 185 98C164 98 154 114 154 143ZM185 0ZM186 570ZM88 622H143C154 622 161 626 165 638L183 692H189L207 638C211 626 218 622 229 622H284C299 622 305 631 299 645L257 745C253 756 245 760 234 760H139C128 760 119 756 115 745L73 645C67 631 73 622 88 622ZM186 570Z" glyph-name="scircumflex" horiz-adv-x="373" unicode="&#349;" /><glyph d="M294 166C362 175 397 219 397 310V340C397 420 360 468 293 508L224 549C186 571 173 595 173 620V630C173 652 182 666 203 666C224 666 235 653 234 618V588C234 575 241 568 254 568H351C364 568 371 575 371 588V604C371 722 311 770 201 770C90 770 30 721 30 615V605C30 531 64 493 112 469V459C46 450 10 404 10 320V280C10 203 47 158 113 118L179 78C222 52 232 29 232 2V-8C232 -34 222 -48 200 -48C178 -48 167 -34 167 4V42C167 55 160 62 147 62H46C33 62 26 55 26 42V19C26 -106 86 -155 200 -155C317 -155 377 -104 377 5V15C377 94 345 133 294 158ZM204 224C166 246 153 270 153 295V378C153 399 161 413 181 414L189 409C236 381 252 356 252 327V260C252 230 242 214 221 214Z" glyph-name="section" horiz-adv-x="407" unicode="&#167;" /><glyph d="M111 390C164 390 202 428 202 481C202 534 164 572 111 572C58 572 20 534 20 481C20 428 58 390 111 390ZM123 -13 45 -54C36 -59 31 -67 31 -78V-120C31 -135 41 -142 55 -134L133 -93C183 -67 200 -37 200 21V80C200 137 159 173 108 173C58.5618 173 20 137 20 85C20 35.1461 54 -2 101 -2C141 -2 173 26 181 66C184 79 175 87 162 87H143C130 87 123 80 123 67Z" glyph-name="semicolon" horiz-adv-x="222" unicode=";" /><glyph d="M227 17 395 738C398 751 391 760 377 760H34C21 760 14 753 14 740V648C14 635 21 628 34 628H201L52 22C49 9 56 0 70 0H205C217 0 224 6 227 17Z" glyph-name="seven" horiz-adv-x="400" unicode="7" /><glyph d="M247 17 415 738C418 751 411 760 397 760H54C41 760 34 753 34 740V648C34 635 41 628 54 628H221L72 22C69 9 76 0 90 0H225C237 0 244 6 247 17Z" glyph-name="seven.tf" horiz-adv-x="452" /><glyph d="M223 118C197 118 187 137 187 179V301C187 343 197 362 223 362C249 362 259 343 259 301V179C259 137 249 118 223 118ZM257 573V546C257 533 264 526 277 526H393C406 526 413 533 413 546V547C413 705 354 770 224 770C83 770 21 686 21 479V285C21 76 87 -11 224 -11C361 -11 422 72 422 215V288C422 418 374 482 295 482C243 482 212 452 200 401H189V573C189 626 197 640 223 640C249 640 257 626 257 573Z" glyph-name="six" horiz-adv-x="442" unicode="6" /><glyph d="M228 118C202 118 192 137 192 179V301C192 343 202 362 228 362C254 362 264 343 264 301V179C264 137 254 118 228 118ZM262 573V546C262 533 269 526 282 526H398C411 526 418 533 418 546V547C418 705 359 770 229 770C88 770 26 686 26 479V285C26 76 92 -11 229 -11C366 -11 427 72 427 215V288C427 418 379 482 300 482C248 482 217 452 205 401H194V573C194 626 202 640 228 640C254 640 262 626 262 573Z" glyph-name="six.tf" horiz-adv-x="452" /><glyph d="M23 0H125C137 0 144 6 147 17L322 738C325 751 318 760 304 760H201C189 760 182 754 179 743L5 22C2 9 9 0 23 0Z" glyph-name="slash" horiz-adv-x="327" unicode="/" /><glyph glyph-name="space" horiz-adv-x="147" unicode=" " /><glyph d="M57 183C57 142 50 122 22 117C12 115 6 109 6 97V20C6 7 13 0 26 0H306C381 0 425 25 425 115V254C425 267 418 274 405 274H291C278 274 271 267 271 254V153C271 120 260 115 236 115H146V125C187 133 213 158 213 221V572C213 649 220 661 243 661C263 661 271 651 271 596V530C271 517 278 510 291 510H405C418 510 425 517 425 530V558C425 699 368.9186 770 243 770C110.4483 770 57 694 57 509ZM26 335H293C306 335 313 342 313 355V430C313 443 306 450 293 450H26C13 450 6 443 6 430V355C6 342 13 335 26 335Z" glyph-name="sterling" horiz-adv-x="447" unicode="&#163;" /><glyph d="M275 117H241C221 117 214 125 214 143V453H275C288 453 295 460 295 473V550C295 563 288 570 275 570H214V703C214 718 203 724 190 717L74 653C64 647 60 640 60 629V570H26C13 570 6 563 6 550V473C6 460 13 453 26 453H58V133C58 50 100 0 186 0H275C288 0 295 7 295 20V97C295 110 288 117 275 117ZM193 0ZM287 570Z" glyph-name="t" horiz-adv-x="303" unicode="t" /><glyph d="M205 453H386C399 453 406 460 406 473V550C406 563 399 570 386 570H205C192 570 185 563 185 550V473C185 460 192 453 205 453ZM275 117H241C221 117 214 125 214 143V453H275C288 453 295 460 295 473V550C295 563 288 570 275 570H214V703C214 718 203 724 190 717L74 653C64 647 60 640 60 629V570H26C13 570 6 563 6 550V473C6 460 13 453 26 453H58V133C58 50 100 0 186 0H275C288 0 295 7 295 20V97C295 110 288 117 275 117ZM193 0ZM287 570ZM543 117H509C489 117 482 125 482 143V453H543C556 453 563 460 563 473V550C563 563 556 570 543 570H482V703C482 718 471 724 458 717L342 653C332 647 328 640 328 629V570H294C281 570 274 563 274 550V473C274 460 281 453 294 453H326V133C326 50 368 0 454 0H543C556 0 563 7 563 20V97C563 110 556 117 543 117ZM461 0ZM555 570Z" glyph-name="t_t" horiz-adv-x="571" /><glyph d="M26 297H274C287 297 294 304 294 317V374C294 387 287 394 274 394H26C13 394 6 387 6 374V317C6 304 13 297 26 297ZM276 117H242C222 117 215 125 215 143V453H276C289 453 296 460 296 473V550C296 563 289 570 276 570H215V703C215 718 204 724 191 717L75 653C65 647 61 640 61 629V570H27C14 570 7 563 7 550V473C7 460 14 453 27 453H59V133C59 50 101 0 187 0H276C289 0 296 7 296 20V97C296 110 289 117 276 117ZM194 0ZM288 570Z" glyph-name="tbar" horiz-adv-x="304" unicode="&#359;" /><glyph d="M275 117H241C221 117 214 125 214 143V453H275C288 453 295 460 295 473V550C295 563 288 570 275 570H214V703C214 718 203 724 190 717L74 653C64 647 60 640 60 629V570H26C13 570 6 563 6 550V473C6 460 13 453 26 453H58V133C58 50 100 0 186 0H275C288 0 295 7 295 20V97C295 110 288 117 275 117ZM193 0ZM287 570ZM264 622H312C323 622 331 627 335 638L371 737C376 751 369 760 355 760H264C251 760 244 753 244 740V642C244 629 251 622 264 622ZM292 570Z" glyph-name="tcaron" horiz-adv-x="303" unicode="&#357;" /><glyph d="M220 0H275C288 0 295 7 295 20V97C295 110 288 117 275 117H241C221 117 214 125 214 143V453H275C288 453 295 460 295 473V550C295 563 288 570 275 570H214V703C214 718 203 724 190 717L74 653C64 647 60 640 60 629V570H26C13 570 6 563 6 550V473C6 460 13 453 26 453H58V133C58 58 92 11 161 2L145 -54C141 -67 148 -76 162 -76H199C214 -76 221 -79 221 -88C221 -97 214 -99 199 -99H148C135 -99 128 -106 128 -119V-125C128 -138 135 -145 148 -145H215C271 -145 295 -116 295 -83C295 -41 267 -25 218 -25H214Z" glyph-name="tcedilla" horiz-adv-x="303" unicode="&#355;" /><glyph d="M46 -145H154C167 -145 174 -138 174 -125V66C174 79 167 86 154 86H46C33 86 26 79 26 66V-125C26 -138 33 -145 46 -145ZM213 470C237 470 244 457 244 379V196C244 121 237 108 213 108C189 108 182 121 182 196V379C182 457 189 470 213 470ZM46 0H154C167 0 174 7 174 20V72H186C193 20 223 -6 279 -6C361 -6 405 44 405 227V343C405 526 359 576 279 576C229 576 201 555 194 513H182V740C182 753 175 760 162 760H46C33 760 26 753 26 740V20C26 7 33 0 46 0Z" glyph-name="thorn" horiz-adv-x="425" unicode="&#254;" /><glyph d="M213 647C237 647 247 633 247 591V513C247 471 236 456 211 456H145C132 456 125 449 125 436V346C125 333 132 326 145 326H209C236 326 247 309 247 258V176C247 129 236 115 211 115C186 115 175 129 175 176V256C175 269 168 276 155 276H40C27 276 20 269 20 256V225C20 57 81.3144 -11 215 -11C360 -11 413 63 413 191V215C413 321 366 376 306 389V398C353 411 406 458 406 562V583C406 702 346 770 215 770C91 770 25 709 25 555V526C25 513 32 506 45 506H159C172 506 179 513 179 526V591C179 633 189 647 213 647Z" glyph-name="three" horiz-adv-x="430" unicode="3" /><glyph d="M225 647C249 647 259 633 259 591V513C259 471 248 456 223 456H157C144 456 137 449 137 436V346C137 333 144 326 157 326H221C248 326 259 309 259 258V176C259 129 248 115 223 115C198 115 187 129 187 176V256C187 269 180 276 167 276H52C39 276 32 269 32 256V225C32 57 93.3144 -11 227 -11C372 -11 425 63 425 191V215C425 321 378 376 318 389V398C365 411 418 458 418 562V583C418 702 358 770 227 770C103 770 37 709 37 555V526C37 513 44 506 57 506H171C184 506 191 513 191 526V591C191 633 201 647 225 647Z" glyph-name="three.tf" horiz-adv-x="452" /><glyph d="M217 620C264 620 280 654 283 724C284 747 277 760 264 760H237C225 760 218 753 216 740C214 723 210 717 200 717C190 717 183 724 176 732C163.3158 744.6842 150 762 118 762C68 762 52 724 50 643C50 629 57 622 70 622H97C109 622 116 629 118 642C121 659 125 665 135 665C145 665 152 659 158 651C169.6552 638.2852 182 620 217 620ZM167 570Z" glyph-name="tilde" horiz-adv-x="334" unicode="&#732;" /><glyph d="M18 740V703C18 690 25 683 38 683H73V436C73 423 80 416 93 416H135C148 416 155 423 155 436V683H190C203 683 210 690 210 703V740C210 753 203 760 190 760H38C25 760 18 753 18 740ZM234 740V436C234 423 241 416 254 416H293C306 416 313 423 313 436L312 588H317L353 475C356 464 362 458 369 458C376 458 382 463 385 474L422 588H427L426 436C426 423 433 416 446 416H484C497 416 504 423 504 436V740C504 753 497 760 484 760H439C428 760 420 754 417 743L372 596H367L322 743C319 754 311 760 300 760H254C241 760 234 753 234 740Z" glyph-name="trademark" horiz-adv-x="528" unicode="&#8482;" /><glyph d="M174 583C174 626 184 640 209 640C234 640 244 626 244 583C244 534 225 482 193 411L17 23C11 9 17 0 32 0H383C396 0 403 7 403 20V112C403 125 396 132 383 132H238L315 297C361 396 403 468 403 576C403 704 344 770 220 770C88 770 23 714 23 535V503C23 490 30 483 43 483H154C167 483 174 490 174 503Z" glyph-name="two" horiz-adv-x="425" unicode="2" /><glyph d="M190 583C190 626 200 640 225 640C250 640 260 626 260 583C260 534 241 482 209 411L33 23C27 9 33 0 48 0H399C412 0 419 7 419 20V112C419 125 412 132 399 132H254L331 297C377 396 419 468 419 576C419 704 360 770 236 770C104 770 39 714 39 535V503C39 490 46 483 59 483H170C183 483 190 490 190 503Z" glyph-name="two.tf" horiz-adv-x="452" /><glyph d="M393 90V550C393 563 386 570 373 570H257C244 570 237 563 237 550V161C237 123 226 105 205 105C188 105 179 115 179 141V550C179 563 172 570 159 570H43C30 570 23 563 23 550V137C23 36 66 -8 135 -8C192 -8 221 18 233 70H245L258 17C261 6 268 0 280 0H388C402 0 409 9 406 22ZM197 0ZM410 0ZM209 570Z" glyph-name="u" horiz-adv-x="419" unicode="u" /><glyph d="M393 90V550C393 563 386 570 373 570H257C244 570 237 563 237 550V161C237 123 226 105 205 105C188 105 179 115 179 141V550C179 563 172 570 159 570H43C30 570 23 563 23 550V137C23 36 66 -8 135 -8C192 -8 221 18 233 70H245L258 17C261 6 268 0 280 0H388C402 0 409 9 406 22ZM197 0ZM410 0ZM209 570ZM180 622H247C258 622 265 627 270 637L319 736C326 750 319 760 304 760H223C212 760 204 755 200 744L164 645C159 631 166 622 180 622ZM209 570Z" glyph-name="uacute" horiz-adv-x="419" unicode="&#250;" /><glyph d="M393 90V550C393 563 386 570 373 570H257C244 570 237 563 237 550V161C237 123 226 105 205 105C188 105 179 115 179 141V550C179 563 172 570 159 570H43C30 570 23 563 23 550V137C23 36 66 -8 135 -8C192 -8 221 18 233 70H245L258 17C261 6 268 0 280 0H388C402 0 409 9 406 22ZM197 0ZM410 0ZM209 570ZM210 624C276 624 315 652 322 732C323 750 316 760 303 760H257C245 760 237 753 236 739C234 706 226 694 210 694C195 694 187 706 186 739C185 753 177 760 165 760H117C104 760 97 753 98 739C103 653 142 624 210 624ZM209 570Z" glyph-name="ubreve" horiz-adv-x="419" unicode="&#365;" /><glyph d="M393 90V550C393 563 386 570 373 570H257C244 570 237 563 237 550V161C237 123 226 105 205 105C188 105 179 115 179 141V550C179 563 172 570 159 570H43C30 570 23 563 23 550V137C23 36 66 -8 135 -8C192 -8 221 18 233 70H245L258 17C261 6 268 0 280 0H388C402 0 409 9 406 22ZM197 0ZM410 0ZM209 570ZM306 760H251C240 760 233 756 229 744L211 690H205L187 744C183 756 176 760 165 760H110C95 760 89 751 95 737L137 637C141 626 149 622 160 622H255C266 622 275 626 279 637L321 737C327 751 321 760 306 760ZM208 812ZM209 570Z" glyph-name="ucaron" horiz-adv-x="419" unicode="&#468;" /><glyph d="M393 90V550C393 563 386 570 373 570H257C244 570 237 563 237 550V161C237 123 226 105 205 105C188 105 179 115 179 141V550C179 563 172 570 159 570H43C30 570 23 563 23 550V137C23 36 66 -8 135 -8C192 -8 221 18 233 70H245L258 17C261 6 268 0 280 0H388C402 0 409 9 406 22ZM197 0ZM410 0ZM209 570ZM111 622H166C177 622 184 626 188 638L206 692H212L230 638C234 626 241 622 252 622H307C322 622 328 631 322 645L280 745C276 756 268 760 257 760H162C151 760 142 756 138 745L96 645C90 631 96 622 111 622ZM209 570Z" glyph-name="ucircumflex" horiz-adv-x="419" unicode="&#251;" /><glyph d="M393 90V550C393 563 386 570 373 570H257C244 570 237 563 237 550V161C237 123 226 105 205 105C188 105 179 115 179 141V550C179 563 172 570 159 570H43C30 570 23 563 23 550V137C23 36 66 -8 135 -8C192 -8 221 18 233 70H245L258 17C261 6 268 0 280 0H388C402 0 409 9 406 22ZM197 0ZM410 0ZM209 570ZM138 636C174 636 200 663 200 700C200 737 174 763 138 763C101 763 74 737 74 700C74 663 101 636 138 636ZM280 636C317 636 343 663 343 700C343 737 317 763 280 763C243 763 217 737 217 700C217 663 243 636 280 636ZM209 570Z" glyph-name="udieresis" horiz-adv-x="419" unicode="&#252;" /><glyph d="M393 90V550C393 563 386 570 373 570H257C244 570 237 563 237 550V161C237 123 226 105 205 105C188 105 179 115 179 141V550C179 563 172 570 159 570H43C30 570 23 563 23 550V137C23 36 66 -8 135 -8C192 -8 221 18 233 70H245L258 17C261 6 268 0 280 0H388C402 0 409 9 406 22ZM197 0ZM410 0ZM209 570ZM238 622H171C160 622 153 627 148 637L99 736C92 750 99 760 114 760H195C206 760 214 755 218 744L254 645C259 631 252 622 238 622ZM209 570ZM209 570Z" glyph-name="ugrave" horiz-adv-x="419" unicode="&#249;" /><glyph d="M393 90V550C393 563 386 570 373 570H257C244 570 237 563 237 550V161C237 123 226 105 205 105C188 105 179 115 179 141V550C179 563 172 570 159 570H43C30 570 23 563 23 550V137C23 36 66 -8 135 -8C192 -8 221 18 233 70H245L258 17C261 6 268 0 280 0H388C402 0 409 9 406 22ZM197 0ZM410 0ZM209 570ZM131 622H173C184 622 193 626 197 637L239 737C245 751 239 760 224 760H168C157 760 149 755 146 744L114 645C110 631 117 622 131 622ZM251 622H293C304 622 313 626 317 637L359 737C365 751 359 760 344 760H287C276 760 268 754 265 743L234 645C230 631 237 622 251 622ZM209 570Z" glyph-name="uhungarumlaut" horiz-adv-x="419" unicode="&#369;" /><glyph d="M393 90V550C393 563 386 570 373 570H257C244 570 237 563 237 550V161C237 123 226 105 205 105C188 105 179 115 179 141V550C179 563 172 570 159 570H43C30 570 23 563 23 550V137C23 36 66 -8 135 -8C192 -8 221 18 233 70H245L258 17C261 6 268 0 280 0H388C402 0 409 9 406 22ZM197 0ZM410 0ZM209 570ZM135 649H282C295 649 302 656 302 669V720C302 733 295 740 282 740H135C122 740 115 733 115 720V669C115 656 122 649 135 649ZM209 570Z" glyph-name="umacron" horiz-adv-x="419" unicode="&#363;" /><glyph d="M44 -145H373C386 -145 393 -138 393 -125V-67C393 -54 386 -47 373 -47H44C31 -47 24 -54 24 -67V-125C24 -138 31 -145 44 -145Z" glyph-name="underscore" horiz-adv-x="417" unicode="_" /><glyph d="M174 -10C236 -10 269 21 280 92H293L305 18C307 5 314 0 326 0H432C445 0 452 9 450 22L437 100V368C437 381 430 388 417 388H256C243 388 236 381 236 368V286C236 273 243 266 256 266H278V240C278 141 270 124 237 124C204 124 196 141 196 240V519C196 622 203 637 237 637C270 637 278 622 278 519V466C278 453 285 446 298 446H417C430 446 437 453 437 466V502C437 701 370 770 237 770C94 770 22 695 22 429V331C22 68 72 -10 174 -10ZM242 0ZM237 760ZM250 -123C250 -136 241 -144 227 -148C213 -152 205 -156 205 -166V-174C205 -184 211 -190 222 -189C273 -183 297 -145 297 -87V-82C297 -48 276 -24 245 -24C216 -24 195 -44 195 -75C195 -104 214 -125 241 -125C268 -125 287 -100 287 -65H250ZM242 0Z" glyph-name="uni0122" horiz-adv-x="465" unicode="&#290;" /><glyph d="M213 463C237 463 244 450 244 372V220C244 145 237 132 213 132C189 132 182 145 182 220V372C182 450 189 463 213 463ZM244 -2C244 -20 237 -28 217 -28H84C71 -28 64 -35 64 -48V-125C64 -138 71 -145 84 -145H271C357 -145 399 -95 399 -12V550C399 563 392 570 379 570H272C259 570 252 563 252 550V500H240C232 550 203 576 147 576C67 576 20 527 20 347V254C20 74 65 24 147 24C196 24 224 44 232 89H244ZM188 -40ZM227 570ZM188 703C188 716 197 724 211 728C225 732 233 736 233 746V754C233 764 227 770 216 769C165 763 141 725 141 667V662C141 628 162 604 193 604C222 604 243 624 243 655C243 684 224 705 197 705C170 705 151 680 151 645H188ZM196 580Z" glyph-name="uni0123" horiz-adv-x="425" unicode="&#291;" /><glyph d="M50 0H170C183 0 190 7 190 20L188 320H202L281 17C284 6 291 0 303 0H430C444 0 451 10 447 23L338 386L445 737C449 750 442 760 428 760H307C296 760 287 755 284 743L202 452H188L190 740C190 753 183 760 170 760H50C37 760 30 753 30 740V20C30 7 37 0 50 0ZM234 0ZM231 760ZM242 -123C242 -136 233 -144 219 -148C205 -152 197 -156 197 -166V-174C197 -184 203 -190 214 -189C265 -183 289 -145 289 -87V-82C289 -48 268 -24 237 -24C208 -24 187 -44 187 -75C187 -104 206 -125 233 -125C260 -125 279 -100 279 -65H242ZM234 0Z" glyph-name="uni0136" horiz-adv-x="454" unicode="&#310;" /><glyph d="M46 0H162C175 0 182 7 182 20L180 244H195L244 18C246 7 254 0 266 0H395C409 0 416 9 412 22L334 293L409 547C413 560 406 570 392 570H268C256 570 249 564 246 553L195 339H180L182 740C182 753 175 760 162 760H46C33 760 26 753 26 740V20C26 7 33 0 46 0ZM209 0ZM217 -123C217 -136 208 -144 194 -148C180 -152 172 -156 172 -166V-174C172 -184 178 -190 189 -189C240 -183 264 -145 264 -87V-82C264 -48 243 -24 212 -24C183 -24 162 -44 162 -75C162 -104 181 -125 208 -125C235 -125 254 -100 254 -65H217ZM209 0Z" glyph-name="uni0137" horiz-adv-x="418" unicode="&#311;" /><glyph d="M162 760H46C33 760 26 753 26 740V20C26 7 33 0 46 0H162C175 0 182 7 182 20V740C182 753 175 760 162 760ZM105 0ZM106 760ZM113 -123C113 -136 104 -144 90 -148C76 -152 68 -156 68 -166V-174C68 -184 74 -190 85 -189C136 -183 160 -145 160 -87V-82C160 -48 139 -24 108 -24C79 -24 58 -44 58 -75C58 -104 77 -125 104 -125C131 -125 150 -100 150 -65H113ZM105 0Z" glyph-name="uni013C" horiz-adv-x="208" unicode="&#316;" /><glyph d="M50 0H335C348 0 355 7 355 20V112C355 125 348 132 335 132H192V740C192 753 185 760 172 760H50C37 760 30 753 30 740V20C30 7 37 0 50 0ZM174 0ZM92 724ZM182 -123C182 -136 173 -144 159 -148C145 -152 137 -156 137 -166V-174C137 -184 143 -190 154 -189C205 -183 229 -145 229 -87V-82C229 -48 208 -24 177 -24C148 -24 127 -44 127 -75C127 -104 146 -125 173 -125C200 -125 219 -100 219 -65H182ZM174 0Z" glyph-name="uni013b" horiz-adv-x="367" unicode="&#315;" /><glyph d="M30 740V20C30 7 37 0 50 0H157C170 0 177 7 177 20L171 293L169 370H176L198 293L287 16C290 5 298 0 309 0H400C413 0 420 7 420 20V740C420 753 413 760 400 760H293C280 760 273 753 273 740L279 462L280 385H273L250 462L162 743C159 754 151 760 140 760H50C37 760 30 753 30 740ZM225 0ZM225 760ZM233 -123C233 -136 224 -144 210 -148C196 -152 188 -156 188 -166V-174C188 -184 194 -190 205 -189C256 -183 280 -145 280 -87V-82C280 -48 259 -24 228 -24C199 -24 178 -44 178 -75C178 -104 197 -125 224 -125C251 -125 270 -100 270 -65H233ZM225 0Z" glyph-name="uni0145" horiz-adv-x="449" unicode="&#325;" /><glyph d="M260 0H376C389 0 396 7 396 20V433C396 534 353 578 284 578C227 578 198 552 186 500H174V550C174 563 167 570 154 570H46C33 570 26 563 26 550V20C26 7 33 0 46 0H162C175 0 182 7 182 20V409C182 447 193 465 214 465C231 465 240 455 240 429V20C240 7 247 0 260 0ZM211 0ZM199 570ZM219 -123C219 -136 210 -144 196 -148C182 -152 174 -156 174 -166V-174C174 -184 180 -190 191 -189C242 -183 266 -145 266 -87V-82C266 -48 245 -24 214 -24C185 -24 164 -44 164 -75C164 -104 183 -125 210 -125C237 -125 256 -100 256 -65H219ZM211 0Z" glyph-name="uni0146" horiz-adv-x="419" unicode="&#326;" /><glyph d="M50 0H171C184 0 191 7 191 20V289H199L282 17C285 6 293 0 304 0H438C452 0 459 9 454 23L337 336V346C391 369 426 424 426 533V542C426 699 349 760 219 760H50C37 760 30 753 30 740V20C30 7 37 0 50 0ZM191 406V639H208C245 639 264 619 264 545V500C264 426 245 406 208 406ZM237 0ZM206 760ZM245 -123C245 -136 236 -144 222 -148C208 -152 200 -156 200 -166V-174C200 -184 206 -190 217 -189C268 -183 292 -145 292 -87V-82C292 -48 271 -24 240 -24C211 -24 190 -44 190 -75C190 -104 209 -125 236 -125C263 -125 282 -100 282 -65H245ZM237 0Z" glyph-name="uni0156" horiz-adv-x="450" unicode="&#342;" /><glyph d="M154 570H46C33 570 26 563 26 550V20C26 7 33 0 46 0H162C175 0 182 7 182 20V345L281 421C290 428 293 435 293 445V555C293 572 283 578 269 567L182 500H174V550C174 563 167 570 154 570ZM104 0ZM155 570ZM112 -123C112 -136 103 -144 89 -148C75 -152 67 -156 67 -166V-174C67 -184 73 -190 84 -189C135 -183 159 -145 159 -87V-82C159 -48 138 -24 107 -24C78 -24 57 -44 57 -75C57 -104 76 -125 103 -125C130 -125 149 -100 149 -65H112ZM104 0Z" glyph-name="uni0157" horiz-adv-x="303" unicode="&#343;" /><glyph d="M226 770C90 770 22 701 22 502V490C22 477 29 470 42 470H164C177 470 184 477 184 490V519C184 622 192 637 228 637C267 637 276 622 276 519V240C276 141 268 124 233 124C198 124 190 141 190 240V336C190 354 177 358 165 345L154 333C142 320 147 308 164 308H312C325 308 332 315 332 328V402C332 415 325 422 312 422H42C29 422 22 415 22 402V331C22 69 90 -10 236 -10C381 -10 450 68 450 331V429C450 696 373 770 226 770Z" glyph-name="uni018F" horiz-adv-x="472" unicode="&#399;" /><glyph d="M53 306H342C355 306 362 313 362 326V401C362 414 355 421 342 421H53C40 421 33 414 33 401V326C33 313 40 306 53 306ZM372 20V112C372 125 365 132 352 132H207L361 738C364 751 358 760 344 760H45C32 760 25 753 25 740V648C25 635 32 628 45 628H170L16 22C13 9 19 0 33 0H352C365 0 372 7 372 20ZM192 0ZM199 760Z" glyph-name="uni01B5" horiz-adv-x="390" unicode="&#437;" /><glyph d="M41 255H308C321 255 328 262 328 275V323C328 336 321 343 308 343H41C28 343 21 336 21 323V275C21 262 28 255 41 255ZM29 0H321C334 0 341 7 341 20V97C341 110 334 117 321 117H202L331 547C335 560 328 570 314 570H38C25 570 18 563 18 550V473C18 460 25 453 38 453H141L12 23C8 10 15 0 29 0ZM183 0ZM185 570Z" glyph-name="uni01B6" horiz-adv-x="352" unicode="&#438;" /><glyph d="M398 558C398 707 339 770 206 770C76 770 17 699 17 592V577C17 478 59 425 116 367L185 296C225 255 246 216 246 171V169C246 132 234 115 207 115C180 115 168 132 168 169V253C168 266 161 273 148 273H34C21 273 14 266 14 253V214C14 62 64 -10 209 -10C347 -10 405 59 405 176V191C405 290 362 351 307 408L243 475C196 524 174 555 174 596V598C174 632 186 647 210 647C234 647 246 632 246 598V533C246 520 253 513 266 513H378C391 513 398 520 398 533ZM209 0ZM207 760ZM217 -123C217 -136 208 -144 194 -148C180 -152 172 -156 172 -166V-174C172 -184 178 -190 189 -189C240 -183 264 -145 264 -87V-82C264 -48 243 -24 212 -24C183 -24 162 -44 162 -75C162 -104 181 -125 208 -125C235 -125 254 -100 254 -65H217ZM209 0Z" glyph-name="uni0218" horiz-adv-x="419" unicode="&#536;" /></font>
</defs>
</svg>
